<svg xmlns="http://www.w3.org/2000/svg" width="72" height="72" fill="none"><rect width="72" height="72" fill="#FC4C02" rx="36"/><mask id="a" width="72" height="72" x="0" y="0" maskUnits="userSpaceOnUse" style="mask-type:luminance"><path fill="#fff" d="M72 0H0v72h72z"/></mask><g fill="#fff" mask="url(#a)"><path d="m48.447 23.722-.097-.097c-3.521-3.465-8.19-5.383-13.164-5.39-4.974 0-9.65 1.9-13.18 5.358a18.83 18.83 0 0 0-5.608 14.112 7 7 0 0 1-.169 1.78c-.24 1.043-.024 2.134.674 2.928a1.89 1.89 0 0 0-2.262.313l-3.185 3.185a1.91 1.91 0 0 0 0 2.688 1.91 1.91 0 0 1 0 2.687l-.65.65a1.84 1.84 0 0 0-.553 1.267c-.169 8.512 7.886 10.718 11.985 6.627l.224-.225 1.34 1.34a1.91 1.91 0 0 0 2.688 0l3.185-3.185a1.89 1.89 0 0 0 .288-2.294c.738.561 1.701.714 2.616.49a6.36 6.36 0 0 1 3.377.071c.45.129.923.129 1.38.032 17.44-3.666 21.147-22.31 11.119-32.337zM36.004 14.649a2.616 2.616 0 0 0 2.615-2.616v-2.84a2.616 2.616 0 0 0-5.23 0v2.84a2.616 2.616 0 0 0 2.615 2.616M62.815 33.389h-2.84a2.616 2.616 0 0 0 0 5.23h2.84a2.616 2.616 0 0 0 0-5.23M17.2 20.906a2.58 2.58 0 0 0 1.845.762c.698 0 1.355-.273 1.845-.762a2.6 2.6 0 0 0 .77-1.854 2.6 2.6 0 0 0-.77-1.853l-2.006-2.005a2.58 2.58 0 0 0-1.845-.762 2.63 2.63 0 0 0-1.853.762 2.62 2.62 0 0 0 0 3.698l2.006 2.006zM54.808 51.11a2.58 2.58 0 0 0-1.845-.762 2.63 2.63 0 0 0-1.853.762 2.57 2.57 0 0 0-.762 1.853c0 .706.272 1.356.762 1.845l2.005 2.006a2.6 2.6 0 0 0 1.853.77c.706 0 1.356-.273 1.846-.77a2.62 2.62 0 0 0 0-3.699zM52.955 21.669c.698 0 1.356-.273 1.845-.763l2.006-2.005a2.62 2.62 0 0 0 0-3.698 2.58 2.58 0 0 0-1.845-.763 2.63 2.63 0 0 0-1.853.763l-2.006 2.005a2.62 2.62 0 0 0 0 3.698 2.58 2.58 0 0 0 1.853.763"/></g></svg>