<svg xmlns="http://www.w3.org/2000/svg" width="72" height="72" fill="none"><g clip-path="url(#a)"><rect width="72" height="72" fill="#2965FF" rx="36"/><mask id="b" width="72" height="72" x="0" y="0" maskUnits="userSpaceOnUse" style="mask-type:luminance"><path fill="#fff" d="M72 0H0v72h72z"/></mask><g mask="url(#b)"><path fill="#fff" d="M61.45 32.908a3.335 3.335 0 0 1-2.374 3.136l-15.13 4.541a5 5 0 0 0-3.337 3.337l-4.541 15.13a3.34 3.34 0 0 1-3.137 2.375 3.34 3.34 0 0 1-3.257-2.222L17.023 21.268a3.34 3.34 0 0 1 2.11-4.228 3.28 3.28 0 0 1 2.11 0l37.945 12.643a3.34 3.34 0 0 1 2.254 3.225z"/></g></g><defs><clipPath id="a"><rect width="72" height="72" fill="#fff" rx="36"/></clipPath></defs></svg>