<svg xmlns="http://www.w3.org/2000/svg" width="72" height="72" fill="none"><g clip-path="url(#a)"><rect width="72" height="72" fill="#7EE100" rx="36"/><mask id="b" width="72" height="72" x="0" y="0" maskUnits="userSpaceOnUse" style="mask-type:luminance"><path fill="#fff" d="M72 0H0v72h72z"/></mask><g mask="url(#b)"><path fill="#fff" d="M46.85 28.584 30.968 12.699a3.215 3.215 0 0 0-4.541 0l-2.88 2.88a3.215 3.215 0 0 0 0 4.541L39.43 36.004 23.546 51.888a3.215 3.215 0 0 0 0 4.54l2.88 2.88a3.215 3.215 0 0 0 4.54 0l15.885-15.883 5.15-5.15a3.215 3.215 0 0 0 0-4.541z"/></g></g><defs><clipPath id="a"><rect width="72" height="72" fill="#fff" rx="36"/></clipPath></defs></svg>