<svg width="62" height="67" viewBox="0 0 62 67" fill="none" xmlns="http://www.w3.org/2000/svg">
<path d="M59.8191 41.4732L45.2582 33.4895L59.8191 25.5058C61.8441 24.3923 62.5956 21.8396 61.4892 19.8017L58.9528 15.1165C57.8464 13.0786 55.31 12.3222 53.285 13.4357L37.8264 21.9131V4.20194C37.8264 1.88037 35.958 0 33.6512 0H28.3488C26.042 0 24.1736 1.88037 24.1736 4.20194V21.9236L8.71501 13.4462C6.69005 12.3327 4.15363 13.0891 3.04721 15.127L0.510788 19.8122C-0.595633 21.8501 0.155899 24.4028 2.18086 25.5163L16.7418 33.5L2.18086 41.4837C0.155899 42.5972 -0.595633 45.1499 0.510788 47.1878L3.04721 51.873C4.15363 53.9109 6.69005 54.6673 8.71501 53.5538L24.1736 45.0764V62.7981C24.1736 65.1196 26.042 67 28.3488 67H33.6512C35.958 67 37.8264 65.1196 37.8264 62.7981V45.0764L53.285 53.5538C55.31 54.6673 57.8464 53.9109 58.9528 51.873L61.4892 47.1878C62.5956 45.1499 61.8441 42.5972 59.8191 41.4837V41.4732Z" fill="#2965FF"/>
</svg>
