<svg fill="none" height="54" viewBox="0 0 54 54" width="54" xmlns="http://www.w3.org/2000/svg" xmlns:xlink="http://www.w3.org/1999/xlink"><clipPath id="a"><rect height="54" rx="27" width="54"/></clipPath><mask id="b" height="54" maskUnits="userSpaceOnUse" width="54" x="0" y="0"><path d="m54 0h-54v54h54z" fill="#fff"/></mask><g clip-path="url(#a)"><rect fill="#fc4c02" height="54" rx="27" width="54"/><g fill="#fff" mask="url(#b)"><path d="m37.5022 37.434c-.0301-1.4079-1.1974-2.5751-2.6053-2.6052l-3.4776-.0722-.0181-.2407 9.3921-9.3921c1.0168-1.0168 1.0168-2.6654 0-3.6822s-2.6654-1.0168-3.6822 0l3.4476-3.4476c1.0168-1.0168 1.0168-2.6654 0-3.6822-1.0169-1.0168-2.6654-1.0168-3.6823 0l-1.456 1.456c.9627-1.0228.9506-2.6232-.0481-3.622-.9988-.9988-2.6654-1.0168-3.6823 0l-2.7135 2.7135c.722-1.0168.6799-2.4789-.2768-3.3393-1.9434-1.75684-7.551 1.8893-10.4029 4.7773-2.9121 2.9422-10.32466 12.7133-3.5799 20.2583 7.8999 8.8385 20.8118 3.3393 21.0224 3.2851 1.0409-.2948 1.7809-1.2515 1.7569-2.4007z"/><path d="m22.0874 9.79319c.8724-.33092 1.4018-1.20936 1.2394-2.1239-.2046-1.17928-1.438-1.88925-2.5571-1.46206-5.3428 2.00958-9.6689 6.09497-12.01538 11.26327-.51744 1.1432.21058 2.4669 1.44998 2.6594.8544.1384 1.6847-.3249 2.0397-1.1131 1.9254-4.2297 5.4692-7.569 9.8373-9.21759z"/><path d="m43.5069 38.5705c-.7521-.4332-1.6907-.2948-2.3044.3128-3.3092 3.2611-7.8097 5.1142-12.4847 5.0962-.9326 0-1.7389.6318-1.9194 1.5403-.2286 1.1793.6679 2.2743 1.8652 2.2803 5.7099.0301 11.2092-2.2382 15.2464-6.2333.8904-.8845.6799-2.3766-.4031-3.0023z"/></g></g></svg>