<svg fill="none" height="54" viewBox="0 0 54 54" width="54" xmlns="http://www.w3.org/2000/svg" xmlns:xlink="http://www.w3.org/1999/xlink"><clipPath id="a"><rect height="54" rx="27" width="54"/></clipPath><mask id="b" height="54" maskUnits="userSpaceOnUse" width="54" x="0" y="0"><path d="m54 0h-54v54h54z" fill="#fff"/></mask><g clip-path="url(#a)"><rect fill="#7ee100" height="54" rx="27" width="54"/><g mask="url(#b)"><path d="m40.2157 13.7054c-4.0673-4.0673-9.7771-5.89037-15.6254-4.84948-2.4007.42719-4.693 1.37778-6.6906 2.77368-4.8735 3.4055-7.6171 8.7303-7.6171 14.4762 0 2.9903.7641 5.9265 2.2081 8.5197l-2.0216 7.4667c-.1023.3851 0 .7943.2888 1.077.2828.2828.6919.3911 1.077.2888l7.4667-2.0216c2.5992 1.444 5.5354 2.2082 8.5197 2.2082 5.7459 0 11.0707-2.7437 14.4762-7.6172 1.3959-1.9975 2.3465-4.2899 2.7737-6.6906 1.0409-5.8542-.7822-11.5641-4.8495-15.6314z" fill="#fff"/></g></g></svg>