<svg fill="none" height="144" viewBox="0 0 360 144" width="360" xmlns="http://www.w3.org/2000/svg" xmlns:xlink="http://www.w3.org/1999/xlink"><clipPath id="a"><path d="m66 44h228v56h-228z"/></clipPath><g clip-path="url(#a)"><path d="m121.567 88.1705c-1.386 1.83-2.992 3.4844-4.804 4.9485-1.811 1.464-3.78 2.7231-5.922 3.7479-2.127 1.0249-4.363 1.8155-6.71 2.3425-2.332.5271-4.71.7906-7.1041.7906-16.5862 0-30.022-12.5323-30.022-28.0073 0-15.4751 13.4516-27.9927 30.0377-27.9927 2.41 0 4.7724.2635 7.1034.7906 2.332.527 4.568 1.303 6.71 2.3425 2.127 1.0248 4.112 2.2839 5.923 3.7479 1.811 1.4641 3.418 3.1185 4.804 4.9485-.567-.5563-1.181-1.0834-1.811-1.5958-.63-.4978-1.292-.9809-1.969-1.4201s-1.386-.8492-2.111-1.2298c-.724-.3807-1.465-.7174-2.221-1.0248-.756-.3075-1.528-.5857-2.315-.8199-.788-.2343-1.591-.4392-2.394-.6003-.804-.161-1.623-.2928-2.458-.3806-.819-.0879-1.654-.1318-2.473-.1464-.819-.0147-1.653.0146-2.488.0878-.819.0586-1.6542.1757-2.4575.3075-.8191.1464-1.6224.3221-2.4099.5417-.8034.2196-1.5752.4685-2.347.7613s-1.5279.6149-2.2524.9662c-.7403.3514-1.4491.7467-2.1422 1.1713s-1.3546.8784-2.0004 1.3616c-.6458.4831-1.2601.9955-1.8587 1.5372-.5828.5417-1.1498 1.1127-1.6854 1.6983-.5355.5856-1.0238 1.2152-1.4963 1.8447-.4568.6442-.8979 1.303-1.2916 1.9765-.3938.6734-.7561 1.3762-1.0711 2.0936s-.5986 1.4347-.8506 2.1814c-.2363.732-.441 1.4933-.6143 2.24-.1575.7613-.2835 1.5226-.3623 2.2839-.0787.776-.126 1.5373-.126 2.3132 0 .776.0473 1.5373.126 2.3132.0788.776.2048 1.5373.3623 2.284.1575.7613.3623 1.5079.6143 2.24.2363.732.5198 1.464.8506 2.1814.315.7174.6773 1.4055 1.0711 2.0936.3937.6735.819 1.3469 1.2916 1.9765.4568.6441.9608 1.2591 1.4963 1.8447.5356.6002 1.0869 1.1566 1.6854 1.6983.5828.5417 1.2129 1.0541 1.8587 1.5372.6458.4832 1.3073.937 2.0004 1.3616s1.4019.8199 2.1422 1.1712c.7403.3514 1.4806.6735 2.2524.9663s1.5594.5417 2.347.7613c.8033.2196 1.6066.3953 2.4099.5417.8191.1464 1.6385.2489 2.4575.3075.819.0585 1.654.0878 2.488.0878.835 0 1.654-.0585 2.473-.1464.819-.0878 1.638-.2196 2.458-.3806.803-.1611 1.606-.3661 2.394-.6003.787-.2343 1.559-.5124 2.315-.8199.756-.3074 1.497-.6442 2.221-1.0248.725-.3807 1.418-.7906 2.111-1.2298.677-.4392 1.339-.9077 1.969-1.4201.63-.4978 1.228-1.0395 1.811-1.5959z" fill="#0f52ba"/><path d="m107.187 63.9551c.866.4099 1.669.8784 2.425 1.4494.756.5563 1.434 1.1859 2.048 1.8886.614.7028 1.134 1.4494 1.591 2.2547.441.8052.787 1.6397 1.039 2.5035s.41 1.7568.457 2.6499 0 1.8008-.142 2.6792c-.157.8931-.393 1.7569-.74 2.5914-.346.8345-.787 1.6397-1.307 2.4011-.52.7613-1.134 1.4494-1.812 2.0935-.677.6296-1.433 1.2006-2.252 1.6837s-1.67.8931-2.568 1.2152c-.897.3221-1.827.5417-2.788.6881-.96.1317-1.921.1757-2.882.1317-.9609-.0585-1.9217-.2049-2.851-.4392-.9293-.2342-1.8272-.571-2.6777-.9809-.8506-.4099-1.6539-.9077-2.41-1.4787-.756-.571-1.4176-1.2151-2.0161-1.9179-.5986-.7027-1.1184-1.464-1.5437-2.2693-.4253-.8052-.756-1.6543-1.0081-2.5181-.2362-.8785-.378-1.7569-.4095-2.6646s.0315-1.8008.189-2.6792c.1575-.8931.4253-1.7569.7876-2.5914s.8033-1.6251 1.3546-2.3718c.5513-.7466 1.1656-1.4347 1.8587-2.0643-.4568.5564-.8664 1.1566-1.1971 1.8008-.3308.6295-.5986 1.2884-.7876 1.9765s-.315 1.3762-.3623 2.0936c-.0472.7027-.0157 1.4055.0945 2.1082.1103.7027.2835 1.3909.5356 2.0497.252.6734.567 1.303.9608 1.9179s.8348 1.1712 1.3388 1.6983c.5041.527 1.0711.9955 1.6697 1.4201.6143.4246 1.2601.7906 1.9374 1.0834s1.4019.5417 2.1422.7174 1.4806.2782 2.2362.3075c.757.0292 1.513 0 2.269-.1172.756-.1025 1.48-.2781 2.189-.527s1.402-.5564 2.048-.9224 1.244-.7906 1.811-1.2737c.551-.4831 1.055-1.0102 1.497-1.5812.441-.571.819-1.1859 1.134-1.8301.315-.6441.567-1.3176.724-2.0057.158-.6881.268-1.3909.299-2.0936.032-.7027-.031-1.4055-.157-2.1082-.126-.7028-.331-1.3762-.599-2.0351-.267-.6588-.614-1.2883-1.008-1.8886-.409-.6003-.866-1.1566-1.386-1.669s-1.102-.9663-1.717-1.3762z" fill="#7ebd01"/><path d="m104.32 79.5467c-.52.2489-1.072.4538-1.654.6002-.583.1464-1.15.2343-1.749.2636-.598.0292-1.1811 0-1.7639-.0732-.5828-.0879-1.1656-.2196-1.7169-.4246-.5513-.1903-1.0868-.4392-1.5751-.7467-.504-.3074-.9608-.6442-1.3861-1.0395s-.7876-.8198-1.1183-1.2883c-.3308-.4685-.5986-.9517-.8034-1.4787-.2205-.5124-.3622-1.0541-.4567-1.5958-.0946-.5417-.1261-1.0981-.0946-1.6544.0316-.5563.1261-1.0981.2836-1.6251.1575-.5417.378-1.0541.6458-1.5373.2677-.4977.5985-.9516.9766-1.3762.378-.4245.8033-.8198 1.2601-1.1566.4567-.3513.9608-.6442 1.4963-.893.5356-.2489 1.0869-.4393 1.6539-.5857.5828-.1317 1.1656-.2196 1.7487-.2489.598-.0292 1.181 0 1.764.1025.583.0879 1.15.2489 1.701.4392.551.205 1.071.4685 1.575.776.488.3074.945.6588 1.37 1.0541.41.3953.772.8345 1.103 1.303.315.4685.583.9663.788 1.4787.204.5271.346 1.0541.425 1.6105-.126-.4246-.315-.8199-.52-1.2006-.22-.3806-.472-.7466-.772-1.0834-.299-.3367-.63-.6441-.976-.9223-.363-.2782-.741-.5124-1.166-.7174-.409-.205-.835-.366-1.291-.4978-.441-.1317-.898-.2049-1.371-.2489-.472-.0439-.929-.0439-1.386 0-.457.044-.914.1318-1.3703.2636-.441.1317-.8663.2928-1.2759.5124-.4095.205-.7875.4538-1.1498.732s-.6773.5856-.9766.937c-.2993.3367-.5513.7027-.756 1.0834-.2048.3807-.3781.7906-.5198 1.2152-.126.4245-.2048.8491-.2521 1.2737-.0315.4392-.0315.8638.0315 1.303.0631.4392.1576.8492.2993 1.2737.1418.41.3308.8053.5671 1.1859.2362.3807.504.732.8033 1.0688.2993.3221.6458.6295 1.0081.893.3622.2636.756.4978 1.1813.6881.4253.1904.8506.3514 1.3069.4539.457.1171.914.1903 1.371.2196.472.0293.929 0 1.386-.0439.457-.0586.914-.1611 1.355-.2928z" fill="#7ebd01"/><path d="m84.3001 77.9521c-.2205-.6442-.4096-1.303-.5671-1.9765-.1575-.6734-.2677-1.3469-.3307-2.0204-.0788-.6734-.1103-1.3615-.1103-2.035 0-.6881.0472-1.3616.126-2.035.0788-.6735.189-1.347.3465-2.0204.1575-.6735.3466-1.3177.5828-1.9765.2363-.6442.4883-1.2884.7876-1.9033s.63-1.2298 1.0081-1.8154c.3623-.5856.7718-1.1566 1.1971-1.7129.441-.5564.8978-1.0688 1.3861-1.5812.4883-.4978 1.0081-.9809 1.5594-1.4348.5513-.4538 1.1183-.8784 1.7169-1.2737.5985-.3953 1.2128-.7613 1.8429-1.098.63-.3368 1.2916-.6442 1.9531-.9078.6773-.2781 1.3546-.5124 2.0477-.7173.693-.205 1.4019-.3807 2.1264-.5125.7244-.1317 1.4334-.2342 2.1734-.2928.725-.0585 1.465-.0878 2.19-.0878.724 0 1.465.0439 2.189.1317.725.0732 1.449.1904 2.158.3368s1.418.3367 2.111.5563 1.37.4685 2.032.7613c.661.2782 1.307.6003 1.937.9517.63.3513 1.229.732 1.827 1.1419.583.41 1.15.8492 1.686 1.303.535.4685 1.039.9517 1.527 1.4641.489.5124.93 1.0541 1.355 1.6104.425.5564.803 1.142 1.166 1.7276.362.6003.677 1.2005.961 1.8301.283.6295.535 1.2737.756 1.9179.22.6442.393 1.3176.535 1.9765.142.6588.236 1.3469.299 2.0204.063.6734.095 1.3615.079 2.035-.016.6734-.063 1.3616-.157 2.035-.095.6735-.221 1.3469-.378 2.0058-.174.6588-.363 1.3176-.615 1.9618-.236.6442-.519 1.2737-.834 1.8886-.316.6149-.662 1.2152-1.04 1.8008s-.788 1.142-1.229 1.6837-.913 1.0687-1.417 1.5519c-.504.4977-1.024.9662-1.591 1.4055-.551.4392-1.134.8637-1.733 1.2444-.598.3807-1.228.7467-1.858 1.0688-.646.322-1.308.6149-1.969.8784-.662.2635-1.371.4831-2.064.6881-.709.1903-1.417.3514-2.126.4831-.725.1318-1.449.2196-2.174.2636-.724.0439-1.465.0732-2.189.0585 1.15-.1317 2.268-.366 3.355-.7027 1.087-.3368 2.142-.776 3.15-1.303 1.008-.5271 1.937-1.1566 2.804-1.8594.866-.7027 1.654-1.4787 2.362-2.3278.709-.8492 1.308-1.7569 1.828-2.7232.504-.9662.913-1.9618 1.212-3.0013.3-1.0394.489-2.0936.552-3.1623.078-1.0688.031-2.1375-.126-3.2063-.158-1.0687-.426-2.1082-.804-3.1184s-.866-1.9911-1.449-2.9135c-.583-.9223-1.26-1.7861-2.032-2.5914-.772-.8052-1.622-1.5226-2.536-2.1668-.929-.6441-1.906-1.2005-2.945-1.6543-1.04-.4685-2.127-.8199-3.245-1.0834-1.118-.2636-2.252-.4246-3.402-.4685-1.15-.0586-2.3 0-3.434.161-1.1341.1611-2.2524.4246-3.3393.7906-1.0868.366-2.1106.8345-3.103 1.3909-.9923.5563-1.9059 1.2005-2.7407 1.9325-.8506.732-1.6066 1.5226-2.2839 2.401-.6773.8638-1.2601 1.7862-1.7327 2.7671-.4725.9809-.8505 1.9911-1.1183 3.0306s-.4095 2.1082-.4568 3.177c-.0315 1.0687.0315 2.1375.2205 3.2063z" fill="#1cbab5"/><g fill="#0f52ba"><path d="m145.619 71.3488c-.346.2489-.724.4539-1.118.6295-.646.3075-1.307.5271-2.001.7028-.85.2196-1.732.3074-2.614.2928-1.355 0-2.646-.2635-3.891-.7467-1.118-.4392-2.079-1.0687-2.914-1.8886-.803-.8052-1.402-1.7129-1.827-2.7378-.425-1.0687-.63-2.1668-.63-3.2941 0-1.2298.205-2.445.646-3.6016.409-1.0541 1.008-2.0057 1.827-2.8256.803-.8052 1.764-1.4201 2.851-1.8447 1.166-.4538 2.394-.6734 3.67-.6588 1.118-.0146 2.221.1318 3.292.4685.819.2489 1.591.5856 2.331.9955l-1.433 3.2063c-.52-.3514-1.087-.6588-1.67-.9223-.756-.3368-1.559-.4978-2.394-.4832-.709 0-1.386.1318-2.016.41-.646.2781-1.229.6588-1.701 1.1566-.504.5124-.898 1.098-1.166 1.7422-.299.7027-.441 1.4201-.425 2.1668 0 .7759.126 1.5372.394 2.2693.236.6588.614 1.2444 1.118 1.7715.488.4977 1.071.8784 1.748 1.1273.741.2782 1.497.4099 2.3.3953.882.0146 1.717-.1318 2.536-.4392.599-.2343 1.118-.5417 1.607-.937l1.512 3.0452z"/><path d="m150.518 55.5508h12.601v3.2795h-8.963v3.6747h7.923v3.2649h-7.923v3.7187h9.309v3.2794h-12.947z"/><path d="m181.454 55.5504.078 10.3801-12.9-11.0535h-.157v17.8907h3.701l-.079-10.1752 12.916 10.8779h.111v-17.92z"/><path d="m189.881 55.5508h12.443v3.2795h-4.489v13.9377h-3.638v-13.9377h-4.316z"/><path d="m210.735 58.8294h2.615c.63 0 1.15.1025 1.512.3075.346.1756.63.4245.835.7466.173.2782.299.571.362.8785.047.2342.079.4684.095.7173 0 .2782-.048.5417-.142.8053-.095.3074-.252.5856-.457.8345-.236.2781-.52.4978-.866.6588-.441.1903-.898.2782-1.386.2635h-2.584v-5.1974zm10.569 13.9378-4.3-6.2515c.567-.2928 1.055-.6735 1.481-1.1273.504-.571.882-1.2152 1.102-1.918.221-.6881.331-1.3908.331-2.1082 0-.8345-.142-1.6251-.472-2.401-.315-.7028-.772-1.3177-1.387-1.8301-.661-.5417-1.417-.9224-2.268-1.1712-1.008-.2929-2.032-.4246-3.087-.41h-5.592v17.2173h3.639v-5.4756h2.426l3.906 5.4756h4.237z"/><path d="m229.212 55.5508h-3.639v17.2172h3.639z"/><path d="m249.074 71.3478c-.346.2489-.724.4539-1.118.6296-.646.3074-1.307.527-2 .7027-.851.2196-1.733.3075-2.615.2928-1.355 0-2.646-.2489-3.906-.732-1.119-.4392-2.08-1.0688-2.914-1.8886-.804-.8052-1.402-1.713-1.812-2.7378-.425-1.0688-.63-2.1668-.63-3.2941 0-1.2298.205-2.445.646-3.6016.409-1.0541 1.008-2.0057 1.827-2.8256.803-.8052 1.764-1.4201 2.851-1.8447 1.166-.4539 2.394-.6735 3.67-.6588 1.118-.0147 2.221.1317 3.292.4685.819.2489 1.591.5856 2.331.9955l-1.433 3.1917c-.52-.3514-1.087-.6589-1.67-.9224-.756-.3367-1.559-.4978-2.394-.4831-.709 0-1.386.1317-2.016.4099-.646.2782-1.229.6588-1.701 1.1566-.504.5124-.898 1.098-1.166 1.7422-.299.7028-.441 1.4202-.425 2.1668 0 .776.126 1.5373.394 2.2693.236.6588.614 1.2444 1.118 1.7715.488.4978 1.071.8784 1.748 1.1273.741.2782 1.513.41 2.3.3953.882.0147 1.717-.1317 2.536-.4392.599-.2342 1.134-.5417 1.607-.937l1.496 3.0452z"/><path d="m257.611 55.5508h-3.638v17.2172h3.638z"/><path d="m262.368 55.5508h12.444v3.2795h-4.489v13.9377h-3.639v-13.9377h-4.316z"/><path d="m290.453 55.5508-4.143 7.9498-4.237-7.9498h-4.489l6.789 11.8588v5.3584h3.638v-5.3584l6.931-11.8588z"/></g><path d="m158.646 81.7564h2.001c.409 0 .787.0585 1.165.2196.284.1318.536.3221.725.5563.173.2196.299.4539.378.7028.063.2196.11.4538.11.6734 0 .2343-.047.4685-.126.7028-.079.2489-.205.4831-.394.6881-.204.2342-.457.4099-.74.5417-.378.161-.788.2342-1.197.2196h-1.922zm7.671 10.5704-3.26-4.8313c.441-.205.819-.4832 1.149-.8345.363-.3953.63-.8346.788-1.3323.157-.4832.236-.9663.236-1.4787 0-.6003-.11-1.1566-.362-1.713-.236-.4977-.567-.9077-1.008-1.259-.457-.3661-.992-.6296-1.559-.7906-.662-.1904-1.339-.2782-2.032-.2636h-3.781v12.503h2.158v-4.3336h2.158l3.024 4.3483h2.489z" fill="#1cbab5"/><path d="m175.484 87.3492c.189-.3368.441-.6003.788-.8053.346-.2049.724-.2928 1.15-.2928.535 0 .96.1318 1.276.3807.283.2342.488.5124.614.8345l-4.08 1.3469c0-.0878 0-.1903 0-.2928 0-.4246.079-.8199.284-1.2005zm3.009 3.3673c-.3.1025-.599.161-.914.1464-.425 0-.835-.0879-1.213-.2928-.299-.1611-.551-.3807-.74-.6442l5.986-1.8886c-.237-1.0541-.694-1.8594-1.387-2.445s-1.575-.8638-2.646-.8638c-.787 0-1.528.1611-2.221.5271-.661.3367-1.197.8052-1.606 1.4055-.394.6002-.599 1.259-.583 1.9618 0 .7027.157 1.3762.52 2.0057.346.6003.85 1.0542 1.496 1.3763.74.3513 1.528.5124 2.363.4977.472 0 .929-.0732 1.386-.2196.472-.1317.913-.3221 1.339-.571l-.945-1.4201c-.252.1611-.536.3075-.835.4099z" fill="#1cbab5"/><path d="m194.591 89.0479c-.174-.2635-.41-.4832-.693-.6588-.315-.1904-.646-.3368-1.009-.4246-.283-.0879-.567-.1757-.85-.2635-.252-.0586-.488-.1757-.693-.3221-.189-.1464-.284-.3221-.268-.5564 0-.1464.047-.2781.173-.3953.126-.1171.268-.2049.426-.2635.189-.0732.393-.0878.582-.0732.284.0146.552.0732.819.1757.3.1025.552.2635.788.4685l.788-1.1713c-.378-.2635-.788-.4685-1.229-.6002-.504-.1318-1.008-.1904-1.544-.1904-.567-.0146-1.118.0879-1.622.3368-.41.2049-.725.4978-.961.8638-.205.3367-.315.7027-.315 1.0834 0 .4831.158.9223.504 1.303.331.366.835.6588 1.497.8638.315.0732.598.161.866.2489.236.0732.457.1756.661.322.189.1465.268.3221.252.5417 0 .1757-.047.3368-.173.4685-.126.1172-.283.205-.457.2489-.204.0586-.425.0732-.63.0732-.346 0-.661-.0732-.961-.2196-.378-.1757-.724-.3953-1.023-.6734l-.867 1.0834c.363.3953.819.6734 1.339.8638.551.1903 1.103.2928 1.686.2928.614.0146 1.212-.0879 1.764-.3368.441-.2049.803-.5124 1.055-.9223.236-.3807.347-.7906.347-1.2298 0-.3368-.079-.6588-.268-.9517z" fill="#1cbab5"/><path d="m204.514 87.3492c.189-.3368.441-.6003.787-.8053.347-.2049.725-.2928 1.134-.2928.536 0 .961.1318 1.276.3807.284.2342.488.5124.614.8345l-4.079 1.3469c0-.0878 0-.1903 0-.2928 0-.4246.079-.8199.283-1.2005zm3.008 3.3673c-.299.1025-.598.161-.914.1464-.425 0-.834-.0879-1.212-.2928-.3-.1611-.552-.3807-.741-.6442l5.986-1.8886c-.236-1.0541-.693-1.8594-1.386-2.445s-1.575-.8638-2.647-.8638c-.787 0-1.527.1611-2.22.5271-.662.3367-1.198.8052-1.607 1.4055-.394.6002-.599 1.259-.583 1.9618 0 .7027.158 1.3762.52 2.0057.346.6003.85 1.0542 1.496 1.3763.741.3513 1.528.5124 2.363.4977.473 0 .929-.0732 1.386-.2196.473-.1317.914-.3221 1.339-.571l-.945-1.4201c-.252.1611-.536.3075-.835.4099z" fill="#1cbab5"/><path d="m224.014 90.2177c-.205.2343-.473.41-.772.5271-.331.1318-.678.1903-1.024.1903-.425 0-.819-.1025-1.181-.3074-.284-.1611-.52-.366-.709-.6149s-.331-.5271-.425-.8199c-.079-.2928-.111-.6003-.063-.9077.047-.3075.141-.6003.299-.8638.205-.3367.488-.6149.85-.8052.363-.1904.756-.2928 1.166-.2928.362 0 .709.0585 1.04.1903.315.1171.567.2928.803.527.22.2197.378.4832.472.776v1.5812c-.094.3074-.252.571-.472.8198zm.63-5.1534-.158.9955c-.283-.366-.614-.6588-1.024-.893-.456-.2782-1.071-.4246-1.811-.4246-.693 0-1.339.161-1.937.4831-.615.3368-1.087.7906-1.434 1.3616-.378.6588-.567 1.3616-.535 2.1229 0 .8345.173 1.5372.519 2.1082.331.5563.804.9809 1.402 1.2737.615.2928 1.276.4392 1.985.4246.425 0 .835-.0586 1.229-.1903.33-.1171.63-.2636.913-.4685.221-.1464.425-.3221.614-.5124.032-.0293.063-.0586.079-.0879v1.0541h2.064v-7.2617h-1.891z" fill="#1cbab5"/><path d="m239.135 84.9921c-.441.1903-.835.4245-1.197.7173-.362.2929-.646.6296-.851 1.0395l-.157-1.6836h-1.859v7.2617h2.048v-3.1185c0-.4685.126-.893.378-1.2883s.583-.7174 1.008-.9517c.473-.2489.992-.3513 1.544-.2928l.094-1.9179c-.346.0147-.677.1025-.992.2489z" fill="#1cbab5"/><path d="m252.335 90.805c-.283.0879-.567.1318-.866.1318-.457 0-.866-.0879-1.26-.2928-.363-.205-.646-.4685-.851-.8199s-.315-.732-.315-1.1273c0-.41.095-.7906.299-1.1566.189-.3368.457-.6003.804-.8052.346-.1904.724-.2929 1.118-.2929.378 0 .725.0586 1.071.205.284.1025.536.2489.772.4246l1.008-1.2591c-.378-.3075-.819-.5271-1.292-.6735-.567-.1757-1.149-.2635-1.748-.2489-.709 0-1.37.1465-2 .4539-.646.3075-1.15.7467-1.544 1.3176-.409.6296-.599 1.3031-.583 2.0497-.016.732.158 1.4055.552 2.0351.362.5709.882 1.0248 1.512 1.3176.708.3367 1.465.4831 2.268.4685.52 0 1.008-.0732 1.496-.2342.457-.1318.882-.3514 1.26-.6296l-1.039-1.2005c-.221.1464-.441.2635-.709.3514z" fill="#1cbab5"/><path d="m268.795 85.3588c-.52-.4245-1.134-.6295-1.827-.6002-.678-.0147-1.308.1317-1.891.4538-.488.2782-.882.6442-1.165 1.0981v-7.3789h-2.032v13.3961h2.063v-3.2209c0-.4831.079-.937.284-1.3762.173-.3807.425-.7174.787-.9663.331-.2489.709-.366 1.119-.366.457 0 .787.1318.992.3514.221.2635.331.5563.331.8784v4.6996h2.063v-5.3877c0-.6295-.236-1.1566-.74-1.5812z" fill="#1cbab5"/></g></svg>