<svg fill="none" height="144" viewBox="0 0 360 144" width="360" xmlns="http://www.w3.org/2000/svg"><path clip-rule="evenodd" d="m80.45 52.8853c-3.522.1251-9.4513.5308-10.2025.6982l-.2475.0552v12.1341c0 10.271.0255 12.3045.1664 13.244 1.1443 7.6305 5.7485 13.2116 13.1436 15.9318 1.0256.3773 2.7992.8542 3.7023.9956.6947.1089 3.0704-.4795 5.1866-1.2846 6.1317-2.3325 10.3631-6.9829 11.9431-13.1259.632-2.4582.617-2.0878.618-15.5178v-12.3772l-.247-.0527c-.296-.0629-3.922-.339-6.463-.4921-5.1473-.3102-12.3359-.3954-17.6-.2086zm34.432.8847c-.064.2532-.19.7319-.279 1.0636-.224.8279-.211.9681.085.9677.172-.0002.314-.122.467-.403.121-.2214.388-.5139.594-.6497.332-.2197.507-.2472 1.572-.2472h1.199l-.032 4.0721c-.031 3.8859-.043 4.079-.247 4.2257-.117.0845-.389.1544-.605.1553-.49.0021-.699.1283-.648.3906.037.1907.175.2041 2.152.2097 1.798.0051 2.123-.0187 2.177-.1596.089-.2264-.242-.4423-.677-.4423-.697 0-.7-.0207-.7-4.4666v-3.9849l1.183.0002c1.524.0002 1.898.1564 2.071.8666.101.4109.161.4876.385.4876.254 0 .269-.0406.333-.8668.036-.4768.102-1.0252.146-1.219.071-.3151.054-.3521-.165-.3521-.134 0-.307.0854-.384.1896-.13.1742-.45.1896-3.955.1896h-3.813l-.201-.2438c-.31-.3775-.526-.3066-.658.2167zm125.566-.325c-.189.5623-.577 2.2097-.536 2.2753.137.2183.473.0393.757-.4032.449-.7001.804-.8297 2.166-.7924l1.13.0309.034 3.1422c.038 3.5675-.031 4.8572-.272 5.0947-.089.0882-.345.1611-.567.162-.503.0021-.713.1263-.662.3906.038.1908.172.2037 2.127.2037s2.09-.0129 2.127-.2037c.05-.2557-.156-.3884-.607-.3906-.709-.0034-.695.0844-.695-4.3976v-4.0555h1.159c1.465 0 1.859.1408 2.023.7227.064.2283.117.476.117.5504.001.0746.118.1355.261.1355.24 0 .265-.0552.333-.7314.04-.4022.103-.9629.139-1.246.058-.4477.041-.5147-.132-.5147-.109 0-.293.0854-.41.1896-.194.1729-.548.1896-4.011.1896h-3.797l-.164-.2438c-.18-.2664-.449-.3224-.52-.1083zm-13.44.1883c-.666.1381-1.274.4747-1.678.9279-.459.5141-.579.8352-.585 1.5655-.011 1.1745.491 1.8399 2.29 3.0359 1.26.8378 1.637 1.2255 1.811 1.8621.319 1.167-.411 2.0365-1.71 2.0365-1.062 0-1.736-.4958-2.261-1.6647-.163-.3631-.286-.5043-.416-.4782-.152.0306-.181.162-.167.7575.025 1.1027.19 1.4763.763 1.7259 1.086.4732 2.83.432 3.804-.0901 1.638-.8781 1.849-3.0531.432-4.4421-.254-.2494-.954-.7508-1.554-1.114-1.276-.7721-1.659-1.2018-1.731-1.9405-.086-.8843.297-1.3689 1.215-1.5354.977-.1772 1.78.2561 2.183 1.1779.147.3364.26.4579.398.4309.161-.0313.192-.1554.189-.7394-.005-1.1315-.064-1.2423-.736-1.387-.863-.1858-1.733-.2357-2.247-.1287zm45.738.0002c-1.967.2955-3.554 1.5762-4.182 3.3747-1.007 2.8814.61 5.8737 3.558 6.5863.694.1675 2.303.171 2.932.0063 1.886-.4941 3.391-2.1576 3.727-4.1183.337-1.9691-.593-4.1439-2.199-5.1427-.954-.593-2.587-.8938-3.836-.7063zm-146.147.3001c-.091.2332.213.4594.616.4594.631 0 .645.0955.645 4.345s.031 4.0612-.688 4.2061c-.286.0575-.357.1248-.357.3383v.2664h1.925c1.898 0 1.925-.0034 1.959-.2376.029-.1996-.032-.2488-.385-.3074-.668-.1113-.779-.1563-.867-.353-.155-.3451-.194-3.4781-.045-3.6547.112-.1331.555-.1606 2.588-.1606 1.348 0 2.53.0296 2.626.0658.149.0562.174.3222.174 1.8419 0 1.6318-.018 1.7939-.22 1.993-.121.1191-.331.2174-.467.2183-.354.0024-.551.1547-.505.3906.037.1902.168.2037 1.964.2037 1.901 0 1.923-.0027 1.958-.24.027-.1881-.033-.2533-.275-.302-.734-.1468-.846-.2155-.941-.5774-.052-.1983-.08-2.007-.062-4.0194.036-3.9607.045-4.017.63-4.017.399 0 .699-.2277.608-.4613-.065-.1656-.268-.1822-1.958-.1596-1.859.0247-1.888.0287-1.922.2664-.03.207.03.2514.417.3124.713.1124.773.2774.773 2.1268v1.6031l-2.722-.029-2.723-.029v-1.6357c0-1.7575.066-1.9941.555-1.9941.417 0 .6-.1175.6-.3861v-.2548l-1.915-.0006c-1.695-.0007-1.923.0203-1.986.1821zm14.067-.0913c-.159.1561-.011.4459.257.5046.591.1297.668.1649.754.3482.114.2417.195 6.1262.098 7.1488-.086.9134-.231 1.109-.819 1.109-.441 0-.709.1961-.612.4467.048.1227.728.1492 3.825.1492h3.766l.302-.8668c.33-.9493.349-1.3878.063-1.4412-.122-.0229-.312.1602-.561.5408-.666 1.0164-.647 1.0087-2.465 1.0087-2.109 0-2.014.1056-2.014-2.2332v-1.7216l1.018.0015c1.402.002 1.484.0333 1.661.6343.122.4145.198.5077.436.5358l.288.0339-.024-1.5508c-.023-1.5102-.03-1.5517-.268-1.585-.19-.0268-.257.032-.307.2709-.035.1677-.125.4269-.2.5759-.132.2617-.178.2719-1.37.3015l-1.234.0307v-1.7914-1.7914h1.324c1.689 0 1.961.1015 2.29.8533.201.4618.29.5553.524.5553.276 0 .281-.0127.213-.5689-.037-.3128-.095-.7882-.126-1.0564l-.058-.4876h-3.358c-1.846 0-3.378.0204-3.403.0452zm15.865-.0251c-.039.0386-.071.1566-.071.2622 0 .1443.122.2101.491.2646.271.0399.555.1479.633.24.104.1236.158 1.0036.206 3.3742.072 3.6082.119 3.8574.874 4.7027 1.029 1.1513 3.429 1.4406 5.126.6179.806-.3909 1.212-.8573 1.592-1.8272.216-.5511.248-.9031.32-3.5621.091-3.3412.111-3.4229.865-3.5485.24-.0398.46-.1342.489-.2096.131-.3367-.098-.3824-1.801-.3583-1.654.0234-1.701.0304-1.734.2602-.03.2044.033.2461.464.3097.274.0405.551.1365.616.2136.371.4406.424 5.307.07 6.4011-.428 1.3212-1.276 1.9377-2.66 1.9345-1.401-.0034-2.278-.6685-2.638-2.0007-.189-.7002-.236-5.9449-.056-6.2761.068-.1244.293-.2243.612-.2714.437-.0646.5-.106.47-.3107-.033-.231-.075-.2367-1.915-.2612-1.035-.0138-1.914.0065-1.953.0451zm12.799.195c0 .2053.071.2831.303.3312.166.0346.458.1299.649.212.587.2526.623.5319.557 4.377-.033 1.8834-.095 3.5347-.137 3.6695-.047.1459-.195.2692-.368.3048-.159.0328-.404.0828-.544.111-.187.0377-.245.1134-.22.2876.034.2316.071.2366 1.793.24 1.636.0033 1.762-.0108 1.799-.2002.049-.2534-.156-.3884-.593-.3906-.556-.0027-.714-.2012-.823-1.0351-.12-.9146-.139-5.9038-.023-5.8944.045.0037.379.3534.742.7772.363.4236 1.65 1.8725 2.86 3.2197s2.441 2.7285 2.736 3.0694c.965 1.117.928 1.2599.969-3.7411.038-4.6997.049-4.7877.616-4.9118.653-.143.697-.1702.663-.4068-.033-.2293-.073-.2345-1.794-.2345s-1.761.0052-1.794.2345c-.036.2478.042.2891.773.4103.354.0588.424.121.529.4699.066.2227.145 1.6845.176 3.2736l.055 2.8713-.694-.7057c-2.111-2.144-5.59-6.1713-5.59-6.471 0-.0734-.473-.1183-1.32-.1253l-1.32-.0109zm13.822-.1954c-.04.0388-.072.1543-.072.2566 0 .1881.295.3154.736.3181.56.0035.584.179.584 4.3056 0 3.6779-.008 3.8306-.22 4.0391-.121.1191-.356.2174-.522.2183-.406.0023-.608.1433-.56.3906.037.1904.17.2037 2.019.2037 1.958 0 1.978-.0024 2.013-.24.035-.2444.032-.2458-.836-.42-.14-.0278-.299-.1729-.358-.3252-.142-.3674-.14-7.4192.002-7.7871.117-.3025.17-.3309.806-.4354.353-.0578.414-.1067.385-.3064-.033-.2331-.07-.238-1.97-.2631-1.065-.0139-1.968.0063-2.007.0452zm6.376.0038c-.178.1753-.049.464.235.5263.614.1348.68.1727.89.5123.247.3991 3.227 7.5889 3.436 8.2897.141.4725.4.7167.616.5819.065-.0405.33-.61.589-1.2655.643-1.63 2.672-6.1258 3.153-6.9887.514-.92.668-1.0836 1.019-1.0836.392 0 .695-.2287.605-.4577-.061-.1578-.276-.1813-1.661-.1822-1.358-.0008-1.6.0244-1.658.1726-.083.2136.241.4673.598.4673.141 0 .287.0768.323.1706.062.1585-.879 2.4895-2.204 5.4581l-.554 1.2403-.264-.5902c-.838-1.8748-2.451-5.9891-2.399-6.1222.034-.0861.177-.1566.318-.1566.364 0 .658-.2366.571-.4595-.063-.1611-.279-.1828-1.808-.1812-.956.0008-1.768.0316-1.805.0683zm12.633.1342c-.077.1985.234.4382.569.4382.566 0 .59.1718.59 4.28 0 4.2867.001 4.2785-.749 4.2815-.497.0021-.715.1258-.664.3773.035.1767.309.192 3.801.2114l3.764.0209.155-.3868c.28-.6977.528-1.6554.468-1.8082-.124-.3188-.458-.143-.8.4215-.609 1.0026-.603.9997-2.408.9997-2.163 0-2.082.0852-2.082-2.1969v-1.7037l1.085-.0312c1.306-.0375 1.551.0711 1.665.7374.068.3952.107.4401.354.4105l.277-.0332.006-1.5169.005-1.517h-.261c-.211 0-.282.0815-.376.4336-.189.7111-.174.7041-1.551.7041h-1.259v-1.796-1.796l1.532.0353c1.439.0332 1.548.0508 1.811.295.154.1428.339.4354.41.6501.145.4398.278.5611.515.4714.132-.05.15-.2243.099-.9381-.034-.482-.091-.9497-.126-1.0391-.095-.2441-6.735-.2488-6.83-.0048zm11.335-.1184c-.526.0551-.667.1102-.698.2728-.048.2446.153.3883.546.3906.573.0032.588.0929.627 3.675.035 3.2672-.007 4.2526-.196 4.5538-.053.0842-.311.1813-.573.2157-.418.0551-.477.096-.477.3336v.2709h1.923c1.796 0 1.927-.0135 1.964-.2037.047-.2439-.153-.3883-.542-.3906-.575-.0034-.65-.2385-.65-2.0418v-1.6438h.486c.267 0 .568.0311.669.0691.1.0381.644.7602 1.208 1.6048 1.059 1.5852 1.503 2.0644 2.27 2.4499.583.2933 1.829.4004 2.121.1825.243-.1812.151-.4056-.166-.4056-.647 0-1.671-1.0232-2.965-2.9635-.711-1.0651-.849-1.3362-.724-1.4244.086-.0598.376-.2609.646-.4469 1.245-.8572 1.431-2.6363.388-3.6982-.634-.6452-1.321-.8167-3.383-.8446-.998-.0135-2.112.0065-2.474.0444zm19.924-.0177c-.039.0378-.07.1559-.07.2624 0 .1397.115.2126.413.2613.628.103.682.1321.799.4341.142.3679.144 7.4197.002 7.7871-.067.1725-.22.2987-.413.3389-.168.0352-.421.087-.561.1152-.188.0379-.245.1133-.22.2911.035.2376.055.24 2.013.24 1.849 0 1.982-.0133 2.019-.2037.048-.2473-.154-.3883-.559-.3906-.167-.0009-.402-.0992-.523-.2183-.212-.2085-.22-.3612-.22-4.0391 0-4.1266.024-4.3021.584-4.3056.506-.003.749-.1269.714-.3647-.032-.2231-.089-.2303-1.971-.2533-1.065-.013-1.969.0073-2.007.0452zm18.159.0611c-.096.2622.142.5132.486.5132.516 0 .8.3913 2.103 2.8951l1.182 2.2732-.002 1.5061c-.001.8285-.047 1.5768-.102 1.6629-.055.0863-.339.1838-.631.2167-.476.0539-.53.0878-.53.3309v.2709h2.088c1.957 0 2.091-.0129 2.129-.2037.051-.263-.158-.3885-.652-.3906-.719-.003-.807-.2184-.807-1.986.001-1.7555-.124-1.4004 1.407-4.0084 1.176-2.0049 1.501-2.3922 2.145-2.563.39-.1036.463-.1642.434-.3622-.033-.2319-.072-.2378-1.574-.2378-1.46 0-1.54.0111-1.54.2141 0 .1982.131.2719.8.4485.1.0262.04.2342-.206.7165-.611 1.1984-1.758 3.2187-1.864 3.2834-.123.0748-2.112-3.8269-2.024-3.9685.034-.054.17-.0988.303-.0997.348-.0024.544-.1562.498-.3906-.037-.1881-.176-.2056-1.817-.2294-1.332-.0193-1.79.0078-1.826.1084zm30.442.0753c-.077.1982.234.4379.569.4379.567 0 .59.1697.59 4.3041 0 3.6779-.008 3.8306-.22 4.0391-.121.1191-.362.2167-.537.2167-.345 0-.62.2394-.532.4639.042.1098.509.1407 2.073.1369 1.885-.0046 2.021-.0182 2.058-.2086.049-.2534-.156-.3884-.593-.3906-.185-.0009-.433-.0708-.55-.1553-.197-.1415-.214-.297-.214-1.9774v-1.8238h1.221c1.364 0 1.536.0685 1.648.6572.08.4199.299.6413.543.5491.143-.0544.164-.2993.139-1.6103-.029-1.4641-.043-1.5463-.251-1.5463-.167 0-.261.1292-.394.5407-.169.5268-.187.5428-.698.6273-.289.0477-.904.0726-1.367.0553l-.841-.0315-.03-1.8777-.03-1.8777 1.424.0357c1.332.0335 1.442.0528 1.709.2996.156.1451.335.4499.398.6772.092.3369.163.4134.383.4134.269 0 .271-.0061.271-1.0582v-1.058h-3.353c-2.868 0-3.362.0232-3.416.1613zm-9.203.3325c-.755.1255-1.608.6243-2.031 1.189-1.273 1.6968-1.002 5.1171.524 6.6206.641.6313 1.232.8838 2.203.9409 1.534.0903 2.536-.4686 3.191-1.7783.317-.6334.359-.8321.401-1.8646.113-2.8396-1.038-4.7328-3.104-5.1022-.359-.0641-.656-.1109-.66-.1039s-.24.0514-.524.0985zm-57.349.2446c-.03.0765-.041 1.015-.024 2.0857l.03 1.9467.895-.0108c1.014-.0123 1.489-.2179 1.832-.7922.267-.4464.35-1.2597.189-1.8477-.166-.6059-.789-1.2387-1.379-1.4-.605-.1655-1.476-.1552-1.543.0183zm-132.5315.5159c-.3561.0547-1.0739.2343-1.595.3993-.875.2771-1.0758.2992-2.625.2883l-1.6775-.0115v5.2018 5.2018l1.0725-.0677c.5898-.0372 1.9087-.2389 2.9306-.4483 1.022-.2094 2.1605-.4101 2.53-.4459.7804-.0759 1.9135.1299 2.919.5299l.6679.2658v-5.1208-5.1209l-.5225-.2198c-1.0956-.4612-2.512-.6342-3.7-.452zm7.6325-.0418c-.5692.0607-1.8153.3625-2.4015.5815l-.5135.192-.0286 5.0494c-.0197 3.4712.0075 5.0492.0869 5.0492.0635 0 .2991-.0909.5236-.202 1.246-.6167 2.6811-.6379 5.575-.0822 1.9584.3759 3.8281.6046 4.2656.5216.1801-.0343.1925-.3689.1927-5.2024l.0002-5.166-1.3477.0348c-1.5312.0395-2.7298-.1031-3.9301-.4676-.8652-.2627-1.7697-.3777-2.4226-.3083zm1.4753 1.052c-.0826.2119.0299.3934.2439.3934.1079 0 .1538-.0823.131-.2353-.0427-.2857-.2853-.388-.3749-.1581zm-1.2367.146c-.2417.0454-.245.0564-.057.1919.1812.1304.1865.1917.0575.6685-.2006.7414-.2961.7771-.5218.195-.1887-.4867-.1889-.5173-.0047-.6499.1671-.1204.0968-.1493-.5214-.2145-.3931-.0415-.7803-.0496-.8604-.018-.0802.0315-.0337.0612.1034.0659.293.0101.5557.3931.9893 1.4429.1658.4014.3305.7306.3661.7314.0355.0006.2281-.4742.4281-1.0552.2089-.6069.4622-1.136.5954-1.2436l.2319-.1873-.275.0124c-.1512.0068-.3904.034-.5314.0605zm2.7987.56c-.259.2614-.3718.4487-.2973.494.066.0402.12.2533.12.4737 0 .5057.175 1.1175.3502 1.2242.2071.126.4744-.3046.3101-.4996-.0708-.0841-.137-.3867-.147-.6726l-.0183-.5196.4125-.0336c.528-.0431.5403-.2373.0151-.2373-.3792 0-.3954-.0151-.3492-.3251.0267-.1787.0424-.325.0349-.325s-.2014.1894-.431.4209zm-11.1858.0042c-.4366.43-.4539 1.0818-.0375 1.4045.4484.3474.6791.3758 1.067.131l.354-.2233-.3954-.0018c-.2557-.0012-.4668-.0795-.5971-.2213-.1974-.2149-.193-.2283.2103-.6352.3818-.385.3987-.4286.2318-.5931-.2593-.2554-.4679-.2206-.8331.1392zm-1.0381.011c-.0484.0769-.216.0997-.4358.0591-.4365-.0807-.7133.1502-.4439.3705.1139.0931.1663.3367.1663.7728 0 .4939.0371.6369.165.6369.1296 0 .165-.1498.165-.6979 0-.6814.1502-.9974.3344-.7037.0725.1157.1471.1175.387.0099.1633-.0733.2783-.1442.2553-.1575-.0229-.0134-.1482-.1122-.2783-.2198-.1685-.1392-.2592-.1595-.315-.0703zm2.8765.1136c-.3055.2366-.3786.6198-.1593.8358.1006.0991.0732.1886-.1204.3916-.2493.2615-.2496.2637-.0278.3807.3397.179.8032.1404 1.2038-.1001.4776-.2868.544-.4969.2537-.8013l-.238-.2495.2515-.169c.25-.1679.2502-.17.0316-.3374-.3101-.2375-.8541-.2151-1.1951.0492zm-1.6465-.044c-.1063.1045-.0902.5778.0196.5778.0511 0 .1742-.0884.2734-.1965.1393-.1516.1507-.226.0501-.3251-.1481-.1458-.2374-.1605-.3431-.0562zm9.0861.1367-.2456.2019.2676.0662c.2384.0589.2711.1327.3005.6772.0366.6792.2583.9484.6039.7335.2762-.1715.2921-.3359.0386-.4011-.1909-.0492-.2245-.1451-.2245-.6422 0-.8176-.2539-1.0354-.7405-.6355zm-13.4568.215c-.2495.2457-.3227.4163-.3227.7518 0 .6903.4995 1.0558 1.2845.9399.3373-.0499.5439-.0279.6654.0707.1581.1286.162.1171.0375-.1131-.0763-.141-.1177-.3969-.0921-.5688.0256-.172.0057-.3126-.0443-.3126-.0501 0-.091.0899-.091.1999 0 .518-.8409.7506-1.1487.3177-.3795-.5336-.0913-1.386.4675-1.3828.4026.0023.5644.1219.6695.4951.0842.2987.0915.2892.1329-.172l.0438-.4878-.6398-.028c-.5795-.0253-.6702.002-.9625.29zm6.0822-.0796c.0699.2068.3702.3458.5776.2675.1565-.0592.1671-.1026.0564-.234-.1618-.1921-.6973-.2204-.634-.0335zm11.036.3204c-.2031.1575-.2807.2996-.2422.4444.031.117.0034.3277-.0615.468-.0869.1876-.0814.3421.0207.585.1536.3651.2829.4006.5994.1648.1866-.1389.2345-.1384.3947.0043.1631.1455.2035.1394.3845-.0576.1551-.1687.1721-.2499.0729-.3476-.0712-.0701-.1294-.3781-.1294-.6843 0-.4917-.0329-.5716-.2802-.6826-.3742-.1681-.4125-.1626-.7589.1056zm-22.5094.4104c-.7085.698-.2237 1.8503.7785 1.8503s1.487-1.1523.7785-1.8503c-.2523-.2484-.4201-.3167-.7785-.3167s-.5262.0683-.7785.3167zm13.0985-.2084c0 .0596.1113.1076.2475.1067.2001-.0014.2159-.0217.0825-.1067-.2133-.1358-.33-.1358-.33 0zm9.3105.0533c-.0409.1051.0493.2189.2579.3251.4075.2076.4416.2052.4416-.0317 0-.3978-.5662-.6353-.6995-.2934zm-10.7877.2633c-.1563.17-.1583.2104-.0166.3263.2141.175.6579.1058.6995-.1089.0185-.0957-.0848-.2231-.2358-.291-.2209-.099-.3006-.0859-.4471.0736zm1.4772.0085c0 .0596.1113.1076.2475.1067.2001-.0014.2159-.0218.0825-.1067-.2133-.1358-.33-.1358-.33 0zm12.76.9786v.9959l.3999-.0739c.2198-.0407.8262-.2688 1.3471-.507.7-.3198 1.056-.4233 1.361-.3958.508.0459.532-.1041.091-.5898-.349-.384-.186-.3632-2.099-.2691-.2117.0104-.5458-.0205-.7425-.0686l-.3575-.0876zm-23.54-.2202v.6501h.66.66v-.6501-.6501h-.66-.66zm20.2417-.2979c.0024.346.1664.5574.3722.4796.2273-.0859.2288-.572.0021-.6577-.2968-.1121-.3761-.0745-.3743.1781zm-12.0702.5079c-.5235.0841-.9115.3734-.9115.6796 0 .1448.1752.2823.5902.463.3246.1414.6143.3216.6438.4004.1049.2803-.0451.4141-.464.4141-.332 0-.4697-.0634-.6473-.298l-.2258-.298-.0017.3251c-.001.1788.0462.3982.1048.4876.085.1296.1069.1321.1084.0123.0012-.1153.1153-.1348.4915-.0839.5428.0732.7782-.0664.8968-.5317.1238-.486-.083-.689-.8715-.8559-.2153-.0455-.2989-.1221-.2741-.2513.0433-.2246.5353-.3022.8535-.1343.1997.1052.2254.0874.2254-.1559 0-.1511-.0123-.2686-.0275-.2612-.0152.0075-.2361.0472-.491.0881zm-1.9845.4354c-.2053.2437-.3109.4534-.2475.492.0608.0371.1105.3266.1105.6436 0 .7371.2217.9743.5805.621.1943-.1916.2056-.2349.0607-.2349-.2059 0-.3112-.2177-.3112-.6433 0-.2437.0677-.3219.3575-.4135l.3575-.113-.3145-.011c-.2931-.0103-.3115-.037-.2696-.3903.0248-.2086.0425-.3784.0395-.3773s-.1665.1931-.3634.4267zm4.376-.2697c-.1521.1805-.0631.3828.1685.3828.1717 0 .2203-.3829.0609-.48-.0535-.0326-.1568.011-.2294.0972zm4.3221.1725c-.8011.1027-1.2206.3428-1.4199.8126-.1885.4445-.065.8905.3264 1.1781.2393.1761.4678.2241 1.0665.2241h.7619v-1.1648c0-.6407-.0124-1.1586-.0275-1.151s-.3335.053-.7074.101zm-11.6751.23c-.6855.4276-.877 1.2047-.4099 1.6646.3292.3244.7777.348.9399.0493.1034-.1902.0836-.2167-.1611-.2167-.1534 0-.3779-.0975-.4989-.2167-.4414-.4348-.1405-1.3403.3115-.9374.1524.1357.2274.1466.328.0474.1697-.1671.1657-.3548-.0103-.4988-.1026-.0839-.2383-.0544-.4992.1083zm13.0374.1488c-.4308.2884-.5537.458-.1947.2687.2753-.1451.2899-.1434.4945.0581.2202.217.2211.7177.002 1.1625l-.1709.3467.2818-.3051.2818-.3051.2942.2281.2944.2279.2245-.2211.2245-.2212-.4097-.3326c-.5632-.4574-.5515-.7152.0302-.6605.5079.0477.5668-.0914.1522-.359-.258-.1665-.3049-.1686-.4557-.0201-.1458.1437-.1992.1454-.4048.0127-.2124-.137-.2787-.1247-.6443.12zm-11.7238.0589c-.1595.1464-.2378.3301-.2194.5147.0156.158-.0342.4003-.1107.5383-.1161.2094-.1097.2953.0382.5177.1651.2482.1939.2552.4173.1011.3022-.2085.411-.2093.411-.003 0 .2241.1484.2033.385-.0542.1129-.1229.1441-.2167.0721-.2167-.0817 0-.1271-.2267-.1271-.6333 0-.476-.0499-.6779-.2012-.8127-.2622-.2338-.3662-.2262-.6652.0481zm4.848.1299c-.4212.428-.4707.9339-.1249 1.2746.2686.2646.5148.2409.7237-.0695.1378-.2049.1302-.2246-.0823-.2167-.2925.0109-.6845-.476-.5864-.728.0434-.1112.191-.1843.3717-.1843.372 0 .482-.0984.3222-.288-.1745-.2071-.2305-.188-.624.2119zm4.7585-.0913c-.5498.5414-.2173.7241.9674.5313.4828-.0786.5579-.3597.168-.6286-.3611-.2492-.824-.2095-1.1354.0973zm4.6288.287c-.4955.4285-.5372.9712-.1095 1.4255.3544.3764.5936.3749.9644-.0064l.2949-.3032-.3893.0448c-.6316.0726-1.0296-.462-.711-.9552.088-.1363.1421-.1398.3351-.0219.1266.0772.3304.1092.4528.0709.2195-.0686.2192-.073-.0261-.3302-.1367-.1434-.2877-.2606-.3356-.2606-.0478 0-.2619.1514-.4757.3363zm-14.3136-.0797c-.1106.284.0024.556.2312.556.1692 0 .2185-.073.2185-.3235 0-.3545-.3347-.5276-.4497-.2325zm6.0744.0524c-.167.1818-.1694.2135-.0194.2701.1221.0462.1697.2183.1697.6128 0 .5948.1881.7927.5063.5324.1555-.127.156-.1544.0051-.2632-.1058-.0761-.1812-.3373-.2024-.7014-.0373-.6363-.1695-.7661-.4593-.4507zm9.9488.2411c-.7832.7715-.1083 2.2078.7178 1.5276.5262-.4332.6504-1.2106.2594-1.6238-.3067-.3243-.5774-.2977-.9772.0962zm.1183.1268c-.2296.2262-.1475.7831.1571 1.065.2781.2573.287.2583.44.0523.0858-.1157.1561-.3018.1561-.4135 0-.4752-.5056-.9477-.7532-.7038zm-6.6742.1938c-.0369.0587.0808.2526.2617.4307.3816.3759.8745.4295 1.1537.1257.25-.2721.228-.4386-.0655-.497-.6434-.1281-1.2891-.1565-1.3499-.0594zm-9.2926.1188c-.2673.1059-.2691.1133-.0615.264.303.22.3915.1939.3915-.1158 0-.149-.0123-.2677-.0275-.2641-.0152.0038-.1512.056-.3025.1159zm17.38.094c0 .0596.102.1084.2265.1084s.1959-.0488.1585-.1084-.1393-.1083-.2265-.1083-.1585.0487-.1585.1083zm0 .3251c0 .0596.102.1083.2265.1083s.1959-.0487.1585-.1083-.1393-.1084-.2265-.1084-.1585.0488-.1585.1084zm-13.8479.5815c-.1888.2241.1412.4747.3742.2842.1266-.1035.1365-.1715.0416-.2842-.0686-.0815-.1622-.1481-.2079-.1481-.0456 0-.1393.0666-.2079.1481zm5.3779 1.1986c0 .9112.0355 1.165.1838 1.311.1717.1691.1966.1643.3783-.073.1652-.2158.1706-.2671.0362-.3412-.1194-.0657-.1583-.326-.1583-1.0571 0-.8974-.0164-.9697-.22-.9697-.2059 0-.22.0723-.22 1.13zm3.4318-.754c-.2175.2171-.3168.3909-.2475.4332.0637.0387.1157.3503.1157.6924 0 .3422.0594.6806.132.7521.2003.1973.5063.1557.638-.0867.0998-.1836.0836-.2167-.1061-.2167-.1946 0-.2239-.0692-.2239-.5291 0-.4526.0358-.5407.2475-.6097l.2475-.0806-.2594-.0495c-.2213-.0421-.25-.0959-.1952-.3654.0353-.1738.053-.3131.0394-.3094-.0137.0037-.1883.1699-.388.3694zm-10.002.11c-.1433.2168-.2004.398-.1375.4364.0592.0361.1077.3048.1077.5971 0 .4111.0473.5565.2088.6416.1683.0887.2419.0602.3799-.1474.1594-.2395.1563-.2612-.0438-.3128-.3219-.0829-.2974-.6736.0326-.781l.2475-.0806-.241-.0471c-.1708-.0334-.2509-.1388-.275-.3622l-.034-.3149zm-9.3098.0163c-.7105.7-.1955 1.8814.8202 1.8814.967 0 1.4438-1.0859.805-1.8336-.2447-.2866-.3585-.3334-.81-.3334-.4208 0-.5828.0568-.8152.2856zm5.694.1911c-.5273.5195-.5213 1.0252.0186 1.557l.3926.3867.2117-.3163.2119-.3163-.302-.0354c-.5074-.0596-.504-.1909.0161-.6107l.499-.4029-.2366-.3151c-.1302-.1735-.2818-.3154-.337-.3154s-.2686.1658-.4743.3684zm6.4559-.1079c-.145.152-.2354.3664-.2172.5147.0171.1398-.0282.3607-.1008.4908-.1672.3002-.1654.381.0135.6222.1369.1843.1663.1854.4948.0181.3154-.1607.3743-.1618.6067-.0118.2369.1529.2732.1489.4572-.0516.169-.1838.1736-.2176.0297-.2176-.2117 0-.3038-.2252-.3038-.7432 0-.4626-.2554-.8821-.537-.8821-.107 0-.3065.1173-.4431.2605zm13.6302.7027-.0001.9091.5775-.0669c.3234-.0375.9345-.2403 1.3885-.461.652-.3166.896-.3829 1.242-.3372.401.053.426.0406.36-.1772-.039-.1287-.19-.3559-.337-.5049-.258-.2625-.311-.2709-1.748-.2709h-1.4828zm-18.6286-.6561c-.1276.1389-.155.2381-.0787.2846.0645.0392.1172.3853.1172.7691 0 .6257.0228.6979.22.6979.1968 0 .22-.0722.22-.6862 0-.7341.0433-.8491.2858-.7574.1116.0422.1542.2643.1542.8051 0 .4108.0294.7469.0651.7469.0359 0 .1911-.0975.3449-.2167.1539-.1192.2292-.2167.1676-.2167s-.1461-.3139-.1878-.6976c-.0825-.7583-.2668-1.0417-.4987-.7665-.1765.2096-.3292.2077-.4878-.0058-.1126-.1517-.1469-.1471-.3218.0433zm3.476.0119c-.2478.2036-.3198.3424-.165.3184.2979-.0464.3575.0467.3575.5579 0 .3999.047.5629.1761.6117.0968.0367.214.0062.2604-.0677.1724-.2747-.0941-1.6399-.3176-1.6273-.0352.002-.1753.0951-.3114.207zm6.7938.0832c-.1291.1617-.2113.3822-.1827.4901.0286.1078-.0187.3358-.1051.5067-.117.2307-.1287.3847-.0459.5994l.1115.2887.3706-.2783c.3295-.2477.3862-.2599.512-.1106.1259.1495.1698.1415.4024-.0739.222-.2054.236-.2555.0935-.3341-.1135-.0625-.1676-.2586-.1676-.6071 0-.283-.0594-.5732-.132-.6447-.2227-.2194-.6097-.1454-.8567.1638zm-11.6939.1151c-.1954.2129-.2519.6226-.0985.7159.0489.0298.2214-.0527.3834-.1832.2876-.2317.2899-.2432.0986-.4871-.1912-.2435-.2004-.2447-.3835-.0456zm6.3711-.0252c-.0913.2343-.0932.2265.1043.4213.0952.0936.2471.1702.3377.1702.2409 0 .143-.4312-.1395-.615-.205-.1334-.2425-.1305-.3025.0235zm8.3596.0354c-.1659.1806-.168.2116-.0178.2684.1248.0472.1697.2236.1697.6669 0 .6897.1473.8198.697.6153.2775-.1031.3686-.0939.5345.0539.1098.098.2361.1425.2806.0988.1489-.1468.0173-1.5156-.1651-1.7169-.1625-.1794-.1848-.1797-.379-.0067-.1808.1612-.1853.1955-.0372.2772.2073.1142.2328.9023.0317.9777-.0756.0283-.252.0095-.3919-.0416-.2287-.0838-.2472-.1401-.1837-.5572.0573-.3767.0309-.4993-.1403-.6519-.2005-.1788-.2201-.178-.3985.0161zm-18.1081.5561v.6501h.66.66v-.6501-.6501h-.66-.66zm15.1434-.5779c-.144.1419-.0749.5779.0916.5779.0908 0 .165.0517.165.1147 0 .0631-.0498.0844-.1108.0474-.1492-.0909-.2764.2583-.1422.3905.2286.2251.459-.0187.4541-.4802-.006-.5621-.2277-.8769-.4577-.6503zm5.2743.3474c-.1763.1918-.1742.2061.0379.2607.1972.0508.2244.1443.2244.7722 0 .6422.0222.7145.22.7145.1975 0 .22-.0723.22-.7043 0-.727.0598-.8046.4397-.571.1783.1096.2487.102.3962-.0435.166-.1635.1578-.1908-.1087-.3628-.2345-.1513-.3194-.1606-.4548-.0499-.1354.1108-.2036.1031-.3656-.0414-.2568-.2288-.3802-.2237-.6091.0255zm-10.7011.4012c-.0309.0791-.0241.1951.0151.2575.1187.1891.469.1273.5275-.093.0409-.1541-.0139-.2195-.2159-.2574-.164-.0309-.2928.0057-.3267.0929zm1.929 4.1103c-.1593.0851-.3208.235-.3588.3328-.056.1437-.1008.1525-.2317.0454-.0893-.073-.2354-.1051-.3247-.0713-.1318.0498-.14.1247-.0437.3969.1716.485.031.5249-.2422.0686-.2011-.3357-.2652-.3752-.4503-.2776-.3167.167-.6535.7655-.5746 1.0207.1312.4229.2772.5124.4471.2736.2309-.3247.7732-.2945.9333.0518.0928.2004.2102.2708.4521.2708.2311 0 .4333.1112.6901.3793.1996.2086.4092.3792.4656.3792.2495 0 .6822.4646.6822.7325v.2832l-.3025-.2752c-.4468-.4067-.653-.4407-1.2069-.1993-.2742.1195-.5726.2173-.6631.2173-.3796 0 .1177.3147.5474.3463.571.042.7701.3024.4759.6225-.202.2199-.2007.2231.0921.2231.1687 0 .4137-.1149.5671-.2661l.27-.2658v.258c0 .3341-.4624.6909-1.0065.7766-.2527.0398-.4235.1267-.4235.2154 0 .0818.0619.1526.1375.1572.0757.0047-.011.0597-.1925.1221-.6956.2395-1.155.9007-1.155 1.6625v.3916l.385-.2344c.4178-.2543.5198-.1537.1649.1626-.2762.2462-.7185 1.1709-.8157 1.7049-.0787.433.0973 1.2747.2666 1.2747.0562 0 .1742-.134.2622-.2979.146-.2718.1672-.2798.2418-.0917.0548.1381-.0153.3764-.2115.7203-.3279.5747-.378 1.0905-.1257 1.2968.2006.1639.2868.0947.4517-.3621l.1242-.3444.078.2894c.058.215.0136.3751-.1722.6227-.4421.589-.4039 2.0816.0826 3.2286.2162.5095.2677.415.1273-.2334-.0804-.3713-.0804-.7399.0001-1.2182.136-.8086 1.1064-3.4148 1.2409-3.3329.1376.0837.6132 1.6398.7037 2.3029.0766.5603.0843.5706.291.3864.1167-.104.3137-.351.4376-.5485.124-.1976.2618-.3593.3064-.3593.0444 0 .1703.3735.2795.83l.1987.83.1572-.3682c.2657-.6227.2819-1.1891.058-2.038-.2017-.7651-.202-.789-.0091-.5418.1111.1423.2031.2981.2044.3463s.0572.0543.1243.0135c.197-.1199.0186-.8588-.3428-1.4202-.181-.2812-.3269-.6113-.3243-.7338.0037-.1656.061-.1179.2246.1875.1208.2255.263.3835.3158.3514.1657-.1009.2553-1.5967.1169-1.9533-.0694-.1788-.3183-.5502-.5534-.8253-.235-.2752-.4567-.6409-.4928-.8127l-.0656-.3123.1833.2437c.1007.1341.2336.2438.2951.2438.1585 0 .0232-.9954-.1906-1.4027-.2145-.4086-.1296-.4248.2068-.0396l.2544.2913.1381-.4123c.076-.2267.1118-.6054.0797-.8415-.0549-.4029-.0466-.4188.1333-.2582.3147.2805.4934.2058.2468-.1031-.1205-.1508-.2536-.4799-.2958-.7314-.0424-.2516-.1176-.5337-.1673-.6272-.074-.1389-.034-.1617.2197-.125.1707.0247.3437-.0086.3847-.0739.0409-.0654.005-.1188-.08-.1188-.2196 0-.5185-.3564-.5185-.6184 0-.1221-.1113-.2985-.2475-.3921l-.2475-.17.2525-.0057c.2917-.0065.7925-.456.7925-.7111 0-.1578-.0223-.1582-.2445-.005-.3539.2442-.6287.2206-.5574-.0478.0502-.1893.0169-.2086-.2641-.1532-.2143.0422-.5553-.0301-1.0218-.2169-.7835-.3136-1.239-.3455-1.6666-.1166zm-7.5145.7654c-.8945.3078-1.404.3331-1.6582.0827-.1545-.1522-.1981-.1564-.2811-.027-.2427.3775-.0017.6405.5867.6405.255 0 .3973.0433.3565.1084-.0374.0596-.2094.1083-.3822.1083-.2012 0-.763.2808-1.5611.7802-.6857.4291-1.958 1.2068-2.8273 1.7283-1.4425.8654-1.5546.9546-1.283 1.0218.1637.0404.6027.0488.9756.0186.572-.0463.9899-.1762 2.2455-.6978.2598-.1079.137.1828-.2605.6161-.4635.5054-1.4932 1.2-2.794 1.8845-.8668.4562-.9029.4891-.6145.5604.5577.1378 1.5764-.0267 2.3378-.3777.4024-.1855.7511-.3181.7748-.2946.0239.0234-.7623.8044-1.747 1.7355-1.719 1.6254-1.7759 1.6929-1.4303 1.6929.5594 0 1.1714-.372 2.1783-1.3242.5094-.4817.9549-.8474.9901-.8127s-.0801.2737-.2562.5311c-.8572 1.2531-1.5536 2.8026-1.9007 4.2283-.2569 1.0557-.2721 1.3837-.0762 1.6477.1268.1707.2869-.1457 1.3327-2.6353 1.1053-2.6314 1.5064-3.4251 1.3396-2.6507-.1291.5993-.2825 2.3781-.2841 3.2912-.0013.8264.2423 2.7692.362 2.8872.0374.0367.5446-.1366.717-.2451.0199-.0126-.0521-.1557-.1602-.3182-.1575-.2367-.1912-.4857-.1705-1.2537.0231-.8473.0003-.9802-.1972-1.1467-.3151-.2657-.2777-.4363.1141-.5211.1856-.04.3525-.1293.371-.1981.0185-.0689.0936-.4409.167-.8268.1276-.6712.4332-1.4293.4379-1.0863.0012.0894-.0679.5526-.1536 1.0293-.0949.5279-.1162.9064-.0546.968.1238.1238.0111.2617 1.0876-1.3296.4975-.7353.9275-1.3142.9555-1.2866.1003.0987-.5081 1.2874-1.0651 2.0812l-.5671.808.2756.3227.2755.3225 1.121-1.358c.6166-.7469 1.1478-1.3317 1.1804-1.2994.103.1013-.9701 1.715-1.6422 2.4696-.6438.7226-.6442.7235-.5575 1.2329l.0868.5097.6871-.6522c.5263-.4994.6875-.7246.6887-.9619.0008-.1705.0318-.4212.0688-.5573.0642-.2363.0793-.2396.338-.0726.149.0961.2853.1586.3031.139.0177-.0197.3626-.5409.7666-1.1584.4039-.6174.7595-1.0978.7902-1.0675.0848.0836-.7111 1.592-1.0893 2.0645l-.3331.4161.2421.4909c.1332.27.2589.4728.2794.4507s.4918-.6423 1.0475-1.3781c.5556-.7359 1.0383-1.3103 1.0726-1.2766.1153.1136-.5666 1.3068-1.2653 2.2142l-.6929.9.21.5546.2101.5547.081-.5322c.0955-.627.2678-.9839.6412-1.3273l.2722-.2505.1266.3578c.1271.3589.8457 1.1726 1.0357 1.1726.0556 0 .0792-.2621.0522-.5825-.0366-.4353-.1374-.7006-.3986-1.0507-.4267-.5716-.441-.7506-.0599-.7506.9877 0 1.9375.7017 2.4169 1.7859.1718.3884.3439.7062.3826.7062s.0193-.2193-.043-.4874c-.0771-.3321-.0774-.6021-.001-.8475.0982-.3152.0784-.3988-.1585-.67-.2338-.2677-.2639-.3897-.2212-.8971.037-.4396-.0035-.6865-.1611-.9825-.2559-.4805-.2212-1.5955.0683-2.1965.1398-.2903.1587-.4541.0769-.666-.0697-.1806-.0711-.4096-.0041-.64.2703-.9279.0526-1.5043-.8046-2.1313-.6824-.499-.9127-.74-1.0541-1.1024-.1023-.2624-.1101-.2573-.3334.2189-.3379.7208-.3047 1.019.1516 1.3618.25.1878.385.3797.385.5473 0 .3046-.0871.3169-.5851.083-.3394-.1595-.4387-.1602-1.1159-.008-.4088.0919-.8102.1417-.8919.1108-.2251-.085-.2947-.4288-.1373-.6773.1173-.1848.109-.2734-.0497-.5382-.2634-.4389-.2407-.5983.1461-1.0322.3174-.3562.3657-.3739.8643-.3157.4678.0546.5489.0324.7102-.1944.1782-.2506.1745-.2586-.1768-.3746-.3569-.1179-.3592-.1234-.4192-.9762-.0331-.4716-.1201-.9648-.1934-1.0959-.3528-.6317-1.0347-.7204-2.2702-.2954zm7.7764-.1467c-.3011.1431-.3294.3475-.0378.2725.1551-.04.2227.0131.2597.204.0359.1852 0 .2585-.1272.2597-.1545.0015-.1561.0151-.0122.1067.2646.1684.6272.1258 1.1532-.1354.2699-.134.4913-.2682.4919-.298.0018-.0838-1.1293-.544-1.3151-.535-.0907.0043-.2763.0609-.4125.1255zm7.7275.0538c-.1815.0975-.4856.1675-.6758.1555-.6277-.0395-1.4925.9443-1.2395 1.4099.162.2983.0044.5012-.6254.8047-.3269.1575-.5939.3416-.5932.4091.0007.0776.2925.1321.7934.148.7264.0231.818.0011 1.0989-.264.2398-.2264.3066-.2504.3066-.1103 0 .0984.099.2311.22.2949.2812.1483.2835.56.0045.8087-.1185.1056-.2963.4319-.3952.7251-.204.6049-.4972.8426-1.1451.9282-.4941.0652-.5285.004-.3181-.5688.1679-.4574.0528-.8523-.2936-1.0078-.3801-.1706-.4092-.1618-.2763.0826.1865.3435.134.5218-.2712.9209-.2117.2086-.385.4465-.385.5287 0 .2644-.4088.5391-.6963.4681-.2428-.0601-.2704-.0269-.328.3935-.0522.3813-.0197.5048.1923.7299.1403.1489.3043.3684.3645.4875.1287.2551.1099 4.0229-.0214 4.312-.1503.3307.008 1.1425.3106 1.5929.1586.236.2883.5704.2883.743 0 .417.1202.9922.2063.9864.1408-.0094.6912-1.258.751-1.7035.0466-.3464.1556-.5428.4362-.7855.4702-.4067.5865-.4068.5865-.0006 0 .1777.0598.6668.133 1.0868l.1329.7638.4488-.0664c.361-.0533.5017-.0214.7195.1632.262.222.2639.2338.0595.3611-.4904.3053-1.0846.9041-1.2893 1.2994-.1209.2333-.1994.4442-.1747.4685.0248.0245.4195-.2703.8773-.6551.572-.4806.8727-.8201.9615-1.0852.1286-.3837.126-.3888-.4846-.9576-.3377-.3145-.6139-.6613-.6139-.7707 0-.2355.1117-.1676.8448.514l.4597.4273.2411-.5051.241-.5052-.2713-.2478c-.3514-.3206-.9051-1.2514-.8035-1.3502.0431-.0421.379.2381.7463.6224.4653.487.7509.7005.942.7043.2109.0041.303.0894.3991.3693.0769.2238.3208.5069.6341.7354l.5093.3715.2837-.3663c.156-.2016.2837-.4047.2837-.4514 0-.0468-.4636-.5299-1.0303-1.0734-.998-.9572-1.912-2.262-1.8053-2.5772.0236-.0698.629.5517 1.3453 1.3811 1.5804 1.8298 1.6306 1.8745 1.7268 1.5399.0394-.1367.0765-.4454.0825-.686.01-.3959-.0546-.5042-.6774-1.1377-.6268-.6375-1.5005-1.9933-1.3684-2.1234.0515-.0507.9983.989 1.6385 1.7995.1632.2065.3156.3527.3386.3247.0231-.028-.0453-.636-.1518-1.3511-.2291-1.5381-.2439-1.7594-.1088-1.6199.3097.3198.8882 3.0442.8896 4.19l.0007.5114.3955-.2644c.2174-.1453.5705-.3265.7845-.4027l.388-.1385-.066-.8129c-.08-.9788-.465-2.4204-1.0612-3.9795-.2425-.6336-.4408-1.1791-.4408-1.212 0-.1731.6138.8661.85 1.4394.399.9657.613 1.6973 1.243 4.2368.31 1.25.604 2.3427.652 2.4282.391.6877.639-3.3931.28-4.6085-.242-.8214-.751-1.7998-1.877-3.6128-.5104-.8216-.928-1.5221-.928-1.5567 0-.2509.4309.2337 1.118 1.2573.455.6785.986 1.3303 1.217 1.4954.466.3325 1.601.8134 1.697.7189.16-.1581-1.009-1.6456-2.486-3.1621-.465-.4767-.916-.9643-1.003-1.0835-.1628-.2233-.1687-.2274 1.217.8518.561.4368 1.213.8277 1.38.8277.039 0-.579-.6664-1.374-1.4809-.941-.9647-1.3993-1.5084-1.3146-1.56.1656-.1009-.8489-.6812-1.5095-.8634-.4905-.1353-.65-.3215-.2753-.3215.1135 0 .2681-.0731.3434-.1625.1163-.138.0893-.1627-.1791-.1639-.1737-.0009-.7366-.1465-1.2509-.3237-1.0442-.3598-1.7619-.404-2.255-.139zm-6.875.3557c0 .2391.0133.2465.2688.1499.1369-.0517.1483-.1007.0505-.2167-.1804-.2141-.3193-.1851-.3193.0668zm-4.2324.9723c-.1655.1802-.1863.286-.1026.5206.1763.4941.586.6106 1.6003.4551.4795-.0735 1.0806-.1064 1.3358-.0733l.4639.0603-.3087-.2632c-.2781-.2372-.4084-.2634-1.32-.2648-1.0973-.0019-1.2282-.0414-1.368-.4139l-.0928-.247zm41.1664 2.2839c-4.4.7634-7.823 3.1065-9.569 6.5497-1.606 3.1698-1.658 7.1504-.134 10.3316.637 1.3283 1.244 2.1494 2.397 3.2386 1.072 1.0131 1.745 1.4659 3.188 2.1465 3.545 1.6711 8.698 1.8815 13.084.5345.815-.2503.983-.3435 1.165-.6475.361-.603.97-2.2264 1.234-3.2923.249-1.0006.249-1.0181.04-1.1688-.404-.2912-.626-.1351-1.147.8066-.926 1.6722-1.983 2.7073-3.467 3.3947-1.197.5546-1.93.6895-3.685.6782-1.347-.0086-1.764-.0543-2.681-.2932-3.669-.956-6.262-3.5848-7.285-7.3858-.388-1.4422-.497-4.4183-.219-5.9944.573-3.2495 2.16-5.5411 4.811-6.9459 2.692-1.4261 6.764-1.5445 9.229-.2684 1.318.6822 2.241 1.7535 2.745 3.1851.159.4528.326.882.371.9539.119.1895.723.1634.8-.0347.036-.0909-.013-.9077-.108-1.8149s-.204-2.0172-.243-2.4665c-.069-.7861-.083-.8179-.363-.8406-.161-.0129-.836-.1433-1.502-.2896-2.871-.6311-6.328-.7815-8.661-.3768zm72.135-.0569c-1.56.2489-2.87.6609-4.294 1.3497-3.403 1.6462-5.501 4.1415-6.452 7.6746-.32 1.1898-.398 3.6338-.159 4.9843.895 5.059 4.745 8.5676 10.406 9.4837 2.978.482 6.448.234 9.234-.6599 1.044-.3348 1.098-.3923 1.679-1.7984.329-.7953.857-2.6454.857-3.0043 0-.2483-.376-.4601-.659-.3716-.116.0365-.335.3349-.491.6699-.699 1.5035-1.968 2.8081-3.415 3.5084-1.353.6552-2.061.8017-3.85.7968-1.82-.0051-2.974-.2408-4.4-.899-1.276-.5891-2.071-1.1516-3.038-2.1497-1.971-2.0331-2.961-4.7973-2.955-8.2453.01-5.2124 2.547-8.8894 6.969-10.0995 2.668-.73 5.971-.3905 7.794.8009 1.099.7187 1.767 1.6209 2.296 3.0997.275.7716.311.8181.649.8512.197.0192.398-.0052.446-.0542.049-.0491.018-.6743-.067-1.3894s-.188-1.7962-.228-2.4023-.106-1.1563-.148-1.2225c-.092-.1475-1.471-.4785-3.244-.779-1.753-.2969-5.486-.3745-6.93-.1441zm26.196.2688c-.231.2322-.607.5097-.835.6169-.385.1808-.423.242-.53.845-.12.6829-4.372 11.7797-6.354 16.5832-.637 1.5437-1.296 2.9751-1.465 3.1809-.391.4757-.929.7503-1.621.8277-1.218.1362-1.26.1505-1.26.4247 0 .5676-.144.5474 3.691.5219 1.969-.013 3.626-.0524 3.684-.0877.177-.1077.117-.5793-.087-.6831-.106-.054-.518-.1225-.916-.1524-.398-.03-.837-.1145-.977-.1881-.233-.1227-.249-.1873-.198-.7995.073-.8852 1.981-6.5732 2.3-6.8573.21-.1874.469-.2014 3.732-.2014 3.36 0 3.514.0089 3.718.2167.265.2683 2.205 6.066 2.29 6.8417.055.5017.035.5736-.2.7229-.144.0911-.509.196-.812.2331-1.348.1651-1.466.2307-1.284.7152.083.2216.135.2242 4.308.2175 2.323-.0037 4.268-.0502 4.322-.1033s.081-.2108.061-.3506c-.042-.2894-.28-.3837-1.208-.4786-1.008-.1031-1.522-.4983-2.064-1.5864-.382-.7666-5.45-15.0944-6.873-19.4305-.419-1.2788-.487-1.4105-.732-1.4296-.186-.0145-.401.1106-.69.4011zm25.445-.3627c-2.557.3907-3.921.7711-5.408 1.508-3.329 1.6506-5.625 4.6261-6.296 8.1603-.502 2.6455-.235 5.0392.807 7.2282 1.758 3.6955 5.243 6.013 10.182 6.7716.484.0743 1.722.1339 2.75.1323 2.071-.0031 3.719-.2142 6.16-.7887.769-.181 1.537-.3293 1.705-.3293.434 0 .477-.2495.104-.6013-.541-.5108-.599-.8512-.599-3.516 0-2.1881.022-2.481.212-2.8581.234-.4655.858-.8194 1.452-.8235.414-.0029.638-.2352.553-.5722l-.064-.2476-4.541.0024-4.542.0023-.037.2563c-.02.141.02.3116.088.3792.069.0676.729.2001 1.468.2944 1.552.198 1.904.3345 2.216.8579.209.352.225.5548.225 2.8172 0 2.7269-.069 3.0405-.761 3.4615-1.277.7776-4.649.8495-6.939.1479-3.535-1.0832-5.964-3.9331-6.817-7.9983-.446-2.1303-.427-4.6381.051-6.5126.283-1.108 1.162-2.8457 1.864-3.6816 1.843-2.1971 4.845-3.3386 8.291-3.1527 2.239.1208 3.793.6923 4.917 1.8088.603.5986 1.279 1.7177 1.538 2.5455.202.6456.53.8478.92.5668.181-.1304.179-.2251-.027-1.8149-.12-.9226-.25-2.0552-.289-2.5171l-.072-.8397h-.377c-.208 0-.835-.0972-1.393-.2161-1.973-.4195-3.163-.5415-5.141-.527-1.059.0078-2.049.033-2.2.0561zm26.4.1275c-5.082 1.0469-8.636 4.4909-9.693 9.3902-.238 1.104-.295 3.6162-.105 4.5801.324 1.6354.87 3.0742 1.595 4.1964 1.799 2.7865 4.452 4.5575 7.88 5.262 1.391.2857 3.891.3414 5.163.1151 5.069-.9022 8.793-4.4281 9.855-9.332.28-1.2898.281-3.9352.003-5.2009-1.007-4.5837-3.983-7.6735-8.53-8.8558-1.434-.373-4.71-.4553-6.168-.1551zm-133.828.5189c-.118.4625 0 .546.863.6103 1.649.1228 2.005.513 2.176 2.3884.132 1.4357.136 15.4475.005 16.6713-.055.5163-.182 1.0934-.281 1.2826-.214.4069-.836.7097-1.687.8206-.639.0833-.919.3771-.71.7448.093.1638.503.1803 4.418.1772 2.374-.0017 4.362-.0318 4.42-.0667.057-.0349.104-.2047.104-.3773 0-.271-.049-.3208-.357-.366-.197-.0287-.697-.1013-1.11-.1613-.935-.1357-1.239-.3269-1.541-.9701-.228-.4854-.238-.672-.272-4.6804-.036-4.1708-.036-4.1751.204-4.3882.23-.2058.449-.2147 6.085-.2474 3.215-.0186 6.1-.0036 6.411.0334.998.1188.967.0355 1.009 2.6725.051 3.1964-.106 6.3279-.34 6.7671-.207.3896-.68.6393-1.521.8031-1.188.2312-1.104.1841-1.067.6012l.034.3801 4.322-.0006c2.376-.0003 4.369-.0297 4.427-.0651.058-.0355.106-.204.106-.3746 0-.3369-.049-.3578-1.155-.4961-.885-.1108-1.421-.4138-1.662-.9404-.199-.4346-.208-.8601-.208-9.6141 0-9.1282.001-9.161.235-9.6604.275-.586.734-.8113 1.91-.9385l.715-.0773v-.3792-.3792h-4.345-4.345v.3738.3738l.897.1262c1.865.2625 1.92.4174 1.945 5.4124.017 3.343.003 3.6341-.178 3.8133-.183.1805-.597.1963-5.995.2286-6.059.0362-7.069-.0007-7.34-.2678-.138-.1364-.164-.69-.163-3.5398 0-3.5289.082-4.496.417-4.9489.287-.3869.866-.6389 1.657-.7204.725-.0746.936-.2406.827-.6511-.056-.2088-.169-.2144-4.451-.2204l-4.394-.0062zm31.156-.0314c-.116.4387.092.577.982.651 1.08.09 1.535.3051 1.843.8716l.242.4455v9.2641c0 9.0693-.005 9.2718-.22 9.632-.353.5909-.702.7756-1.757.929-1.078.1568-1.25.2766-1.064.7398.073.1828.35.1946 4.584.1953l4.507.0006.034-.3757c.038-.4285.008-.4449-1.024-.5555-.922-.0988-1.528-.4053-1.777-.8998-.192-.3808-.203-.8822-.203-9.6657 0-9.1508.003-9.2693.227-9.6905.298-.5596.781-.7919 1.863-.8969l.88-.0853.033-.3874.033-.3874h-4.563c-4.46 0-4.564.0048-4.62.2153zm103.662.3889c-2.977.4117-5.498 2.3982-6.582 5.1864-.617 1.5857-.733 2.346-.733 4.7901 0 1.9318.033 2.3683.257 3.3501.994 4.3775 3.337 7.1898 6.789 8.1509 1.146.3192 3.36.3458 4.449.0535 4.138-1.1108 6.545-5.1982 6.223-10.5691-.348-5.8046-2.893-9.7057-6.999-10.7274-.98-.2438-2.553-.3522-3.404-.2345zm-53.6 3.2184c-.249.3976-3.16 8.2317-3.16 8.5055 0 .0989.078.2093.174.2455.289.1095 5.401.0737 5.704-.0398.188-.0706.282-.1876.283-.3522 0-.306-2.607-8.0146-2.798-8.2726-.077-.103-.168-.1419-.203-.0864zm-135.2591 4.1528c-.5955 1.2404-.7007 2.9154-.2823 4.4977.0918.3468.1527.6443.1357.6612-.0172.0168-.3153-.3016-.6626-.7077-.4806-.5621-.6865-.9158-.8623-1.4817-.4693-1.5109-1.4422-2.8472-2.2244-3.0554-.1925-.0514-.3651-.0817-.3835-.0675-.0185.0141.0905.1577.2423.319.3222.3425.4553 1.0199.3515 1.7898-.1629 1.2097.4088 2.0928 2.0643 3.1891 1.0229.6773 1.3283.9651 1.4447 1.3615.0682.2322.0033.1991-.4548-.232-.294-.2765-1.0479-.7885-1.6753-1.1377-.6274-.3491-1.3374-.8055-1.5776-1.0141-.4351-.3777-.4369-.3827-.4542-1.2277-.0163-.7938-.0371-.8626-.323-1.0677-.1681-.1205-.3812-.3634-.4739-.5396l-.1681-.3205-.2413.3034c-.2182.2745-.2385.4116-.2137 1.4423l.0274 1.139-.221-.2709c-.5655-.6933-.9067-1.304-1.1193-2.003-.2538-.8354-.6216-1.6265-.7138-1.5356-.1578.1555-.0347 1.8053.1754 2.3498.2939.762.1704.9492-.428.6485-.4183-.2102-.9931-.7879-.9931-.9982 0-.0693-.0641-.0609-.165.0215-.0907.0743-.165.2996-.165.5008 0 .2014-.0439.3661-.0975.3661-.1914 0-.4413-.7244-.5531-1.603-.1351-1.061-.2228-1.2487-.6687-1.4306-.4103-.1675-.48-.116-.3386.25.0668.1729.0718.5008.0132.8554-.1334.8074-.0471 1.1005.5009 1.7008l.4794.5253-.4766-.053c-.4633-.0513-.949.0979-.949.2918 0 .2173 2.9329.98 4.6137 1.1998.8757.1145 1.4552.306 1.5935.5264.0338.0537-.1342.0485-.3755-.0118-.5241-.131-1.0306-.0508-1.5142.2397-.4012.241-.4488.3782-.165.4752.1059.0362.4153.1912.6875.3447.526.2963.6163.2961 1.65-.0052.9342-.2722 2.4218-.1803 3.135.1938.4946.2594 1.2929.8351 1.155.8328-.0302-.0005-.4757-.146-.99-.3231-1.1967-.4123-1.9612-.4268-2.86-.0542-1.0549.4373-2.0375.3186-3.2175-.389-.2874-.1723-.5225-.2577-.5225-.1898 0 .25 1.7118 1.774 2.3384 2.082.7485.3679.9108.3517 2.1328-.2131 1.0488-.4849 1.8161-.5832 2.5115-.3215.5472.2058 1.1573.8184 1.1573 1.1618 0 .1978-.0619.1705-.4851-.2136-.5886-.5345-1.0681-.6503-1.6696-.4031-.4109.1688-1.1453.7703-1.1453.9379 0 .0438.1606.0342.3567-.0212.4994-.1411 1.1419-.1236 1.8006.0493.9904.2597.9995.2765.4952.9048-.9021 1.1243-1.2542 1.1662-2.1728.2585-.5575-.5506-.7291-.6541-1.2687-.7644-.3432-.0701-.8823-.1127-1.198-.0945l-.5739.0331.5505.3503c.3028.1927.9763.7399 1.4967 1.216.5205.4761 1.0691.896 1.2191.9331.5584.1381 1.3066-.2337 2.3675-1.1763l.5978-.5312.1269.4166c.0699.2292.2338.5874.3644.796.4315.6899.2024 1.0422-.5666.8714-.223-.0496-.4054-.0561-.4054-.0145 0 .1463.7184.7563 1.0247.8701.4253.158.4533.1525.8368-.1656.4913-.407.454-.7844-.1565-1.5844-.5419-.71-.5822-.8508-.3184-1.1107.2257-.2222.4005-.1648 1.5017.4941 1.3276.7942 2.0485.7153 2.9289-.3206.2603-.3062.5429-.5567.628-.5567.2627 0 .1713-.2028-.1697-.3765-.5279-.2689-1.1098-.2096-1.6955.1725-.6291.4105-.9142.3809-1.7432-.1809-.4137-.2803-.6633-.3785-.8819-.3468-.4072.0588-.3862-.0882.0439-.3073.2779-.1415.5197-.163 1.188-.1056.8861.0762 1.8632-.0356 2.8602-.3273.4896-.1432.7616-.3292 1.4571-.9959.4704-.4508.8354-.839.8114-.8628-.0241-.0237-.5871.2284-1.2512.5602-1.3747.687-1.7941.745-2.6773.3708-.6284-.2663-.5984-.3557.2142-.6376.2988-.1035 1.0647-.53 1.702-.9476 1.3076-.8566 2.0206-1.1216 3.6949-1.373 1.506-.2262 1.9929-.4534 2.839-1.3245.7149-.7362.7959-.9245.3029-.7032-.4544.204-.4887.1513-.2179-.3346.1409-.2533.2919-.6799.3359-.9481.043-.2682.175-.6216.293-.7856.3-.4171.065-.3887-.7042.0849-.4838.298-.7546.5821-1.2228 1.2823-.7306 1.0926-1.6996 1.8744-2.9736 2.3987l-.4083.1681.3766-.5394c.2072-.2967.4353-.78.5069-1.074.1595-.6547.2004-1.4864.0791-1.6059-.1219-.12-.4901.3746-.577.7752-.0388.1788-.2159.6287-.3936 1-.264.5515-.4479.7629-1.0061 1.1568-.3757.2652-.881.6847-1.123.9324-.5604.5736-.9603.8568-1.3754.9741-.4626.1307-.42-.0454.1266-.5227.3167-.2767.5988-.6994.9234-1.3839.4525-.9539.8788-1.4524 1.2423-1.4524.1246 0 .1389-.0328.0518-.1186-.1067-.1051-.5077.0274-1.2666.4185-.0428.0221-.0007-.1121.0935-.2981.135-.2665.1549-.521.0939-1.1995-.0426-.4736-.1206-.861-.1734-.861-.1603 0-.4019.4621-.4816.921-.0415.2383-.2126.6772-.3805.9751-.1678.298-.3377.7817-.3775 1.0748-.0759.5592-.3925 1.1605-.9457 1.7966l-.3299.3792-.0025-.3251c-.003-.377.3297-.9654.6378-1.1277.2706-.1427.3667-.3893.2818-.7228-.0883-.3465-.1884-.3311-.3349.0512-.1108.2891-.6455.7496-.7503.6463-.025-.0246.125-.3784.3334-.7862.4138-.8099.493-1.5278.2217-2.0103l-.1492-.2655-.2292.3711c-.126.2042-.2827.6406-.348.9699-.1508.7592-.2927 1.1169-.6393 1.6118-.1523.2175-.3946.6636-.5384.9914l-.2613.5959.0455-.5418c.0319-.3798.1703-.7461.463-1.2254.5201-.8516.6022-1.4791.3256-2.4858l-.1976-.7192-.4149.4605c-.2281.2534-.5169.7382-.6415 1.0776l-.2268.6169.0574-1.3002c.0421-.9541.0146-1.4546-.1034-1.8802-.0884-.3191-.1876-.6064-.2201-.6384-.0326-.0322-.2053.2458-.3838.6176zm-8.5359 1.4399-.33.2798.33.4613c.3849.5381.6735.6994.5467.3055-.0448-.1389-.1119-.4943-.1491-.7895l-.0676-.537zm17.985.8315c0 .1739-.0296.3922-.0658.4851-.044.113.0291.2115.2211.2976.2515.1129.3219.0964.5703-.133l.2834-.2616-.4128-.3522c-.5079-.4332-.5962-.4385-.5962-.0359zm-.3204 1.1691c-.1615.3491-.1144.3951.1895.1855.2769-.1909.306-.3228.0895-.4046-.09-.034-.2029.0545-.279.2191zm-20.6354.6029c.2023.7234.644 1.8171.778 1.9267.2302.1882.4123-.369.3358-1.0269-.0717-.6156-.1142-.6707-.7267-.9408l-.4546-.2005zm23.8629.0607c-.1858.159-.4711.3865-.6343.5057-.2222.1624-.3134.3438-.3635.7237-.0732.5531.0136 1.0641.1806 1.0641.2346 0 1.3541-2.3861 1.1938-2.5442-.0213-.0211-.1908.0918-.3766.2507z" fill="#800000" fill-rule="evenodd"/></svg>