<svg width="177" height="48" viewBox="0 0 177 48" fill="none" xmlns="http://www.w3.org/2000/svg">
<path fill-rule="evenodd" clip-rule="evenodd" d="M21.3394 15.6424H21.5593V5.22552H26.8163V34.6275H22.2543L21.8199 32.1912H21.6022C20.9071 33.0601 20.0072 33.7532 18.9077 34.2703C17.8061 34.7874 16.5039 35.0465 14.998 35.0465C13.1123 35.0465 11.3971 34.5784 9.84824 33.6391C8.29935 32.7019 7.07547 31.4 6.17768 29.7335C5.27988 28.0703 4.83044 26.1575 4.83044 24.0016C4.83044 21.8457 5.27988 19.9361 6.17768 18.2696C7.0744 16.6031 8.29935 15.3034 9.84824 14.3641C11.3982 13.4247 13.1155 12.9566 14.998 12.9566C16.416 12.9566 17.6688 13.2157 18.7554 13.7329C19.8398 14.25 20.7022 14.8854 21.3394 15.6424ZM18.734 29.5448C19.6039 29.0128 20.2904 28.2707 20.7977 27.3186C21.3029 26.3675 21.5571 25.2608 21.5571 24.0016C21.5571 22.7424 21.3029 21.6367 20.7977 20.6846C20.2893 19.7335 19.6028 18.9968 18.734 18.4796C17.8651 17.9625 16.8665 17.7034 15.8228 17.7034C14.7791 17.7034 13.8234 17.9625 12.9546 18.4796C12.0847 18.9989 11.3961 19.7324 10.8908 20.6846C10.3856 21.6356 10.1314 22.7424 10.1314 24.0016C10.1314 25.2608 10.3835 26.3664 10.8908 27.3186C11.3971 28.2696 12.0858 29.0117 12.9546 29.5448C13.8234 30.0769 14.7513 30.3424 15.8228 30.3424C16.8944 30.3424 17.8651 30.0779 18.734 29.5448Z" fill="#06038D"/>
<path fill-rule="evenodd" clip-rule="evenodd" d="M40.3713 12.9535C42.4844 12.9535 44.3904 13.4301 46.0841 14.3822C47.7789 15.3332 49.1111 16.6511 50.0818 18.3304C51.0504 20.0118 51.5363 21.9001 51.5363 24.0005C51.5363 26.101 51.0526 27.9914 50.0818 29.6706C49.11 31.3521 47.78 32.6667 46.0841 33.6188C44.3904 34.5731 42.4565 35.0476 40.3713 35.0476C38.2861 35.0476 36.3972 34.571 34.7013 33.6188C33.0065 32.6678 31.6743 31.3499 30.7036 29.6706C29.7329 27.9892 29.2491 26.101 29.2491 24.0005C29.2491 21.9001 29.7329 20.0097 30.7036 18.3304C31.6733 16.649 33.0076 15.3343 34.7013 14.3822C36.3972 13.4301 38.2582 12.9535 40.3713 12.9535ZM43.3232 29.5235C44.222 29.0064 44.9386 28.2643 45.4749 27.2972C46.0101 26.3334 46.2794 25.2309 46.2794 24.0016C46.2794 22.7722 46.0112 21.673 45.4749 20.7059C44.9375 19.7399 44.221 18.9968 43.3232 18.4796C42.4264 17.9625 41.4407 17.7034 40.3691 17.7034C39.2976 17.7034 38.3129 17.9625 37.4151 18.4796C36.5184 18.9989 35.8072 19.7388 35.287 20.7059C34.7667 21.6698 34.5061 22.7701 34.5061 24.0016C34.5061 25.2331 34.7667 26.3302 35.287 27.2972C35.8072 28.2632 36.5173 29.0064 37.4151 29.5235C38.3118 30.0406 39.2976 30.2997 40.3691 30.2997C41.4407 30.2997 42.4254 30.0406 43.3232 29.5235Z" fill="#06038D"/>
<path d="M69.9805 14.0677C68.6612 13.3256 67.1638 12.9556 65.483 12.9556C64.0049 12.9556 62.7156 13.2083 61.6161 13.7126C60.5145 14.2169 59.7058 14.7905 59.1823 15.4345H58.9646L58.5301 13.3767H53.9682V34.6275H59.2252V22.5313C59.2252 21.6346 59.4365 20.8307 59.8559 20.1163C60.2753 19.4019 60.8631 18.8347 61.6161 18.4157C62.3691 17.9967 63.224 17.7845 64.1786 17.7845C65.0764 17.7845 65.8874 17.9881 66.6125 18.3944C67.3354 18.8006 67.9018 19.3614 68.3062 20.0736C68.7105 20.788 68.9154 21.6069 68.9154 22.5313V34.6275H74.1724V21.8596C74.1724 20.1248 73.8023 18.5767 73.0644 17.2183C72.3264 15.86 71.2977 14.8097 69.9784 14.0677H69.9805Z" fill="#06038D"/>
<path fill-rule="evenodd" clip-rule="evenodd" d="M87.7688 12.9535C89.7681 12.9535 91.5927 13.4151 93.2435 14.3395V14.3385L93.2456 14.3427C94.8964 15.2671 96.1911 16.5327 97.1339 18.1438C98.0746 19.7538 98.5455 21.5397 98.5455 23.4994C98.5455 23.9749 98.5241 24.4153 98.4812 24.8215C98.4361 25.2277 98.3868 25.5145 98.3289 25.683H81.8607C81.9744 26.6628 82.308 27.5467 82.8593 28.3293C83.4085 29.1119 84.1121 29.7154 84.966 30.1344C85.8198 30.5556 86.754 30.7656 87.7677 30.7656C88.8693 30.7656 89.8314 30.5428 90.6574 30.0939C91.4811 29.6461 92.1119 29.0992 92.5463 28.4552H97.9341C97.5576 29.548 96.928 30.5897 96.0452 31.5845C95.1603 32.5771 94.0244 33.4045 92.6342 34.0613C91.2441 34.7181 89.6212 35.0476 87.7688 35.0476C85.6835 35.0476 83.7861 34.571 82.0773 33.6188C80.3676 32.6678 79.0289 31.3499 78.0582 29.6706C77.0874 27.9892 76.6037 26.101 76.6037 24.0005C76.6037 21.9001 77.0874 20.0097 78.0582 18.3304C79.0278 16.649 80.3686 15.3343 82.0773 14.3822C83.7861 13.4301 85.7694 12.9535 87.7688 12.9535ZM82.8593 19.6536C82.338 20.4255 82.0044 21.2849 81.8607 22.237H93.3336C93.2167 21.2859 92.9131 20.4234 92.4208 19.6536C91.9252 18.8837 91.2816 18.276 90.4857 17.8271C89.6888 17.3804 88.7835 17.1554 87.7698 17.1554C86.6961 17.1554 85.7404 17.3804 84.9016 17.8271C84.0596 18.2739 83.3795 18.8837 82.8593 19.6536Z" fill="#06038D"/>
<path d="M138.636 12.9556C140.316 12.9556 141.814 13.3256 143.133 14.0676L143.135 14.0655C144.455 14.8076 145.483 15.8578 146.221 17.2162C146.959 18.5745 147.329 20.1227 147.329 21.8574V34.6253H142.072V22.5291C142.072 21.6047 141.867 20.7859 141.463 20.0715C141.056 19.3593 140.49 18.7984 139.767 18.3922C139.042 17.986 138.231 17.7823 137.333 17.7823C136.379 17.7823 135.524 17.9945 134.771 18.4135C134.018 18.8326 133.43 19.3998 133.011 20.1142C132.591 20.8285 132.38 21.6324 132.38 22.5291V34.6253H127.123V5.22552H132.38V15.4345H132.598C133.089 14.7905 133.878 14.2169 134.965 13.7126C136.052 13.2083 137.273 12.9556 138.636 12.9556Z" fill="#06038D"/>
<path fill-rule="evenodd" clip-rule="evenodd" d="M166.749 15.8109L167.184 13.3746H171.743V42.7744H166.486V32.4407H166.269C165.633 33.17 164.771 33.7841 163.685 34.2884C162.6 34.7927 161.345 35.0454 159.927 35.0454C158.042 35.0454 156.326 34.5774 154.778 33.638C153.229 32.7008 152.005 31.399 151.107 29.7325C150.209 28.0692 149.76 26.1564 149.76 24.0005C149.76 21.8446 150.209 19.935 151.107 18.2685C152.004 16.602 153.229 15.3023 154.778 14.363C156.327 13.4237 158.045 12.9556 159.927 12.9556C161.403 12.9556 162.708 13.2147 163.837 13.7318C164.968 14.25 165.864 14.943 166.531 15.8109H166.749ZM163.665 29.5448C164.535 29.0128 165.222 28.2707 165.729 27.3186C166.234 26.3675 166.489 25.2608 166.489 24.0016C166.489 22.7424 166.234 21.6367 165.729 20.6846C165.221 19.7335 164.534 18.9968 163.665 18.4796C162.797 17.9625 161.798 17.7034 160.754 17.7034C159.711 17.7034 158.755 17.9625 157.886 18.4796C157.016 18.9989 156.327 19.7325 155.822 20.6846C155.317 21.6356 155.063 22.7424 155.063 24.0016C155.063 25.2608 155.315 26.3664 155.822 27.3186C156.329 28.2696 157.017 29.0117 157.886 29.5448C158.755 30.0769 159.683 30.3424 160.754 30.3424C161.826 30.3424 162.797 30.0779 163.665 29.5448Z" fill="#06038D"/>
<path d="M114.04 19.983V13.4524C114.04 12.7541 113.162 12.4385 112.712 12.9748L101.152 26.8014C100.745 27.2876 101.093 28.0233 101.728 28.0233H111.603V34.5518C111.603 35.2501 112.48 35.5657 112.931 35.0294L124.49 21.2027C124.897 20.7165 124.549 19.9809 123.914 19.9809L123.912 19.983H114.04Z" fill="#7EE100"/>
</svg>
