<svg fill="none" height="144" viewBox="0 0 360 144" width="360" xmlns="http://www.w3.org/2000/svg" xmlns:xlink="http://www.w3.org/1999/xlink"><linearGradient id="a"><stop offset=".58" stop-color="#fff"/><stop offset="1" stop-color="#0739c1"/></linearGradient><linearGradient id="b" gradientUnits="userSpaceOnUse" x1="221.627" x2="239.668" xlink:href="#a" y1="59.4122" y2="44.6605"/><linearGradient id="c" gradientUnits="userSpaceOnUse" x1="221.619" x2="239.681" xlink:href="#a" y1="67.368" y2="82.1356"/><linearGradient id="d"><stop offset="0" stop-color="#fff"/><stop offset="1" stop-color="#0739c1"/></linearGradient><linearGradient id="e" gradientUnits="userSpaceOnUse" x1="232.987" x2="225.153" xlink:href="#d" y1="60.3692" y2="38.7474"/><linearGradient id="f" gradientUnits="userSpaceOnUse" x1="232.995" x2="225.135" xlink:href="#d" y1="66.4008" y2="88.0912"/><linearGradient id="g"><stop offset=".08" stop-color="#2b41c6"/><stop offset=".68" stop-color="#00e2f9"/><stop offset=".78" stop-color="#00e2f9"/><stop offset=".91" stop-color="#2b41c6"/></linearGradient><linearGradient id="h" gradientUnits="userSpaceOnUse" x1="216.179" x2="212.323" xlink:href="#g" y1="44.0759" y2="64.2065"/><linearGradient id="i"><stop offset=".07" stop-color="#052391"/><stop offset=".4" stop-color="#00e2f9"/><stop offset=".56" stop-color="#00e2f9"/></linearGradient><linearGradient id="j" gradientUnits="userSpaceOnUse" x1="214.273" x2="204.897" xlink:href="#i" y1="50.9061" y2="62.9898"/><linearGradient id="k" gradientUnits="userSpaceOnUse" x1="216.179" x2="212.323" xlink:href="#g" y1="82.6917" y2="62.561"/><linearGradient id="l" gradientUnits="userSpaceOnUse" x1="113" x2="204.825" xlink:href="#i" y1="75.864" y2="63.7089"/><g fill="#010526"><path d="m162.373 47.168h-11.918c-1.259 0-1.957.6947-1.957 1.9447v28.5395c0 1.25.698 1.9447 1.957 1.9447h2.234c1.259 0 1.957-.6947 1.957-1.9447v-25.3421h6.704c3.118 0 5.074 2.271 5.074 5.421s-1.909 5.3737-5.074 5.3737h-2.483v4.9105h3.509c6.563 0 10.334-4.5868 10.334-10.2394 0-5.6527-3.726-10.6079-10.337-10.6079z"/><path d="m197.663 74.4548h-13.359v-8.3842h11.358c1.258 0 2.001-.7421 2.001-1.9921v-.9263c0-1.25-.743-1.9474-2.001-1.9474h-11.358v-4.871h-.061v-9.1658h-4.131c-1.256 0-1.954.6947-1.954 1.9447v28.5395c0 1.25.698 1.9447 1.954 1.9447h17.551c1.256 0 1.955-.6947 1.955-1.9447v-1.2053c0-1.25-.699-1.9921-1.955-1.9921z"/><path d="m197.663 47.168h-9.202v5.1421h9.202c1.257 0 1.955-.7421 1.955-1.9921v-1.2053c0-1.25-.698-1.9447-1.955-1.9447z"/><path d="m143.239 77.3285-11.172-28.5842c-.418-1.0658-1.164-1.5763-2.283-1.5763h-3.025c-.23 0-.439.0263-.637.071l3.144 8.7079 4.615 12.4395h-11.173l3.327-8.9658-2.745-7.6026-9.845 25.5105c-.513 1.3421.092 2.271 1.536 2.271h2.235c1.116 0 1.861-.5105 2.234-1.5763l1.817-4.771h14.06l1.817 4.771c.418 1.0658 1.163 1.5763 2.327 1.5763h2.234c1.444 0 2.05-.9263 1.537-2.271z"/><path d="m238.067 84.291h2.885v.5369h-1.131v3.0105h-.624v-3.0105h-1.127v-.5369z"/><path d="m241.405 84.291h.878l.983 2.7763h.011l.957-2.7763h.868v3.5447h-.595v-2.7368h-.011l-.989 2.7368h-.513l-.989-2.7368h-.011v2.7368h-.595v-3.5447z"/><path d="m113.262 85.8965h7.251v1.5816h-5.411v2.7368h4.752v1.4921h-4.752v4.6395h-1.84z"/><path d="m122.221 85.8965h1.676v1.5816h-1.676zm0 2.8842h1.676v7.5684h-1.676z"/><path d="m126.148 88.7808h1.59v1.1131l.029.029c.254-.4185.59-.7474.999-.9869.413-.2395.868-.3579 1.368-.3579.833 0 1.491.2158 1.97.6448.481.4289.722 1.0736.722 1.9315v5.1974h-1.677v-4.7579c-.019-.5947-.148-1.0263-.383-1.2947-.236-.2684-.603-.4027-1.103-.4027-.286 0-.54.0527-.764.1527-.225.1026-.418.2447-.574.4237-.156.1815-.281.3921-.368.6368s-.132.5026-.132.7763v4.4632h-1.677z"/><path d="m134.251 88.7801h1.264v-2.2684h1.676v2.2684h1.516v1.2448h-1.516v4.0395c0 .1763.008.3263.021.4526.016.1263.051.2342.104.321.052.0869.134.1527.243.1974.108.0447.254.0658.441.0658.117 0 .236 0 .352-.0079.117-.0053.236-.0211.352-.05v1.2868c-.188.0185-.368.0395-.545.0579-.177.0185-.357.029-.545.029-.441 0-.796-.0421-1.065-.1237-.27-.0842-.482-.2053-.632-.3658-.154-.1605-.254-.3631-.31-.6079-.053-.2447-.084-.521-.095-.8342v-4.4632h-1.264v-1.2447z"/><path d="m141.649 92.9959c0 .2921.042.5763.124.85s.209.5131.376.7184c.166.2053.378.3684.632.4895.254.121.558.1842.912.1842.489 0 .886-.1053 1.185-.3158s.521-.5237.669-.9448h1.589c-.087.4106-.241.7764-.455 1.0974-.217.3211-.476.5921-.78.8132-.304.2184-.645.3842-1.023.4973-.378.1132-.772.1685-1.185.1685-.598 0-1.126-.0974-1.589-.2921-.46-.1948-.852-.4685-1.169-.8185-.32-.35-.558-.771-.722-1.2579-.161-.4868-.243-1.0236-.243-1.6105 0-.5368.084-1.0474.256-1.5289.172-.4816.418-.9079.735-1.2737.318-.3658.704-.6553 1.156-.8711.452-.2131.96-.321 1.528-.321.598 0 1.135.1237 1.611.3737s.87.5789 1.185.9868c.314.4105.542.8816.684 1.4132.143.5315.18 1.0815.112 1.6473h-5.591zm3.914-1.0974c-.019-.2632-.077-.5158-.17-.7605-.092-.2448-.219-.4553-.383-.6369-.161-.1815-.357-.3263-.59-.4394-.23-.1132-.486-.1685-.772-.1685-.285 0-.561.0527-.801.1527-.241.1026-.447.2447-.619.4237-.172.1815-.309.3921-.412.6368-.104.2447-.159.5079-.17.7895h3.914z"/><path d="m154.078 91.313c-.069-.4684-.257-.821-.566-1.0605s-.698-.3579-1.169-.3579c-.217 0-.447.0368-.69.1105-.246.0737-.471.2105-.677.4105s-.378.479-.516.8343c-.137.3552-.206.821-.206 1.3973 0 .3132.037.6237.111.9369.074.3131.191.5894.352.8342.161.2447.37.4421.624.5921.254.1526.563.2263.926.2263.489 0 .893-.15 1.213-.4526.318-.3027.519-.7263.595-1.2737h1.677c-.156.9868-.532 1.7395-1.124 2.2605-.592.5211-1.38.7842-2.361.7842-.598 0-1.124-.1-1.582-.3-.455-.2-.841-.4737-1.155-.821-.315-.3474-.553-.7579-.714-1.2369-.162-.4789-.244-.9947-.244-1.5526s.08-1.0974.236-1.5947c.156-.4974.391-.929.706-1.2948.314-.3658.703-.6526 1.169-.8631.465-.2106 1.012-.3158 1.639-.3158.442 0 .859.0552 1.259.1684.396.1132.751.2816 1.058.5053.309.2236.56.5078.756.85.196.3421.315.7473.352 1.2157h-1.677z"/><path d="m157.55 85.8965h1.676v3.8789h.029c.207-.3421.513-.6263.921-.8552.407-.229.859-.3448 1.362-.3448.833 0 1.491.2158 1.97.6448.481.4289.722 1.0737.722 1.9315v5.1974h-1.677v-4.7579c-.018-.5947-.148-1.0263-.383-1.2947-.236-.2684-.603-.4026-1.103-.4026-.286 0-.54.0526-.764.1526-.225.1026-.418.2447-.574.4237-.156.1815-.281.3921-.368.6368s-.132.5026-.132.7763v4.4632h-1.677v-10.45z"/><path d="m172.375 92.8649c0 .4.069.7421.206 1.0237.138.2842.328.5158.574.6947.246.1816.526.3132.846.3948.318.0842.664.1236 1.037.1236.402 0 .746-.0473 1.029-.1394.285-.0921.515-.2132.69-.3579.177-.1474.304-.3158.383-.5053.08-.1895.117-.3842.117-.5789 0-.4-.09-.6948-.273-.8842-.182-.1895-.381-.3237-.595-.4027-.373-.1368-.806-.2658-1.301-.3868-.494-.1211-1.105-.2816-1.83-.4763-.452-.1185-.825-.2711-1.124-.4606-.298-.1894-.536-.4026-.714-.6368-.177-.2342-.301-.4816-.375-.7474-.074-.2631-.111-.5315-.111-.8052 0-.5263.111-.9842.33-1.3685.22-.3842.513-.7052.876-.9578.362-.2527.774-.4422 1.235-.5632.46-.1211.925-.1842 1.396-.1842.55 0 1.066.071 1.552.2131.487.1421.912.3527 1.28.6369s.658.6316.875 1.0474c.217.4157.323.8947.323 1.4421h-1.838c-.05-.6737-.28-1.15-.69-1.4264-.413-.2789-.936-.4157-1.574-.4157-.216 0-.436.021-.661.0657-.224.0448-.431.1185-.618.2185-.188.1026-.342.2421-.463.4158-.122.1763-.185.3947-.185.6578 0 .3711.116.6606.346.8711s.532.3684.904.4763c.04.0105.193.0526.463.1237.27.0737.571.1526.905.2421.333.0868.658.1737.978.2553.317.0842.547.1447.685.1842.344.1079.643.2526.896.4395.254.1842.468.3973.64.6368s.299.4947.384.7684c.084.2737.124.5474.124.8184 0 .5842-.119 1.0869-.36 1.5-.24.4158-.558.7527-.949 1.0185-.391.2631-.838.4552-1.338.5789-.5.1211-1.01.1842-1.528.1842-.598 0-1.161-.0737-1.693-.2184-.529-.1474-.992-.3711-1.383-.6737s-.706-.6895-.941-1.1631c-.236-.4737-.357-1.0316-.368-1.6764h1.838z"/><path d="m184.378 96.5538c-.608 0-1.151-.1-1.627-.3s-.877-.4764-1.205-.8264-.58-.771-.751-1.2578c-.172-.4869-.257-1.0237-.257-1.6106 0-.5868.085-1.1079.257-1.5947.171-.4869.42-.9079.751-1.2579.328-.35.729-.6263 1.205-.8263s1.019-.3 1.627-.3 1.15.1 1.626.3.878.4763 1.206.8263.579.771.751 1.2579c.172.4868.256 1.021.256 1.5947s-.087 1.1211-.256 1.6106c-.172.4868-.421.9078-.751 1.2578-.328.35-.73.6264-1.206.8264s-1.018.3-1.626.3zm0-1.3185c.373 0 .695-.0789.97-.2342.275-.1552.5-.3605.677-.6158.177-.2526.307-.5394.389-.8552s.124-.6421.124-.9737-.042-.6447-.124-.9658c-.082-.321-.214-.6079-.389-.8553-.177-.25-.402-.45-.677-.6079-.275-.1578-.597-.2342-.97-.2342s-.696.079-.971.2342c-.275.1553-.5.3579-.677.6079s-.306.5343-.388.8553c-.085.3211-.125.6447-.125.9658 0 .321.043.6553.125.9737s.214.6026.388.8552c.177.2527.402.4579.677.6158.275.1553.598.2342.971.2342z"/><path d="m190.084 85.8965h1.677v10.45h-1.677z"/><path d="m200.689 96.3483h-1.648v-1.0526h-.029c-.206.3816-.513.6868-.92.9158-.407.2289-.822.3447-1.243.3447-.999 0-1.724-.2474-2.168-.7395-.447-.4921-.669-1.2368-.669-2.2315v-4.8h1.676v4.6394c0 .6632.127 1.1316.384 1.4053.254.2737.613.4105 1.073.4105.352 0 .648-.0526.884-.1605.235-.1079.425-.25.573-.4316s.252-.3974.318-.6526c.063-.2526.095-.5263.095-.8184v-4.3921h1.676v7.5684z"/><path d="m202.116 88.7801h1.264v-2.2684h1.677v2.2684h1.515v1.2448h-1.515v4.0395c0 .1763.007.3263.021.4526.016.1263.05.2342.103.321.053.0869.135.1527.243.1974.109.0447.254.0658.442.0658.119 0 .235 0 .351-.0079.119-.0053.236-.0211.352-.05v1.2868c-.185.0185-.367.0395-.545.0579-.177.0185-.357.029-.544.029-.442 0-.796-.0421-1.066-.1237-.27-.0842-.481-.2053-.632-.3658-.153-.1605-.254-.3631-.309-.6079-.053-.2447-.088-.521-.096-.8342v-4.4632h-1.264v-1.2447z"/><path d="m208.249 85.8965h1.677v1.5816h-1.677zm0 2.8842h1.677v7.5684h-1.677z"/><path d="m215.661 96.5538c-.608 0-1.15-.1-1.626-.3s-.878-.4764-1.206-.8264-.579-.771-.751-1.2578c-.172-.4869-.257-1.0237-.257-1.6106 0-.5868.085-1.1079.257-1.5947.172-.4869.42-.9079.751-1.2579.328-.35.73-.6263 1.206-.8263s1.018-.3 1.626-.3 1.15.1 1.626.3.878.4763 1.206.8263.579.771.751 1.2579c.172.4868.257 1.021.257 1.5947s-.088 1.1211-.257 1.6106c-.172.4868-.42.9078-.751 1.2578-.328.35-.73.6264-1.206.8264s-1.018.3-1.626.3zm0-1.3185c.373 0 .695-.0789.97-.2342.275-.1552.5-.3605.677-.6158.178-.2526.307-.5394.389-.8552s.124-.6421.124-.9737-.042-.6447-.124-.9658c-.082-.321-.214-.6079-.389-.8553-.177-.25-.402-.45-.677-.6079-.275-.1578-.597-.2342-.97-.2342s-.696.079-.971.2342c-.275.1553-.499.3579-.677.6079-.177.25-.306.5343-.388.8553-.085.3211-.125.6447-.125.9658 0 .321.043.6553.125.9737s.214.6026.388.8552c.178.2527.402.4579.677.6158.275.1553.598.2342.971.2342z"/><path d="m221.326 88.7808h1.589v1.1131l.029.029c.254-.4185.587-.7474 1-.9869.412-.2395.867-.3579 1.367-.3579.833 0 1.491.2158 1.97.6448.481.4289.719 1.0736.719 1.9315v5.1974h-1.676v-4.7579c-.019-.5947-.148-1.0263-.384-1.2947-.235-.2684-.603-.4027-1.102-.4027-.286 0-.54.0527-.765.1527-.224.1026-.417.2447-.573.4237-.156.1815-.281.3921-.368.6368s-.132.5026-.132.7763v4.4632h-1.677v-7.5684z"/><path d="m231.458 93.9183c.048.4868.236.8289.558 1.0237.323.1947.712.2921 1.161.2921.156 0 .336-.0132.537-.0369s.389-.071.566-.1395c.177-.0684.32-.1684.434-.3.113-.1315.164-.3052.153-.5184-.011-.2131-.087-.3894-.235-.5263-.148-.1368-.336-.2474-.566-.3289-.23-.0816-.492-.1527-.788-.2132-.294-.0579-.593-.121-.897-.1895-.314-.0684-.616-.15-.904-.25-.288-.0973-.55-.2289-.78-.3947s-.415-.379-.55-.6368c-.138-.2579-.207-.579-.207-.9579 0-.4106.101-.7527.302-1.0316.201-.279.455-.5026.764-.6737.31-.1711.653-.2895 1.029-.3579.378-.0684.738-.1026 1.081-.1026.392 0 .767.0421 1.124.1237.357.0842.683.2184.971.4026s.529.4263.722.7237c.19.2973.312.6552.359 1.0763h-1.75c-.08-.4-.262-.6684-.55-.8053-.289-.1368-.622-.2052-.992-.2052-.119 0-.256.0105-.418.0289-.161.0211-.314.0553-.455.1105-.142.0553-.261.1316-.359.2342-.098.1027-.148.2369-.148.4027 0 .2052.071.371.214.4973.143.1264.328.2316.558.3158s.492.1527.788.2132c.293.0579.598.121.912.1895.304.0684.603.1526.897.25.293.0973.555.2289.788.3947.23.1658.418.3763.558.6289.142.2527.214.5658.214.9369 0 .45-.103.8289-.31 1.1421-.206.3132-.473.5658-.801.7605-.328.1948-.693.3369-1.095.4237-.402.0869-.798.1316-1.19.1316-.481 0-.925-.0526-1.33-.1605-.407-.1079-.759-.2711-1.057-.4895-.299-.2184-.535-.4921-.707-.8211-.171-.3263-.261-.7158-.272-1.1631h1.677z"/></g><path d="m234.939 47.1701h-3.282c-.447-.0184-.888.0842-1.28.3-.389.2158-.711.5368-.925.9237l-8.912 12.8947h4.826l9.753-14.1105c-.059-.0027-.119-.0053-.178-.0053z" fill="url(#b)"/><path d="m234.939 79.6338h-3.282c-.447.0184-.888-.0842-1.28-.3027-.389-.2184-.711-.5368-.925-.9263l-8.912-12.9263h4.826l9.755 14.1474c-.058.0026-.119.0052-.177.0052z" fill="url(#c)"/><path d="m234.938 47.1719c.061 0 .119 0 .178.0052l-9.756 14.1106h2.655l8.002-11.5711c.934-1.4053.421-2.5447-1.081-2.5447z" fill="url(#e)"/><path d="m234.938 79.6351c.061 0 .119 0 .178-.0053l-9.756-14.1474h2.655l8.002 11.6027c.934 1.4105.421 2.5526-1.081 2.5526z" fill="url(#f)"/><path d="m218.178 61.289h2.293l-8.912-12.8947c-.214-.3868-.537-.7053-.925-.9237-.392-.2158-.833-.321-1.28-.3h-1.391l10.218 14.1184z" fill="url(#h)"/><path d="m206.07 47.1719c-1.502 0-2.015 1.1394-1.082 2.5447l8.002 11.5711h5.188l-10.218-14.1158z" fill="url(#j)"/><path d="m218.178 65.4785h2.293l-8.912 12.8948c-.214.3868-.537.7052-.925.9236-.392.2158-.833.3211-1.28.3h-1.391l10.218-14.1184z" fill="url(#k)"/><path d="m206.07 79.5982c-1.502 0-2.015-1.1395-1.082-2.5447l8.002-11.5711h5.188l-10.218 14.1158z" fill="url(#l)"/></svg>