<svg fill="none" height="144" viewBox="0 0 360 144" width="360" xmlns="http://www.w3.org/2000/svg" xmlns:xlink="http://www.w3.org/1999/xlink"><clipPath id="a"><path d="m46 47h269v50h-269z"/></clipPath><mask id="b" height="17" maskUnits="userSpaceOnUse" width="53" x="74" y="47"><path d="m74.9893 47h51.4967v16.8842h-51.4967z" fill="#fff"/></mask><mask id="c" height="17" maskUnits="userSpaceOnUse" width="53" x="74" y="47"><path d="m99.8033 47-24.814 11.4811v5.4037h1.6652v-4.3353l23.1731-10.7221 24.9944 10.7381v4.3193h1.664v-5.4196z" fill="#fff"/></mask><mask id="d" height="5" maskUnits="userSpaceOnUse" width="27" x="46" y="67"><path d="m46 67.6738h26.5185v3.7063h-26.5185z" fill="#fff"/></mask><g clip-path="url(#a)"><path clip-rule="evenodd" d="m169.035 62.8185c-1.353-1.0224-3.121-1.4191-4.723-1.4191h-.229v6.1536c0 3.2334.021 5.2772.041 5.9453.021.5.23.6669.646.8544l-.021.1046c-.499-.0423-1.207-.0627-1.727-.0627-.541 0-1.207.0204-1.727.0627l-.021-.1046c.437-.2079.624-.3544.645-.8544.021-.6681.042-2.7119.042-5.9453v-6.1536h-.209c-1.601 0-3.411.417-4.764 1.4395l-.104-.1046c.229-.5216.562-1.5225.665-2.0234h10.945c.104.5009.416 1.4815.645 2.0031z" fill="#061931" fill-rule="evenodd"/><path clip-rule="evenodd" d="m185.035 74.3529-.021.1046c-.291-.0419-1.206-.0627-1.726-.0627-.541 0-1.207.0208-1.727.0627l-.021-.1046c.436-.2079.624-.3544.645-.8541.02-.6481.041-2.6076.041-5.7162h-8.302c0 3.1086.021 5.0681.042 5.7162.021.4997.229.6665.645.8541l-.021.1046c-.499-.0419-1.207-.0627-1.706-.0627-.562 0-1.227.0208-1.748.083l-.021-.1249c.437-.2079.625-.3544.645-.8541.021-.6684.042-2.7122.042-5.9457 0-3.2542-.021-5.2776-.042-5.9444-.02-.5013-.208-.6466-.645-.8557l.021-.1046c.521.0423 1.186.0627 1.748.0627.499 0 1.207-.0204 1.706-.0627l.021.1046c-.416.1876-.624.3544-.645.8557-.021.6245-.042 2.4189-.042 5.2776h8.302c0-2.8587-.021-4.6531-.041-5.2776-.021-.5013-.209-.6466-.645-.8557l.021-.1046c.52.0423 1.186.0627 1.727.0627.52 0 1.227-.0204 1.726-.0627l.021.1046c-.416.1876-.624.3544-.645.8557-.021.6668-.041 2.6902-.041 5.9444 0 3.2335.02 5.2773.041 5.9457.021.4997.229.6665.645.8541z" fill="#061931" fill-rule="evenodd"/><path clip-rule="evenodd" d="m189.802 74.3948c-.541 0-1.207.0204-1.728.0627l-.02-.1046c.436-.2079.624-.3548.644-.8545.021-.668.042-2.7122.042-5.9456 0-3.2539-.021-5.2777-.042-5.9441-.02-.5013-.208-.6466-.644-.8557l.02-.1046c.521.0419 1.187.0623 1.728.0623h6.928c.146.5843.395 1.4192.666 2.0034l-.146.1046c-1.352-1.21-2.975-1.4615-4.889-1.4615-.458 0-.957 0-1.457.0423-.021.8337-.042 2.8571-.042 5.5897 4.12-.0407 4.64-.2498 4.869-1.1055l.105.0216c-.063.5001-.084.8545-.084 1.4399 0 .6043.021.9586.084 1.438l-.105.0219c-.229-.9183-.749-1.0432-4.869-1.0851 0 2.8994.021 5.3398.042 6.0283h.832c2.539 0 4.952-.2918 6.471-1.3769l.104.0842c-.228.4574-.645 1.3757-.874 1.9392z" fill="#061931" fill-rule="evenodd"/><path clip-rule="evenodd" d="m214.479 62.8187c-1.353-1.21-2.975-1.4615-4.89-1.4615-.458 0-.957 0-1.456.0423-.021.8337-.042 2.8994-.042 5.5897 4.12-.0407 4.64-.2498 4.869-1.1055l.104.022c-.062.4997-.084.8541-.084 1.4395 0 .6042.022.9586.084 1.4384l-.104.0215c-.229-.9179-.749-1.0428-4.869-1.0851 0 3.0666.021 5.1104.042 5.7784.02.5001.229.6669.645.8545l-.021.1046c-.499-.0423-1.207-.0627-1.727-.0627-.541 0-1.207.0204-1.727.083l-.021-.1249c.437-.2079.624-.3544.645-.8545.021-.668.042-2.7118.042-5.9453 0-3.2542-.021-5.2776-.042-5.9444-.021-.5013-.208-.6466-.645-.8557l.021-.1046c.52.0423 1.186.0627 2.559.0627h6.097c.145.5839.394 1.4192.666 2.003z" fill="#061931" fill-rule="evenodd"/><path clip-rule="evenodd" d="m218.452 74.3948c-.541 0-1.207.0204-1.727.0627l-.021-.1046c.437-.2079.625-.3548.645-.8545.021-.668.042-2.7122.042-5.9456 0-3.2539-.021-5.2777-.042-5.9441-.02-.5013-.208-.6466-.645-.8557l.021-.1046c.52.0419 1.186.0623 1.727.0623h6.929c.146.5843.396 1.4192.665 2.0034l-.145.1046c-1.353-1.21-2.976-1.4615-4.89-1.4615-.457 0-.957 0-1.456.0423-.021.8337-.042 2.8571-.042 5.5897 4.119-.0407 4.64-.2498 4.869-1.1055l.104.0216c-.062.5001-.083.8545-.083 1.4399 0 .6043.021.9586.083 1.438l-.104.0219c-.229-.9183-.75-1.0432-4.869-1.0851 0 2.8994.021 5.3398.042 6.0283h.832c2.538 0 4.952-.2918 6.471-1.3769l.104.0842c-.228.4574-.645 1.3757-.874 1.9392z" fill="#061931" fill-rule="evenodd"/><path clip-rule="evenodd" d="m232.623 61.2746c-.229 0-.458 0-.728.0204-.021 1.3349-.043 2.7326-.043 6.2581 0 3.2335.022 5.2773.063 6.1956.291.0203.562.0203.853.0203 4.224 0 6.263-2.1267 6.263-6.4034 0-3.4833-1.664-6.091-6.408-6.091zm0 13.2248c-1.249 0-2.31-.0419-3.579-.1046v-.1046c.395-.0622.624-.2917.644-.7914.022-.6684.043-2.7122.043-5.9457 0-3.2542-.021-5.2776-.043-5.9444-.02-.5013-.249-.7308-.644-.793v-.1046c.916-.0407 2.309-.0627 3.516-.0627 4.89 0 8.802 1.5441 8.802 6.7172 0 3.3368-2.04 7.1338-8.739 7.1338z" fill="#061931" fill-rule="evenodd"/><path clip-rule="evenodd" d="m246.334 74.3948c-.541 0-1.207.0204-1.727.0627l-.021-.1046c.437-.2079.625-.3548.645-.8545.021-.668.042-2.7122.042-5.9456 0-3.2539-.021-5.2777-.042-5.9441-.02-.5013-.208-.6466-.645-.8557l.021-.1046c.52.0419 1.186.0623 1.727.0623h6.929c.145.5843.395 1.4192.665 2.0034l-.145.1046c-1.353-1.21-2.976-1.4615-4.89-1.4615-.458 0-.957 0-1.456.0423-.021.8337-.042 2.8571-.042 5.5897 4.119-.0407 4.64-.2498 4.868-1.1055l.105.0216c-.062.5001-.083.8545-.083 1.4399 0 .6043.021.9586.083 1.438l-.105.0219c-.228-.9183-.749-1.0432-4.868-1.0851 0 2.8994.021 5.3398.042 6.0283h.832c2.538 0 4.951-.2918 6.471-1.3769l.104.0842c-.229.4574-.645 1.3757-.874 1.9392z" fill="#061931" fill-rule="evenodd"/><path clip-rule="evenodd" d="m259.735 67.2407c.187.0203.333.0203.479.0203 2.288 0 3.266-1.3553 3.266-3.1712 0-1.6893-.874-2.7106-3.704-2.7106-.02.8337-.041 3.4617-.041 5.8615zm7.927 7.0076c-.374.2718-1.081.3341-1.56.3341-2.351 0-3.079-2.0234-3.766-3.963-.437-1.252-1.041-2.3575-1.956-2.5654-.229 0-.438 0-.645-.0215 0 2.7541.021 4.7979.041 5.4663.021.4997.23.6665.645.8541l-.02.1046c-.5-.0419-1.207-.0627-1.748-.0627-.52 0-1.186.0208-1.706.0627l-.021-.1046c.437-.2079.624-.3544.645-.8541.021-.6684.041-2.7122.041-5.9457 0-3.2542-.02-5.2776-.041-5.9444-.021-.5013-.25-.7308-.645-.793v-.1046c.915-.0407 2.247-.0627 3.225-.0627 3.829 0 5.659 1.5645 5.659 3.4414 0 2.2533-1.873 3.4633-4.119 3.8393 1.144.4374 2.289 1.9192 3.141 3.3368 1.415 2.3359 2.019 3.0463 2.809 2.8575z" fill="#061931" fill-rule="evenodd"/><path clip-rule="evenodd" d="m276.879 69.4928c-.978-2.1483-2.081-4.5904-2.747-5.9876-.686 1.4814-1.706 3.8596-2.621 5.9876zm5.306 4.8594-.021.1045c-.604-.0423-1.332-.0626-1.956-.0626s-1.519.0203-2.06.0626l-.021-.1045c.583-.2503.729-.4375.541-.8545-.208-.4805-.728-1.669-1.373-3.1085h-6.159c-.479 1.1258-.874 2.1064-1.144 2.7745-.292.7291-.166.9179.541 1.1885l-.021.1045c-.52-.0423-1.019-.0626-1.519-.0626-.52 0-.957.0203-1.436.0626l-.02-.1045c.395-.125.811-.4171 1.123-1.0213 1.769-3.5256 4.474-9.1999 6.034-12.8504h.291c1.373 3.0247 4.495 9.7414 5.972 12.6832.312.6042.811 1.0635 1.228 1.1885z" fill="#061931" fill-rule="evenodd"/><path clip-rule="evenodd" d="m293.005 72.4556c-.229.4578-.645 1.3757-.874 1.9392h-6.117c-1.269 0-1.935.0204-2.455.0627l-.021-.1046c.437-.2079.625-.3328.645-.8545.021-.668.042-2.7118.042-5.9453 0-3.2542-.021-5.2776-.042-5.9444-.02-.5013-.208-.6466-.645-.8557l.021-.1046c.52.0423 1.186.0627 1.747.0627.5 0 1.207-.0204 1.707-.0627l.021.1046c-.416.1876-.625.3544-.645.8557-.021.6668-.042 2.6902-.042 5.9444 0 3.2335.021 4.8387.042 6.1956h.894c2.517 0 4.099-.2922 5.619-1.3773z" fill="#061931" fill-rule="evenodd"/><path clip-rule="evenodd" d="m161.42 97.0003c-1.498 0-3.288-.4793-4.182-1.2507l-.354-2.5874.167-.0622c1.102 2.211 2.892 3.0447 4.41 3.0447 1.769 0 3.017-.9383 3.017-2.6277 0-1.3557-.894-2.1283-3.37-3.2338-2.747-1.2304-3.87-2.211-3.87-3.9423 0-2.5031 1.997-3.7335 4.452-3.7335 1.561 0 2.914.3764 3.663 1.0225l.208 2.2533-.188.0622c-.832-1.8561-2.33-2.462-3.786-2.462-1.603 0-2.539.9179-2.539 2.0234 0 1.1478.707 1.8147 3.163 2.8575 2.621 1.1271 4.161 2.128 4.161 4.6311 0 2.6073-2.289 4.0049-4.952 4.0049z" fill="#061931" fill-rule="evenodd"/><path clip-rule="evenodd" d="m177.066 91.7447c-.977-2.1483-2.081-4.5903-2.746-5.9876-.687 1.4815-1.706 3.8597-2.622 5.9876zm5.306 4.8594-.021.1046c-.603-.0423-1.331-.0627-1.956-.0627-.623 0-1.518.0204-2.059.0627l-.021-.1046c.583-.2502.728-.4374.541-.8545-.208-.4805-.729-1.669-1.373-3.1085h-6.159c-.479 1.1259-.874 2.1064-1.145 2.7745-.291.7291-.166.9179.541 1.1885l-.021.1046c-.52-.0423-1.019-.0627-1.518-.0627-.52 0-.957.0204-1.436.0627l-.02-.1046c.395-.1249.811-.417 1.123-1.0213 1.769-3.5256 4.473-9.1999 6.034-12.8504h.291c1.373 3.0247 4.494 9.7415 5.971 12.6832.313.6042.812 1.0636 1.228 1.1885z" fill="#061931" fill-rule="evenodd"/><path clip-rule="evenodd" d="m196.604 83.003c-.396.1249-.811.4171-1.124 1.0225-1.768 3.5244-4.473 9.1983-6.033 12.8488h-.292c-1.373-3.0243-4.494-9.7415-5.972-12.6828-.311-.6046-.811-1.0636-1.227-1.1885l.021-.1046c.604.0419 1.456.0627 1.872.0627.417 0 1.603-.0208 2.143-.0627l.021.1046c-.582.2498-.728.4386-.54.8557.519 1.2304 3.308 7.3836 4.535 9.9913 1.165-2.5247 3.329-7.6351 4.141-9.6585.291-.7295.167-.9167-.541-1.1885l.021-.1046c.645.0419 1.228.0627 1.644.0627s.769-.0208 1.31-.0627z" fill="#061931" fill-rule="evenodd"/><path clip-rule="evenodd" d="m201.328 96.7075c-.499-.0419-1.207-.0627-1.727-.0627-.54 0-1.206.0208-1.727.0627l-.02-.1046c.436-.2079.624-.3544.644-.8541.021-.6684.042-2.7122.042-5.9457 0-3.2542-.021-5.2776-.042-5.9444-.02-.5013-.208-.6466-.644-.8557l.02-.1046c.521.0423 1.187.0627 1.727.0627.52 0 1.228-.0204 1.727-.0627l.021.1046c-.417.1876-.624.3544-.645.8557-.021.6668-.042 2.6902-.042 5.9444 0 3.2335.021 5.2773.042 5.9457.021.4997.228.6665.645.8541z" fill="#061931" fill-rule="evenodd"/><path clip-rule="evenodd" d="m218.764 83.003c-.416.1876-.623.3544-.644.8557-.084 1.3553-.125 2.6902-.125 5.9441 0 3.2338.021 5.7365.062 7.0918h-.603c-4.016-4.2966-7.802-8.2596-11.61-12.1396.083 1.3769.104 2.9413.104 5.0478 0 3.0247.083 4.5891.167 5.9456.02.5001.249.6669.644.8545l-.02.1046c-.396-.0423-.812-.0627-1.145-.0627-.312 0-.707.0204-1.207.0627l-.021-.1046c.437-.2079.625-.3544.645-.8545.083-1.3565.126-2.7118.126-5.9456 0-3.2539-.021-4.756-.043-5.3196-.02-.7495-.374-1.2304-.914-1.4802l.02-.1046c.708.0419 1.248.0627 1.582.0627.415 0 .832 0 1.248-.0208 3.911 4.2348 7.532 8.0102 10.216 10.7005-.041-1.1681-.062-2.8152-.062-3.838 0-3.0244-.084-4.5888-.167-5.9441-.021-.5013-.249-.6681-.645-.8557l.021-.1046c.395.0419.812.0627 1.144.0627.312 0 .708-.0208 1.207-.0627z" fill="#061931" fill-rule="evenodd"/><path clip-rule="evenodd" d="m236.596 90.7844c-.416.1876-.624.3544-.645.8557-.021.6465-.042 1.5018-.042 2.3359-1.31 1.8985-3.495 3.0243-5.992 3.0243-4.286 0-8.011-2.8371-8.011-7.1964 0-4.3797 3.725-7.1965 8.011-7.1965 2.06 0 4.203.6681 5.472 1.9612l.083 2.2109-.124.0419c-.978-2.0653-2.768-3.3583-5.431-3.3583-2.996 0-5.68 2.5234-5.68 6.3408 0 3.755 2.642 6.3408 5.68 6.3408 1.456 0 2.684-.3325 3.87-1.001 0-.8963-.021-2.8571-.042-3.5036-.02-.5013-.208-.6465-.644-.8557l.021-.1045c.52.0419 1.186.0626 1.726.0626.52 0 1.228-.0207 1.727-.0626z" fill="#061931" fill-rule="evenodd"/><path clip-rule="evenodd" d="m243.609 97.0003c-1.498 0-3.287-.4793-4.182-1.2507l-.354-2.5874.167-.0622c1.103 2.211 2.892 3.0447 4.411 3.0447 1.768 0 3.017-.9383 3.017-2.6277 0-1.3557-.895-2.1283-3.371-3.2338-2.746-1.2304-3.87-2.211-3.87-3.9423 0-2.5031 1.997-3.7335 4.453-3.7335 1.56 0 2.913.3764 3.662 1.0225l.208 2.2533-.188.0622c-.832-1.8561-2.33-2.462-3.786-2.462-1.602 0-2.538.9179-2.538 2.0234 0 1.1478.707 1.8147 3.162 2.8575 2.622 1.1271 4.161 2.128 4.161 4.6311 0 2.6073-2.288 4.0049-4.952 4.0049z" fill="#061931" fill-rule="evenodd"/><path clip-rule="evenodd" d="m260.629 89.6982c-.416 0-.873.0215-1.352.0842v.334c0 2.9198.021 4.964.062 5.8819.25.0203.52.0203.749.0203 3.121 0 4.203-1.2926 4.203-3.087 0-2.0234-.915-3.2334-3.662-3.2334zm-1.31-6.0694c-.021 1.2507-.042 2.6484-.042 5.3606 2.434 0 3.412-.8341 3.412-2.8779 0-1.6486-.79-2.4827-3.37-2.4827zm.957 13.1206c-1.061 0-2.539-.0423-3.808-.1046v-.1046c.395-.0626.624-.2921.645-.7918.021-.668.042-2.7122.042-5.9457 0-3.2538-.021-5.2776-.042-5.944-.021-.5013-.25-.7308-.645-.7934v-.1046c.916-.0407 2.309-.0623 2.642-.0623 3.226 0 5.847.9806 5.847 3.2131 0 1.6894-1.498 2.9825-3.704 3.087 3.059 0 5.369 1.1055 5.369 3.6082 0 2.294-2.518 3.9427-6.346 3.9427z" fill="#061931" fill-rule="evenodd"/><path clip-rule="evenodd" d="m276.588 91.7447c-.978-2.1483-2.081-4.5903-2.747-5.9876-.686 1.4815-1.706 3.8597-2.621 5.9876zm5.306 4.8594-.021.1046c-.604-.0423-1.332-.0627-1.956-.0627s-1.519.0204-2.06.0627l-.021-.1046c.583-.2502.729-.4374.541-.8545-.208-.4805-.728-1.669-1.373-3.1085h-6.159c-.479 1.1259-.874 2.1064-1.144 2.7745-.292.7291-.166.9179.541 1.1885l-.021.1046c-.52-.0423-1.019-.0627-1.519-.0627-.52 0-.957.0204-1.436.0627l-.02-.1046c.395-.1249.811-.417 1.123-1.0213 1.769-3.5256 4.474-9.1999 6.034-12.8504h.291c1.373 3.0247 4.495 9.7415 5.972 12.6832.312.6042.811 1.0636 1.228 1.1885z" fill="#061931" fill-rule="evenodd"/><path clip-rule="evenodd" d="m297.644 83.003c-.416.1876-.623.3544-.645.8557-.083 1.3553-.124 2.6902-.124 5.9441 0 3.2338.021 5.7365.062 7.0918h-.603c-4.016-4.2966-7.802-8.2596-11.61-12.1396.083 1.3769.104 2.9413.104 5.0478 0 3.0247.083 4.5891.167 5.9456.02.5001.249.6669.645.8545l-.022.1046c-.395-.0423-.811-.0627-1.144-.0627-.312 0-.707.0204-1.207.0627l-.021-.1046c.437-.2079.625-.3544.645-.8545.083-1.3565.126-2.7118.126-5.9456 0-3.2539-.022-4.756-.043-5.3196-.02-.7495-.374-1.2304-.914-1.4802l.02-.1046c.708.0419 1.248.0627 1.581.0627.416 0 .833 0 1.248-.0208 3.912 4.2348 7.533 8.0102 10.217 10.7005-.041-1.1681-.062-2.8152-.062-3.838 0-3.0244-.084-4.5888-.167-5.9441-.021-.5013-.249-.6681-.645-.8557l.021-.1046c.395.0419.812.0627 1.144.0627.312 0 .708-.0208 1.207-.0627z" fill="#061931" fill-rule="evenodd"/><path clip-rule="evenodd" d="m314 96.6448-.021.083c-.375-.0626-1.685-.083-2.102-.083-.395 0-2.205.0204-2.559.083l-.021-.083c.479-.1876.604-.5839.062-1.2304-.894-1.0428-2.413-2.7326-5.097-5.6739-.27.2498-.561.5212-.874.793 0 2.8152.021 4.5888.042 5.2149.021.4997.229.6669.645.8545l-.021.1046c-.499-.0423-1.207-.0627-1.726-.0627-.542 0-1.207.0204-1.728.0627l-.021-.1046c.437-.2079.625-.3548.645-.8545.021-.668.042-2.7122.042-5.9456 0-3.2539-.021-5.2777-.042-5.9441-.02-.5013-.208-.6466-.645-.8557l.021-.1046c.521.0419 1.186.0623 1.728.0623.519 0 1.227-.0204 1.726-.0623l.021.1046c-.416.1872-.624.3544-.645.8557-.021.6664-.042 2.6699-.042 5.8818 2.851-2.7326 4.661-4.5062 5.68-5.5901.562-.5839.52-1.0021.063-1.1474l.021-.1046c.562.0419 1.228.0623 1.643.0623.396 0 1.124-.0204 1.623-.0623l.021.1046c-.395.1249-1.123.4386-1.81 1.0225-1.373 1.2088-2.289 2.0018-4.869 4.3597 2.788 3.0866 5.243 5.7146 6.471 7.0292.562.6042 1.373 1.1055 1.769 1.2304z" fill="#061931" fill-rule="evenodd"/><g mask="url(#b)"><path clip-rule="evenodd" d="m74.9893 58.4811v5.4033h1.6652v-4.3349l23.1727-10.7225 24.9948 10.7381v4.3193h1.664v-5.4192l-26.6827-11.4652z" fill="#b8985f" fill-rule="evenodd"/></g><g mask="url(#c)"><path clip-rule="evenodd" d="m74.9893 65.2138h51.4967v-18.2138h-51.4967z" fill="#b8985f" fill-rule="evenodd"/></g><path clip-rule="evenodd" d="m124.824 83.8691v11.0976h-48.1676v-11.0976h-1.6652v12.767h51.4968v-12.767z" fill="#b8985f" fill-rule="evenodd"/><path clip-rule="evenodd" d="m96.4562 86.2868c-.1322.0527-.2062.1932-.1728.3316.0581.2427.1604.6123.289.8465.2042.3724.4084.5775.5665.5679.158-.0091.3901-.1209.6318-.5866.1178-.2275.404-.7192.4339-1.1446.0258-.366-.3611-.6162-.6816-.4382z" fill="#b8985f" fill-rule="evenodd"/><path clip-rule="evenodd" d="m97.6586 88.0524c-.0733.0718-.2719.2642-.2273.3572.0644.1353.1632.326.2738.4865.1875.2717.3436.5683.6967.3168.3531-.2514.5665-.5866.6779-.8476.0908-.2116.5725-1.9089.7496-2.5379.0367-.1297-.1277-.1704-.2575-.2063l-.6198.1081c-.2425.1082-.4041 0-.4582.2702-.1223.6138-.4045 1.6303-.8352 2.053z" fill="#b8985f" fill-rule="evenodd"/><path clip-rule="evenodd" d="m98.6286 89.5119s-.0493.2746.2158.5404c.2691.2702.5016.455.6071.4929.2818.1014.4498-.0375.5785-.3309.139-.3172.512-1.7288.701-2.4851.067-.271.242-1.1761.412-1.7812.027-.0965-.015-.1955-.101-.2462-.124-.0726-.306-.1876-.473-.3225-.125-.1009-.319-.0535-.355.1034-.831 3.678-1.5583 3.6509-1.5854 4.0292z" fill="#b8985f" fill-rule="evenodd"/><path clip-rule="evenodd" d="m106.197 86.2868c.132.0527.206.1932.173.3316-.058.2427-.161.6123-.289.8465-.205.3724-.409.5775-.567.5679-.158-.0091-.39-.1209-.632-.5866-.117-.2275-.404-.7192-.434-1.1446-.025-.366.362-.6162.682-.4382z" fill="#b8985f" fill-rule="evenodd"/><path clip-rule="evenodd" d="m104.995 88.0524c.074.0718.272.2642.228.3572-.065.1353-.164.326-.274.4865-.188.2717-.344.5683-.697.3168-.353-.2514-.566-.5866-.678-.8476-.091-.2116-.572-1.9089-.749-2.5379-.037-.1297.127-.1704.257-.2063l.62.1081c.242.1082.404 0 .458.2702.122.6138.405 1.6303.835 2.053z" fill="#b8985f" fill-rule="evenodd"/><path clip-rule="evenodd" d="m104.026 89.5119s.049.2746-.216.5404c-.269.2702-.501.455-.607.4929-.282.1014-.45-.0375-.578-.3309-.139-.3172-.512-1.7288-.701-2.4851-.067-.271-.243-1.1761-.412-1.7812-.027-.0965.014-.1955.101-.2462.123-.0726.306-.1876.472-.3225.125-.1009.32-.0535.355.1034.832 3.678 1.559 3.6509 1.586 4.0292z" fill="#b8985f" fill-rule="evenodd"/><path clip-rule="evenodd" d="m100.811 88.3762s.254-1.3565.485-1.3777c.296-.0271.485 1.1614.485 1.1614s.108.7834.245 1.2016c.131.3995.375 1.0137.375 1.0137s-.068.2638-.189.4594c-.121.1955-.167.2869-.372.3987-.204.1117-.594.1488-.864.0371-.269-.1117-.422-.2375-.575-.4382-.158-.2087-.199-.4027-.199-.4027s.272-.6178.609-2.0533z" fill="#b8985f" fill-rule="evenodd"/><path clip-rule="evenodd" d="m83.9269 64.0594c-1.4872.1693-4.5187 1.1119-4.5187 1.1119.084.2391.3651.5344.6879.6753.3225.1405.926.2813 1.4311.239.5056-.0419 2.9331-.6609 2.9331-.6609 1.0387-1.2387 1.6704-1.196 1.6704-1.196v-.3381s-.7161 0-2.2038.1688z" fill="#b8985f" fill-rule="evenodd"/><path clip-rule="evenodd" d="m73.9629 66.6204c.6879.8864 3.0318.9007 3.0318.9007.098-.0989.4626-.3663 1.221-.7878.7579-.4222 1.8244-.6397 1.8244-.6397-.4498-.176-.8284-.8944-.8284-.8944z" fill="#b8985f" fill-rule="evenodd"/><path clip-rule="evenodd" d="m72.054 67.0713c-.3507.0423-2.5681.5061-3.3539.6186-.7858.1134-2.0772.0284-2.5127.1273-.4348.0982-.6171.3373-.6171.3373.3647.2674 1.3049.7036 2.133.8305.828.1265 1.8945.0842 2.8208 0 .9264-.0846 2.639-.5492 3.4387-.7036.7998-.1553 2.5263-.5065 2.5263-.5065-.5052-.0566-1.2488-.2534-1.7122-.4218-.4634-.1696-.9964-.6617-.9964-.6617s-1.3754.3376-1.7265.3799z" fill="#b8985f" fill-rule="evenodd"/><path clip-rule="evenodd" d="m55.8988 68.1972c-.5051.0842-.7718.4497-.7718.4497.1409.2395.7022.4786 1.8666.7743 1.1652.2953 2.8774.4921 3.832.5627.9542.0698 3.0378.0946 4.5609-.0563 1.5203-.1508 3.3965-.5064 3.3965-.5064-.2667-.0284-1.4176-.1976-2.0633-.4362-.6453-.2395-1.2349-.718-1.2349-.718s-.5895.1265-1.9084.2391c-1.3201.1133-3.1159.1133-4.6035.0287-1.3245-.0758-2.326-.3512-2.8866-.3512-.0692 0-.1317.004-.1875.0136z" fill="#b8985f" fill-rule="evenodd"/><g mask="url(#d)"><path clip-rule="evenodd" d="m46.0332 68.0406c-.2524.5208.9968 1.1534 1.5856 1.4351.59.2818 3.3491 1.0628 6.3583 1.3789 3.2142.338 6.0629.6098 8.9156.5013 3.1787-.1218 5.3105-.4905 9.6258-1.2823 0 0-1.7556.0072-2.8503-.7387 0 0-1.8388.4226-2.8074.5631-.9681.1405-3.1433.338-4.2241.338-1.0804 0-2.6524-.0399-3.8455-.2243-1.1927-.184-3.2846-.6062-3.7894-1.2954 0 0-2.8209-.0986-3.8599-.2535-1.0382-.1548-3.1437-.6609-3.5788-.7175-.1915-.0252-.4622-.0715-.7265-.0715-.3356 0-.6616.0755-.8034.3668z" fill="#b8985f" fill-rule="evenodd"/></g><g clip-rule="evenodd" fill-rule="evenodd"><path d="m47.2543 70.4472c.0561.4789 1.0904.9438 2.1477 1.3649 1.0243.4082 1.7679.605 3.705.8728 1.9371.2674 4.2524.3655 6.4276.3372 2.1755-.0279 3.9944-.0231 6.0354-.2251 2.1469-.2119 5.8244-.8161 6.8069-.9849.9825-.1693 2.9192-.5632 2.9192-.5632s-.1688-.1963-.2245-.3093c0 0-1.221-.1404-1.7122-.5766 0 0-.2106-.2391-.379-.2251-.1684.0139-.7579.1967-1.8949.3943-1.1365.1967-3.3543.7072-6.035.9159-2.6807.2091-4.0283.1389-5.1226.1389-1.0944 0-4.1684-.2483-5.2353-.366-1.1875-.1305-4.7297-.5907-6.8344-1.2659 0 0-.6596.0139-.6039.4921z" fill="#b8985f"/><path d="m69.5555 72.5722c-2.3702.3915-4.8153.6297-7.2133.7179-2.4706.0906-4.9547.0703-6.1195 0-1.1652-.0706-2.8491-.2817-3.537-.3939-.6879-.1129-.7575.2315-.7018.4326.0561.2004.4777.6362.828.7914.3507.1545 1.5159.5344 2.3722.7459.8563.2108 2.4841.4638 4.0565.5061 1.5717.0423 3.9156-.0846 4.6875-.1692.7715-.0838 3.1438-.3369 4.6593-.6186 1.5155-.2814 5.3754-1.2097 6.0489-1.4212.674-.2107 3.0737-.9003 3.0737-.9003l-.1823-.2395s-1.123.178-2.0633-.6425c0 0-3.4821.791-5.9089 1.1913z" fill="#b8985f"/><path d="m75.4811 73.1556c-.8208.2582-1.8893.5958-3.3368.9602-1.4474.3639-3.5159.8181-4.7523 1.0021-1.2369.1852-3.0649.4083-3.8316.4434-.5689.0259-3.1159.1616-4.0685.1197-.9526-.0423-.9893.3289-.7847.524.2059.1952.7775.6721 2.1461.8409 1.3683.168 2.5259.1545 3.3117.1477.7867-.0072 2.8265-.3033 3.7899-.4925 1.5047-.2953 3.7802-.9626 4.4844-1.1821 3.4236-1.0692 6.8472-2.828 6.8472-2.828s-.9176-.1504-1.4379-.3863c0 0-1.5466.5918-2.3675.8509z" fill="#b8985f"/><path d="m79.8296 72.7648c-.3698.0076-.3794.0315-.5422.1058-.1628.0734-1.4873.7107-2.5104 1.1817-.9526.4382-2.3077.9562-3.1182 1.2519-.8105.2954-1.8149.6861-3.2106 1.0784-1.0338.2905-2.4216.6174-2.9972.7191-.8527.1513-1.537.212-1.7166.3165-.1783.1058-.1783.4334.2851.6126.4626.1792 1.8626.2942 3.1994.1369 1.4423-.1688 2.7472-.6014 3.9897-1.066 1.242-.4637 4.7261-2.1419 5.5366-2.5534.8105-.4118 3.5159-1.9838 3.5159-1.9838s-2.0585.1931-2.4315.2003z" fill="#b8985f"/><path d="m84.0166 71.9823c-.7421.3005-1.4053.5276-1.6211.6593-.2153.1321-1.4629.8967-2.0318 1.2403-.5685.3425-1.2154.7017-1.7365.9758-.5211.2742-1.7842.9499-2.4108 1.25-.6262.3013-1.3961.6565-1.9944.9027-.5872.2415-1.3575.5432-1.842.6969-.4845.1524-1.1708.3524-1.2556.6636-.0839.3121.2289.7128 1.1239.8082.8945.0946 2.0019-.2742 2.611-.512 1.1943-.4678 3.0323-1.4475 3.6151-1.8099.6373-.3959 2.4685-1.4822 3.4896-2.1316 1.0211-.6489 2.8933-1.9547 2.8933-1.9547s-.1178-.0583-.1142-.1525c.0075-.2011.205-.5571.3523-.7471s.5366-.6916.5366-.6916-.8734.5016-1.6154.8026z" fill="#b8985f"/><path d="m86.5034 72.8917c-.6317.1058-1.2301.0387-1.4156-.0263 0 0-1.6847 1.2344-2.2838 1.6618-.6007.4274-1.7416 1.1366-2.3475 1.5305-.5586.3628-1.967 1.3294-3.1736 1.9201-1.1919.5834-1.7739.8604-2.8264 1.1717-.3902.1149-.7898.2247-.879.4901-.0884.261.1759.4673.6314.5703.4757.1073 1.1843.174 2.3156-.2167 1.1314-.3903 3.3531-1.6092 3.8476-1.9045.4948-.2953 2.7102-1.7776 3.3578-2.2848.6477-.5065 2.4996-1.9675 2.6573-2.1052.1584-.1369 1.0744-1.1342 1.0744-1.1342s-.3264.2214-.9582.3272z" fill="#b8985f"/><path d="m85.703 74.6222c-.5155.4434-1.422 1.141-1.9737 1.5409-.5577.4051-1.6891 1.1881-2.2998 1.5576-.6103.3692-1.9793 1.1913-2.7368 1.5709-.7576.3799-1.4738.6281-1.6633.8281-.1895.2011-.1206.427.0156.5216.1373.095.2527.0419.4323 0 .1783-.0423.621-.2111 1.0947-.2642.4734-.0527.9467-.0738 1.1995-.0846 0 0 1.5947-.8688 2.3841-1.396.7898-.528 3.2636-2.2485 3.8316-2.6388.5685-.39 2.2317-1.6247 2.2317-1.6247s-.3579.2214-.8316.2741c-.4737.0531-.6107.032-.674-.0526-.0632-.0843-.0732-.6438 0-.9184.0741-.2741.1163-.5064.1163-.5064s-.6107.7499-1.1266 1.1925z" fill="#b8985f"/><path d="m85.2603 77.2291c-1.2261.8321-3.1226 2.1503-4.9654 3.1022 0 0 1.6967.322 1.9654.3695s1.3762-.5627 2.3396-1.1222c1.9757-1.1466 4.2531-3.1656 4.5903-3.4889 0 0-.5199.0487-.7161-.0706-.0916-.0559-.3647-.2554-.1123-1.2671 0 0-1.9721 1.7101-3.1015 2.4771z" fill="#b8985f"/><path d="m89.4913 76.0573s-1.6313 1.6562-2.8208 2.5115c-1.1895.8544-2.3686 1.6147-3.8424 2.2584 0 0 .9268.7276 1.9686.295 1.0422-.4326 2.2735-1.3294 3.0314-1.9835.758-.6549 2.4737-2.3958 2.4737-2.3958s-.1162-.6222 0-1.1394c0 0-.4383.358-.8105.4538z" fill="#b8985f"/><path d="m91.4187 76.7753c-.4634.2215-.9892.1166-.9892.1166s-1.9053 2.0577-3.211 3.0917c-1.3054 1.0341-2.4753 1.4663-2.4753 1.4663.1879.5595 2.4785.6493 3.0262.4701.547-.1792.4113-.3296 1.3376-1.0256.9264-.6969 2.045-2.1001 2.6449-2.7861.5999-.6856.7823-2.1767.7823-2.1767s-.6521.6222-1.1155.8437z" fill="#b8985f"/><path d="m93.443 77.4123c-.5056.3097-.7297.3153-.7297.3153s-.9434.8612-1.5083 1.5221c-.9152 1.0712-2.1449 2.4101-2.8699 3.0219-.4828.4079 1.344 1.7948 1.9941 1.2157.2424-.2163.6297-.8397.916-1.2699.3053-.459.662-.886 1.1588-1.7828.5422-.9794 2.7373-4.0356 2.7373-4.0356l-.3372-.4674c-.1959.4183-.8563 1.171-1.3611 1.4807z" fill="#b8985f"/><path d="m95.6807 76.2147c-.9913 1.3254-4.6696 7.2116-4.7859 7.4603-.0318.0674.0808.2973.4041.3783.6676.1672 1.6513.0044 1.9821-.6972.3141-.6649 3.1035-5.8375 3.0358-6.6824-.0032-.0383-.1994-.5823-.4431-.5819-.0621 0-.1274.0351-.193.1229z" fill="#b8985f"/><path d="m96.3673 77.8212c-.0514.1361-.5856 1.4579-.6358 1.5812-.418 1.0317-2.6441 4.9556-2.6441 4.9556-.1489.3452-.0418.3935.744.5064.5761.0826 1.2285.0527 1.6171-.6757 0 0 1.336-6.0051 1.3256-6.4693-.0012-.0642-.0681-.1979-.1636-.1979-.0709 0-.1569.0726-.2432.2997z" fill="#b8985f"/><path d="m107.298 76.1478s.839 1.173 1.381 2.1519c.497.8968 1.078 1.6479 1.59 2.2421.614.7128 1.251 1.9632 1.778 2.1073.84.2298 2.163-.5045 1.717-.9523-.738-.7395-.941-.8924-1.857-1.9627-.565-.6617-1.399-1.8873-1.399-1.8873s-.613.257-1.373-.4075c-.446-.3907-1.304-1.341-1.5-1.7596z" fill="#b8985f"/><path d="m97.0362 78.1704c-.01.4638-.2337 1.2635-.6919 3.6948-.4578 2.4313-1.4009 4.0792-.6736 4.133.4567.034 1.9403-.2159 2.0749-.9722 0 0 .4307-2.8726.539-4.9435.1616-1.513-.0721-1.9017-.1143-2.0286-.0183-.0547-.1102-.0144-.2464.0259-.1775.0519-.4299.1042-.6907-.0543-.0286-.0179-.0545-.0255-.0768-.0255-.076 0-.1182.0846-.1202.1704z" fill="#b8985f"/><path d="m112.067 77.1545c-.548.3054-1.516 0-1.516 0s1.782 2.3539 2.288 2.9306c.504.5771 1.137 1.3505 1.516 1.3928.378.0423.939-.1828 1.417-.4502.477-.2669.126-.5627-.141-.7762-.266-.2139-.448-.4621-.981-.9562-.534-.4937-2.373-2.5023-2.373-2.5023-.056.2949-.21.3615-.21.3615z" fill="#b8985f"/><path d="m112.278 76.5533s.562.5567.835.8229c.335.3285 1.157 1.1817 1.621 1.6251.463.4434 1.263 1.2384 1.41 1.3298.148.0918.589.3799.948.2395.234-.0922 1.094-.4295 1.094-.5612 0-.1321-1.263-.9235-2.178-1.641-.915-.7176-2.39-2.195-2.39-2.195-1.032-.0839-1.768-.5484-1.768-.5484.378.5061.428.9283.428.9283z" fill="#b8985f"/><path d="m114.116 76.1461c-.084.0986-.225.0562-.225.0562s.691.6637 1.053.971c.354.2998.983.8581 1.474 1.2097s1.881 1.2947 2.063 1.4072c.183.1125.492.1405.828.1125.337-.0279 1.277-.0702 1.473-.0985.197-.0276.212-.0982-.575-.5081-.785-.4091-3.621-2.6017-3.985-2.8683-.365-.2678-2.681-2.1954-2.681-2.1954.463.6194.659 1.8155.575 1.9137z" fill="#b8985f"/><path d="m114.369 74.7528c.267.1976 2.203 1.7173 2.624 2.0406s2.19 1.604 2.695 1.9272c.505.3241 1.936 1.1925 1.936 1.1925.295.01.955.1026 1.502.285.548.1835 1.067.5352 1.067.5352.12-.0847.197-.2954.197-.3948 0-.0981-.127-.2665-.379-.4254-.253-.1588-1.292-.6992-1.881-1.0233-.59-.3236-1.46-.858-1.965-1.1685-.505-.3101-2.092-1.3222-2.666-1.758-.576-.4362-1.713-1.6463-1.713-1.6463-.435.2674-2.035-.0846-2.035-.0846s.351.3241.618.5204z" fill="#b8985f"/><path d="m115.941 74.147s.982 1.1534 1.979 1.8426c.644.4462 2.779 1.8295 3.283 2.1264.506.2969 2.723 1.4906 3.356 1.7955.63.3061 1.487.6234 2.244.609.758-.014.955-.2813 1.039-.4218.084-.1413.169-.5775-.07-.7455-.239-.1692-2.049-.8445-3.049-1.2372-1.001-.3927-1.948-.8736-3.336-1.5772-1.391-.7036-2.443-1.4491-3.102-1.8997-.66-.4498-2.19-1.8291-2.277-1.9137-.087-.0842-.685-.1121-.685-.1121.421.605.618 1.5337.618 1.5337z" fill="#b8985f"/><path d="m116.319 72.7538s1.418 1.2663 1.713 1.4774 2.091 1.4072 3.031 1.8997 1.853.9706 2.723 1.3505c.87.3804 1.923.8301 2.933 1.224 1.011.3943 2.148.6194 2.667.4502.519-.1688.533-.7595.477-.9706s-.365-.4082-1.095-.5487c-.729-.1409-1.908-.3516-3.102-.7455-1.192-.3939-3.214-1.3091-4.533-1.9137-1.318-.6054-3.831-2.3638-3.831-2.3638.014.1828-.983.1405-.983.1405z" fill="#b8985f"/><path d="m117.366 72.4391s1.242.8441 2.19 1.4352c.947.5906 3.178 1.562 4.834 2.258 1.657.6968 3.733 1.1191 4.765 1.3506 1.032.2322 4.842.9714 5.495.866.652-.1058.968-.7391.779-1.1187-.19-.3799-1.853-.4011-3.621-.6617-1.769-.2598-3.685-.7099-5.789-1.2803-2.106-.5699-3.938-1.3928-4.632-1.7727-.695-.3804-1.831-.8018-2.505-1.0129s-1.874-.9499-1.874-.9499c.274.443.358.8864.358.8864z" fill="#b8985f"/><path d="m122.965 72.5014c-.716.3799-2.442.4011-2.442.4011 2.001.9706 3.937 1.7097 5.723 2.2369 1.784.528 5.056 1.1398 5.898 1.2451.842.1054 3.895.5911 6.168.8445 2.274.2527 3.306-.5699 3.495-.8021.19-.2327.442-.7811-.505-.823-.947-.0423-5.263-.338-6.695-.4434-1.431-.1053-4.105-.5068-5.578-.8025-1.474-.2946-4-1.2656-4.822-1.6563-.416-.1979-.729-.2466-.937-.2466-.202 0-.305.0463-.305.0463z" fill="#b8985f"/><path d="m125.912 72.4546c-.463.2282-1.41.1588-1.41.1588s1.305.542 2.737.9846c1.431.4433 4.168.9502 6.274 1.1817 2.104.2322 4.062.3803 5.599.4649 1.536.0842 3.895.0842 5.537-.1692s3.2-.9494 3.684-1.2029c.484-.2534.505-1.0129.147-1.1186-.357-.1054-1.726.2115-2.863.3795-1.137.1692-4.863.3592-6.547.3803-1.684.0212-4.526-.0634-6.211-.1899-1.684-.1269-4.589-.8022-5.368-1.0129-.278-.0754-.5-.1078-.691-.1078-.345 0-.59.105-.888.2515z" fill="#b8985f"/><path d="m149.723 70.7064c-1.158.2746-5.095.8026-7.053 1.0129-1.958.2115-4.547.2115-6.273.19-1.727-.0212-4.779-.4223-5.748-.633-.968-.2107-1.41-.1053-1.873 0-.463.1058-1.516.1058-1.748.1269-.231.0212-.189.3796-.189.3796s1.39.4434 2.484.6716c1.095.2283 3.2.6789 4.905.7847 1.706.1057 4.19.0423 5.558 0 1.369-.0424 3.853-.1473 5.726-.4007 1.874-.2535 3.327-.4646 5.053-.9199 1.726-.4554 2.589-1.2121 2.652-1.4232s-.105-.5695-.441-.5695c-.338 0-1.895.506-3.053.7806z" fill="#b8985f"/><path d="m151.85 68.0488c-.927.2112-5.39.5069-5.39.5069s-.379.1688-.99.506c-.61.3377-1.789.7392-3.116 1.0976-1.325.3591-4.462.4857-5.894.401-1.432-.0846-3.242-.3799-3.958-.5068-.716-.1261-1.536.0211-1.768.1696-.232.1473-.848.6118-.848.6118.015.2323 3.121.6757 5.331.8657 2.212.1891 6.211-.0432 7.706-.19 1.495-.1481 4.126-.528 5.6-.7814 1.473-.2535 3.474-.7807 4.379-1.0341s1.473-1.034 1.621-1.2029c.147-.1688.255-.591 0-.7602-.056-.0367-.169-.0523-.324-.0523-.553 0-1.625.2039-2.349.3691z" fill="#b8985f"/><path d="m144.06 68.0897c-.737.1265-2.674.2746-4.379.3799-1.705.1058-4.105-.1269-4.105-.1269-.505.6122-1.873.781-1.873.781-.358.4223-1.243.6965-1.243.6965 1.705.3164 4.611.6333 6.789.5276 2.18-.1058 3.358-.4642 4.853-.9076 1.495-.443 1.937-.9706 1.937-.9706-.274-.3747-.659-.4833-1.08-.4833-.29 0-.598.0515-.899.1034z" fill="#b8985f"/><path d="m125.281 67.6799s1.769.6434 2.968.9391c1.201.2949 2.779.3795 4.316.3372s2.169-.4007 2.4-.4853c.232-.0842.464-.2534.169-.4833-.295-.2303-1.39-.1923-2.674-.3077-1.284-.1165-4.211-.7287-4.211-.7287-1.199.9706-2.968.7287-2.968.7287z" fill="#b8985f"/><path d="m121.934 66.2754s1.831 1.0133 3.01 1.161c1.179.1481 1.916-.1477 2.358-.2534.442-.105.653-.2738.484-.3373-.168-.0634-4.8-1.3086-4.8-1.3086-.568.6964-1.052.7383-1.052.7383z" fill="#b8985f"/><path d="m118.46 65.3943c-.604.227-1.368.142-1.368.142s.968.6545 2.42.718c1.453.0627 2.401-.1692 2.8-.3592.401-.1899.401-.4641.379-.5276-.02-.0634-2.757-.8441-2.757-.8441-.569.0635-.843.633-1.474.8709z" fill="#b8985f"/><path d="m113.26 63.8069c-1.115.1265-1.937.696-2.547 1.414-.611.7172-.569 2.8068-.569 3.4398 0 .6333-.357 1.5828-1.179 2.0262-.82.4438-1.873.3169-2.157.2746-.284-.0424-.117.3164 0 .5068.116.1892.515.633 1.484.633.968 0 1.411-.3169 1.999-.6753.59-.3588 1.032-.9502 1.207-1.2879.176-.3372.183-.8022.183-.8022l-.463-.1265c.758.0423 1.263-.7594 1.495-1.2503.231-.4913.21-1.3454.21-1.3454l-.505-.1061s.653-.0415 1.123-.3161c.47-.2738.75-1.0341 1.235-1.2452.484-.2111 1.263.1477 1.895.3169.631.1688 1.642-.0635 2.021-.2534.379-.19.757-.6118.757-.6118-2.188-.5388-3.694-.6773-4.758-.6773-.605 0-1.067.0447-1.431.0862z" fill="#b8985f"/><path d="m101.534 61.5687c-.884.2746-1.8951.5914-2.7581 1.7097-.8627 1.1187-1.0104 2.575-1.0104 2.8703 0 .2957-.1473 2.385-.4 2.8284-.2524.4434.1261.3587.3789.1053.2528-.253.6943-1.6881.926-1.8785 0 0-.3157-1.7089.6111-1.9624 0 0-.0633-1.1394.8205-1.2878 0 0 .4.8868 1.221 1.1402.822.2526.842.6748 1.053 1.034.21.3588 1.263 1.6247 1.263 1.6247s-.19-2.1942 1.031-3.2286c1.221-1.0341 1.642-.8896 1.853-.8038.21.0862.442.4877.485.6769.036.1664.379-.295.42-.5069.043-.2103.169-.9917-.42-1.392-.59-.4015-.716-.3592-1.18-.3804-.463-.0211-1.41 0-1.41 0s-.211-.2111-.484-.3587c-.196-.1058-.889-.2982-1.591-.2982-.278 0-.558.0304-.809.1078zm-.548.8026c.821-.4223 1.558-.4434 2.295-.3169.737.1269.842.5064 1.116.5064.273 0 1.326-.148 1.853.0208.526.1692.862.7603.862.7603-.568-.5699-1.345-.5803-1.81-.4434-.926.2745-1.579 1.0763-1.516.5914.064-.4857-.357-.7391-1.052-.8237h-.004c.067.0806.109.1824.109.2953 0 .257-.208.4646-.463.4646-.256 0-.464-.2076-.464-.4646 0-.1225.049-.2326.126-.3157-.618.0455-.884.036-1.515.2527-.5783.1991-1.0381.4936-1.4521.8464 0 0 .9861-.8959 1.9151-1.3736zm-.232 1.1394c1.243 1.3932 2.675.338 2.675.338s-.464.6537-1.264.6753h-.024c-.788 0-1.387-1.0133-1.387-1.0133zm2.338 2.7549c.084-1.214.673-2.0577.673-2.0577-.577 1.8817-.442 2.5957-.442 2.5957-.189-.1058-.231-.538-.231-.538z" fill="#b8985f"/><path d="m86.5663 64.4609c.4001.3377 2.1266.886 2.6106 1.2871.4845.4011.8002 2.5115 1.2843 3.2295.4841.7171 1.0732 1.5616 1.2627 2.0677.1895.5068.6951 1.224 1.6636.7814.9678-.4434 1.2839-.3588 1.5789-.5492.2945-.1899.5895-.506.5895-.506s-1.6632.4007-2.4848 0c-.8205-.4011-.9893-.9922-1.0522-1.5828-.0633-.5915-.1895-2.5957-.8209-3.5037-.6321-.9075-1.2006-1.3297-2.0004-1.562-.7997-.2323-2.947-.2323-2.947-.2323s-.0844.2323.3157.5703z" fill="#b8985f"/><path d="m99.5343 65.3752c.1266.7092.295.5192.4847.3931.189-.1265.526-.5328.526-.7307 0-.198-.438-.6657-.526-.8525-.006-.0119-.015-.0171-.0273-.0171-.1266 0-.572.5619-.4574 1.2072z" fill="#b8985f"/><path d="m100.544 66.3077c.021.4538.569 1.1925.716 1.1925s.421-.5699.568-.9287c.147-.3584.106-.8018 0-.9917-.105-.19-1.052-.4646-1.052-.4646-.168.1972-.253.7388-.232 1.1925z" fill="#b8985f"/><path d="m99.0175 65.7154c-.084.1369-.2739.6438-.1051 1.2129.168.5699.4212.7391.5366.6968.1159-.0419.6-.4223.737-.8337.137-.4115.146-.876.063-1.0129 0 0-.242.2849-.495.2534-.2528-.0319-.3786-.6569-.3786-.6569s-.2731.2027-.3579.3404z" fill="#b8985f"/><path d="m99.6819 67.9115s-.3161.3484.5051 1.2663c0 0 .137.1057.453-.295.316-.401.41-.6333.399-.8656-.01-.2319-.287-.7491-.606-1.3082 0 0-.151.684-.7511 1.2025z" fill="#b8985f"/><path d="m101.924 67.035c-.159.3169-.495.688-.495.9139 0 .2255.147.5847.347.8593.2.2737.337.4426.452.4218.116-.0216.621-.5699.685-1.1713.063-.6015.011-.8657-.169-1.0868-.178-.2215-.516-.6653-.516-.6653s-.145.4119-.304.7284z" fill="#b8985f"/><path d="m98.8456 67.3306c-.1637.0419-.2696.2861-.3217.4386-.0533.1516-.2022.5523-.3583.9011-.2317.5192-.9996 1.2244-.9996 1.2244s.9371-.3484 1.4733-.8548c.5371-.5065.7684-.8549.7684-1.0021 0-.1481-.2051-.2423-.2946-.4059-.0418-.0766-.0948-.3057-.2329-.3057-.0104 0-.0219.0008-.0346.0044z" fill="#b8985f"/><path d="m98.7023 69.389c-.3678.2741-.4837.348-.3368.6756.1473.3269.3392.6853.4801.6853.141 0 .6883-.4326.9515-.6853.2639-.2534.4109-.5491.3689-.6545-.042-.1057-.2849-.1349-.6842-.9921 0 0-.4108.6964-.7795.971z" fill="#b8985f"/><path d="m101.039 68.7121c-.148.2112-.489.5911-.608.728-.119.1373-.164.348 0 .6014.165.2538.345.7918.544.7918.2 0 .61-.4434.737-.6437.126-.2004.305-.4961.295-.6757s-.413-.4007-.775-1.3186c0 0-.044.3057-.193.5168z" fill="#b8985f"/><path d="m102.939 68.7872c-.194.3061-.584.686-.647.7974-.063.1101.011.3847.168.5747.158.19.495.5699.706.538.21-.0316.558-.6118.621-.9814.063-.3692.21-1.0971-.621-1.6143 0 0-.033.3799-.227.6856z" fill="#b8985f"/><path d="m103.766 70.4329c-.221.3061-.558.5068-.558.6756 0 .1684.145.518.316.6753.174.1608.463.3803.621.3691.158-.0103.431-.3691.516-.6225.084-.2535.41-1.2556-.633-1.9464 0 0-.041.5432-.262.8489z" fill="#b8985f"/><path d="m104.998 70.9194c-.053.4114-.184.7702-.108 1.0025.076.2322.224.7072 1.024 1.1398.799.4326 1.304.5491 1.441.4957.137-.0523.222-.5169-.052-1.1183s-.684-1.0448-.937-1.2136c-.253-.1685-1.591-1.0341-1.591-1.0341s.275.3165.223.728z" fill="#b8985f"/><path d="m107.745 73.079c.224.4079.757 1.0129 1.838.7878 0 0 .112-.4502 0-.7319-.112-.2814-.338-.7827-.66-.9144 0 0-.716.1824-1.318-.0662 0 0-.085.5168.14.9247z" fill="#b8985f"/><path d="m109.232 72.1535s.491.5834.575.8808c.085.2973 1.152.5363 1.32.4378.168-.0982.252-.2291.267-.4378.014-.2092-.029-.7579-.169-1.0113-.14-.2535-.519-.732-.519-.732s-.575.613-1.474.8625z" fill="#b8985f"/><path d="m110.945 71.1939s.155.3516.548.5492c.393.1963 1.165.2945 1.375.2247.211-.0703.042-.6757-.112-.9144-.155-.2394-.421-.7107-.927-.862 0 0-.408.6908-.884 1.0025z" fill="#b8985f"/><path d="m112.727 68.5334c-.168.0706-.196.3472-.771.7571 0 0-.057.4246-.057.5375 0 .1122.351.3656.59.5204.238.1545 1.277.394 1.515.1545.239-.2387-.084-1.0831-.365-1.3645-.258-.259-.67-.613-.866-.613-.017 0-.032.0024-.046.008z" fill="#b8985f"/><path d="m113.177 66.8734s.111.6761-.281 1.4216c0 0 .336.2247.869.3097.534.0842 1.713-.0571 1.783-.3097.07-.2534-.267-.7738-.674-.9993-.394-.2179-1.103-.4227-1.645-.4227-.018 0-.035.0004-.052.0004z" fill="#b8985f"/><path d="m114.958 65.1147c-.225.1269-.366.1536-1.319 1.3924 0 0 .87.3101 1.838.1413.969-.1692 1.614-.6613 1.614-.7735 0-.1129-.505-.4222-1.025-.5775-.384-.1141-.684-.229-.905-.229-.078 0-.145.0139-.203.0463z" fill="#b8985f"/><path d="m116.629 66.5059s1.993.8876 3.424 1.169c1.432.2809 3.307.4246 4.836.075 0 0-2.309-.6944-3.152-1.3557 0 0-1.529.2251-3.101-.0563-1.131-.2027-1.296-.2957-1.3-.332-.084.0762-.406.3548-.707.5z" fill="#b8985f"/><path d="m122.158 68.2946s.323.1971.225.5064c0 0 1.291.4079 2.723.5911 1.431.1828 2.273.3799 3.831.4222 1.558.0419 2.844-.065 3.253-.1708.649-.1672 1.154-.5328 1.154-.5328s-1.095.1214-2.386.0675c-1.291-.0535-2.554-.2926-3.326-.4897-.772-.1968-2.526-.8018-2.526-.8018s-1.263.5061-2.948.4079z" fill="#b8985f"/><path d="m120.277 69.7256s1.376.4126 2.892.7646c1.516.3512 2.29.5324 3.592.619 1.264.0842 1.909.028 2.485-.1967.575-.2259 1.333-.9012 1.333-.9012s-1.375.0563-2.961-.0842-3.846-.5204-5.376-.8724c0 0-.702.4693-1.965.6709z" fill="#b8985f"/><path d="m114.564 66.8734s1.095.3804 1.194 1.238c0 0 .828.3241 1.586.2542.757-.0706 1.319-.2965 1.389-.4086.07-.1126-.154-.4801-.154-.4801s-1.572-.4762-2.175-.8421c0 0-.885.3787-1.84.2386z" fill="#b8985f"/><path d="m119.028 68.1246c-.098.2255-.954.5033-1.81.5033 0 0 .898.5802 1.797.7067.897.127 1.369.099 1.744 0 .375-.0981 1.062-.2997 1.175-.4805.111-.1803-.012-.518-.309-.6585 0 0-1.838-.2255-2.681-.5491 0 0 .183.2534.084.4781z" fill="#b8985f"/><path d="m117.428 70.2915s2.077.7459 2.961 1.056c.884.3085 2.653.7594 3.565.8556s2.106-.0822 2.4-.2798c.295-.1963.252-.5758.099-.6042-.155-.0287-2.4-.352-3.351-.5775-.95-.2247-2.474-.6613-2.965-.8157-.492-.1549-1.193-.2818-1.825-.5061-.632-.2251-1.6-.7323-1.6-.7323.519.5911.716 1.604.716 1.604z" fill="#b8985f"/><path d="m117.4 70.7563c-.098.0982-1.081.014-1.081.014s.814.6896 1.137.8413c.324.152.983.5379 1.923.7766.94.2395 1.852.2818 2.526.2255.674-.0559.997-.2818.884-.3835-.112-.1018-1.052-.3061-2.175-.6186-1.123-.3121-3.158-1.1526-3.158-1.1526s.042.1991-.056.2973z" fill="#b8985f"/><path d="m115.744 68.5248c-.379.1561-.99.3556-1.853.3293 0 0 .59.7435.527 1.2459 0 0 1.033.2379 1.59.3592s1.125.1948 1.209 0c.084-.1951-.442-1.3888-.674-1.6051-.183-.1704-.34-.3756-.586-.3756-.064 0-.135.014-.213.0463z" fill="#b8985f"/><path d="m114.226 70.7487c-.208.127-.914.095-1.33 0 0 0 .362.5217.384.8625 0 0 1.538.6729 2.506.781.969.1086 1.474.182 1.221-.4039-.252-.585-1.305-1.3848-1.305-1.3848l-1.326-.2558s.059.2741-.15.401z" fill="#b8985f"/><path d="m112.734 72.2301c-.526.0882-1.338-.2414-1.338-.2414.179.2689.223.6469.223.6469s.589.4777 1.115.7726c.527.2958 1.579.7815 2.25.8234.671.0423.571-.2535.466-.7372-.105-.4841-.466-1.0272-.466-1.0272-1.025-.259-1.807-.5883-1.807-.5883s.084.263-.443.3512z" fill="#b8985f"/><path d="m111.499 73.4951c-.048.0929-.363.2466-.66.1991-.504-.0818-1.01-.338-1.01-.338v.4537s.894.8026 1.379 1.145c.484.3425 1.189.6494 1.758.8074s.831.1058.831-.1369c0-.243-.358-1.4351-.642-1.6251-.284-.1904-1.547-1.0452-1.547-1.0452s-.011.3484-.109.54z" fill="#b8985f"/><path d="m107.568 73.8003s.92 1.4558 1.538 1.9942c.617.538 1.301 1.066 2.08 1.2029s.8-.091.832-.2039c.031-.113-.023-.809-.622-1.3578-.599-.5487-1.599-1.3824-1.599-1.3824s-1.401.3372-2.063-.6334c0 0-.014.2323-.166.3804z" fill="#b8985f"/><path d="m108.092 75.8583c.096.1473.356.433.916.9938.295.2961 1.026.8149 1.145.6377.254-.3827-.332-.7902-.56-1.0396-.198-.2155-1.743-1.6279-1.743-1.6279s.148.8879.242 1.036z" fill="#b8985f"/><path d="m106.13 74.527c.005.253.239.6014.562.8648.317.2578.632.37.737.1377.106-.2323.274-.7124.232-.9578-.042-.2458-.179-.5723-.558-.7307-.379-.1581-.737-.3469-.737-.3469s-.241.7795-.236 1.0329z" fill="#b8985f"/><path d="m104.166 75.7194c-.106.6015.231.9706.421 1.1606.189.19.378.4015.495.4015.115 0 .525-.2004.694-.5803.169-.3803.242-.7703.2-.9502-.042-.1792-.2-.5221-.2-.5221s-.158.2794-.326.3006c-.169.0207-.8-.7072-.8-.7072s-.379.2957-.484.8971z" fill="#b8985f"/><path d="m104.365 73.034c.042.2901.218.6277.204 1.0292-.014.4003.48.9383.691 1.0652.21.1265.421.0423.579-.3584.157-.4011.274-.7922.231-1.056-.042-.2634-1.295-1.3605-1.295-1.3605s-.452.3903-.41.6805z" fill="#b8985f"/><path d="m101.439 71.1718c-.021.2638 0 .7491.252 1.1083.253.3587.482.6437.578.6437s.601-.7595.643-1.161c.043-.4011.043-.6964-.084-.8337-.126-.1373-.715-.8021-.715-.8021s-.653.7814-.674 1.0448z" fill="#b8985f"/><path d="m98.9228 71.055c-.4944.2638.3053 1.3082.4005 1.4243.0943.1162.379.3277.631 0 .2527-.3272.7157-1.0129.7157-1.2455 0-.2319-.498-1.1498-.498-1.1498s-.7544.7072-1.2492.971z" fill="#b8985f"/><path d="m97.0501 70.4001c-.2949.4119-.5477 1.1506-.4526 1.6998.0944.5483.1895.5803.4733.4318.2843-.1469.895-.5907 1.2158-1.0077.3213-.4167.2683-.6485.174-.7755-.0952-.1269-.4634-.9809-.4634-.9809s-.6525.2215-.9471.6325z" fill="#b8985f"/><path d="m102.607 73.3244c-.263.3899-.253.5591-.116.9071.137.3488.59 1.2663.885 1.4986.294.2323.493.1269.615-.1161.122-.2427.411-.8545.372-1.3825-.04-.5272-.124-1.0975-.282-1.4032-.158-.3065-.874-1.0763-.874-1.0763s-.337 1.1821-.6 1.5724z" fill="#b8985f"/><path d="m100.67 72.0472c-.169.253-.579.8437-.7051.987-.1266.142-.2552.4481-.2489.6273.0064.1796.1856.6757.385 1.0137.2.3369.453.7703.632.8122.179.0423.653-.5595.821-.8337s.432-.789.411-1.0856c-.021-.2969-.243-.6836-.411-.9602-.168-.2761-.273-.6242-.326-.8033-.053-.1796-.116-.4267-.253-.4351l-.004-.0004c-.132 0-.134.4275-.301.6781z" fill="#b8985f"/><path d="m97.3861 72.7961s-.4132.8017-.2488 1.9735c0 0 .0482.6266.2173.7199.168.0922.7763-.4346 1.1776-.8572.4009-.4223.8853-1.1394.9594-1.2983.0732-.158.168-.3903.0521-.411-.1154-.0212-.328-.0112-1.0115-1.2668 0 0-.2834.5173-1.1461 1.1399z" fill="#b8985f"/><path d="m102.955 77.568c-.102.2542.814.2039.814.2039l.876.0128c.142-.0136.229-.1649.166-.2934-.169-.3524-.661-.9993-1.003-1.1334-.007-.0028-.015-.0044-.023-.0044-.208 0-.703.8952-.83 1.2145z" fill="#b8985f"/><path d="m102.113 74.168s-.074.4538-.4.8872c-.326.4322-.6.621-.547.8748.052.2538.4 1.0241.673 1.3513.274.3273.381.4338.56.4378.178.004.777-1.0496.851-1.2296.074-.1788-.021-.5583-.2-.7914-.179-.2319-.803-1.329-.833-1.4667-.014-.0658-.039-.083-.06-.083-.024 0-.044.0196-.044.0196z" fill="#b8985f"/><path d="m100.401 77.4415c-.025.1153.067.2247.185.2263l.749.0104c.158.0028.271-.1525.221-.3037-.126-.3772-.362-.9683-.613-.9683 0 0-.371.2144-.542 1.0353z" fill="#b8985f"/><path d="m98.1865 75.4032s.1366 1.1291.4737 1.6567c.3368.5276.6135.6253.9383.6609.3245.0355.8405-.8633.9355-1.1522.094-.2894.137-.7451.137-.7451s-.8213-.5783-1.2317-1.8977c0 0-.4212.8544-1.2528 1.4774z" fill="#b8985f"/><path d="m96.626 75.824s.0951.0439.0951.6242v.4079c0 .4669.2492.7989.715.8129.8097.0248 1.0099.0303 1.043-.2291.0215-.1736-.6338-1.8354-.6338-1.8354s-.2165.2498-.3849.2195c-.1688-.0299-.3225-.4314-.3225-.4314s-.3567.0718-.5119.4314z" fill="#b8985f"/><path d="m95.5267 71.1896c-.2034.2993-.3993.7778-.3854 1.242.014.4645.2341.4645.496.3799.2616-.0846.7807-.4925.7807-.4925s-.1875-.4921.2082-1.6881c0 0-.8961.2586-1.0995.5587z" fill="#b8985f"/><path d="m96.1235 73.6693c-.4069.6334-1.1362 1.4212-1.1362 1.6319 0 .2111.0418.5388.2524.8162 0 0 .5999-.5967 1.0545-.3796 0 0 .4383-.5571.672-.5635 0 0-.2034-.8716.1334-2.2505 0 0-.5685.1122-.9761.7455z" fill="#b8985f"/><path d="m95.3352 73.1074c-.1991-.0283-.2891-.1827-.2891-.1827s-.0871 0-.3065.1404c-.2177.1405-.5665.5911-.6373.9427-.0701.3516.2667.9004.3794.9287.1122.0283.3085-.0982.7575-.4925.4491-.3939.6457-.8868.8838-1.1677.2392-.2818.4538-.4219.4538-.4219l-.2146-.245s-.828.5256-1.027.498z" fill="#b8985f"/><path d="m93.9065 71.8123c-.449.1545-.7723.4259-.8563.7966-.0844.3716-.1122.7535-.0561.9702.0561.2175.2245.1609.5195.0763.2946-.0847.7297-.3517.926-.5484.1966-.1972.4737-.4514.4737-.4514s-.0944-.6453.1333-1.1302c0 0-.6914.1317-1.1401.2869z" fill="#b8985f"/><path d="m90.5939 72.4737c-.2102.9854 0 .9714.211.957.2106-.0139.9964-.0842 1.3893-.3655.3929-.2818.6875-.6897.6875-.8022 0 0-.6592.2255-1.4881-.9993 0 0-.5887.2251-.7997 1.21z" fill="#b8985f"/><path d="m89.1903 70.63c-.1971.267-.7584.7739.5473.8302 1.3054.0558 1.5574-.4079 1.5574-.4079-.1963-.5492-.9929-1.5621-.9929-1.5621-.3754.0423-.916.8725-1.1118 1.1398z" fill="#b8985f"/><path d="m88.7135 67.9979c-.5617.4362-.9264 1.0696-1.0669 1.2947-.1401.2251.0143.4502.9264.3939.9124-.0567 1.5254-.3939 1.5254-.3939-.58-1.1538-.5147-1.7867-.5147-1.7867s-.3089.0558-.8702.492z" fill="#b8985f"/><path d="m86.8184 66.2694c-.309.3241-.59.6896-.5757.9004.0139.2115.3651.4362 1.1931.4501.828.014 2.0911-.4222 2.0911-.4222s-.2523-.8441-.3929-1.0412c-.1405-.1968-.449-.4079-1.0664-.5627 0 0-.9403.3516-1.2492.6756z" fill="#b8985f"/><path d="m84.8672 65.5089s.2938.3377 1.3754.3233c1.0808-.014 1.5016-.4502 1.5016-.4502s-1.0677-.1668-1.5024-.884c0 0-1.1214.4055-1.3746 1.0109z" fill="#b8985f"/><path d="m83.66 66.5503c-.3647.2535-.6597.6613-.7576.7878-.0983.127.0139.3516.4351.4367.4208.0842 1.0526.1967 1.4455.0702.3929-.1269 1.0103-.8301 1.207-1.0129.1963-.1832.6592-.7383.6592-.7383h-.1819s-1.039-.1485-1.4041-.1485c-.3646 0-1.0378.352-1.4032.605z" fill="#b8985f"/><path d="m86.8328 67.9004c-.4908.0555-1.0247.2953-1.404.6038-.3786.3101-.5012.465-.6856.7463-.1839.2814-.5354.746.1808.8302.7161.0846 1.6278.0846 2.0629 0 .4355-.0842.6146-.2251.6146-.2251s-.4737-.0563-.3897-.366c.0844-.3093.449-1.0995 1.0947-1.5624 0 0-.5493-.0463-1.031-.0463-.1632 0-.3185.0055-.4427.0195z" fill="#b8985f"/><path d="m87.7734 70.145c-.6171.1058-1.0482.3165-1.3727.5556-.3252.2394-.8236.8828-.9713 1.0835-.1545.2111-.2381.5344-.1959.6893.0414.1552.7755.2534 1.1672.1544.3902-.0978 1.4781-.5056 1.8185-.8014.34-.2957.4948-.4362.4948-.4362s-.2193-.3093-.0744-.5208c.1449-.2107.7269-.9143.7269-.9143s-.9753.0842-1.5931.1899z" fill="#b8985f"/><path d="m88.9654 71.7421c-.3368.0698-1.1366.8436-1.4451 1.238-.3089.3939-.5342 1.1286-.4773 1.5405 0 0 .4204.1476 1.2631-.2323 0 0 .7015-1.4623 2.1469-2.5462 0 0-.5115-.0312-.9522-.0312-.2205 0-.4228.0076-.5354.0312z" fill="#b8985f"/><path d="m89.366 73.2749c-.3021.4363-.465.7883-.6222 1.2452-.1573.4574-.2217 1.0341-.1047 1.147.1162.1126.7615.1592 1.3376-.1668.5752-.3265 1.656-1.8454 1.656-1.8454s-.8845.263-1.1795.075-.1505-1.5385-.1505-1.5385-.6353.6473-.9367 1.0835z" fill="#b8985f"/><path d="m92.1234 73.4341c-.1402.1791-.4634.7566-.7301 1.115-.2663.3588-.6875.8796-.7289 1.133-.0422.2531-.0992.7316 0 .8302.0979.0981 1.199-.3193 1.8694-1.0109.6704-.6921.9936-1.4659.9936-1.4659s-.4072.0698-.6465-.0631c-.238-.1337-.238-.781-.238-.781s-.379.0627-.5195.2427z" fill="#b8985f"/><path d="m93.6397 74.3454s-.3814.7738-.6748 1.21c-.2934.4358-.4132.9287-.4307 1.147-.0175.2175-.0036.5416.1513.6398.1544.0985.7018-.1832 1.0947-.5771s1.0382-1.4771 1.0382-1.4771-.3089.1126-.4769.028c0 0-.5597-.4223-.5044-1.0836z" fill="#b8985f"/><path d="m84.8669 70.3691s-.4945.6334-1.9985.2746c0 0-1.6082.9527-4.6819 1.3202 0 0 .5649.4566 2.6314.3839 2.4888-.0882 5.5816-1.9787 5.5816-1.9787s-.7886.1054-1.5326 0z" fill="#b8985f"/><path d="m84.5975 68.3542c-.3993.4003-1.326.7806-1.5681 1.076-.2416.2957-.2949.7918-.16.8863.1354.0954.8543.19 1.2612.1609.406-.0292.4984-.2554.4984-.2554s-.4626-.2116-.4941-.348c-.0318-.1377.1155-.4223.2843-.7392.1684-.3168.5887-.6649.9892-.9386.4001-.2754.8981-.4857.8981-.4857l-.4136-.3277s-.8949.5699-1.2954.9714z" fill="#b8985f"/><path d="m80.292 69.0143s3.1373.7758 3.9056-.8489c0 0-.99-.0315-1.6954-.4857 0 0-1.4518.1361-2.2102 1.3346z" fill="#b8985f"/><path d="m82.8693 66.0938c-.3905.1341-1.1134.1501-2.5772.267-1.4626.1157-3.6728 1.6351-3.6314 1.8251.0422.1899 3.0948.496 3.9371-.1054.842-.6014 1.9578-.6437 1.9578-.6437.4734-1.2029 2.1266-1.6463 2.1266-1.6463l-.1891-.1967s-1.2325.3655-1.6238.5z" fill="#b8985f"/><path d="m73.545 68.5968c-1.2942.2745-3.2843.6968-3.2843.6968s3.2313 1.6969 9.2735-.6924c0 0-2.9785.1648-3.2002-.2579-.0689-.1321-.2409-.1831-.4841-.1831-.5354 0-1.4152.2482-2.3049.4366z" fill="#b8985f"/><path d="m73.5615 70.1378s.5307.5488 2.4045.5384c1.8742-.0108 5.6421-1.1482 5.6421-1.1482s-1.4526-.1708-1.5685-.2766c-.1154-.1053.0526-.601.0526-.601s-1.8527 1.1705-6.5307 1.4874z" fill="#b8985f"/><path d="m80.2183 70.1453c-.863.2462-1.8316.795-4.7683.8054 0 0-.1971.3799 1.0386.6437 1.2349.2642 3.2771-.1828 4.0768-.4135.8002-.2302 2.1477-.8105 2.1477-.8105s-.4844-.19 0-.9602c0 0-1.6317.4888-2.4948.7351z" fill="#b8985f"/><path d="m103.753 81.0368c0 .9167.477 4.054.398 4.3673-.08.3245-1.367-.0164-1.697-.2969-.254-.2155-.135-1.1075-.094-3.093.08-2.1479-.004-3.8549.157-3.8497 0 0 .271-.0814.677-.0307.53.0667.483.5603.508 1.1713" fill="#b8985f"/><path d="m98.6392 81.0368c0 .9167-.4765 4.054-.3981 4.3673.0809.3245 1.3671-.0164 1.6975-.2969.2544-.2155.1354-1.1075.0944-3.093-.0809-2.1479.003-3.8549-.1577-3.8497 0 0-.2707-.0814-.6772-.0307-.5294.0667-.4828.5603-.5079 1.1713" fill="#b8985f"/><path d="m106.56 76.1331c1.066 1.2655 5.079 6.9275 5.21 7.1689.035.0659-.064.3017-.382.4011-.657.2063-1.648.101-2.019-.5803-.352-.6453-3.437-5.6471-3.418-6.4944.001-.0387.165-.5931.409-.6066.061-.0036.129.0275.2.1113z" fill="#b8985f"/><path d="m105.967 77.7754c.059.1329.669 1.4212.726 1.5417.477 1.0053 2.927 4.7931 2.927 4.7931.168.336.064.3907-.714.5487-.57.1162-1.223.1242-1.653-.5802 0 0-1.682-5.9174-1.698-6.3811-.003-.0647.056-.2016.152-.2072.07-.0044.16.0631.26.285z" fill="#b8985f"/><path d="m105.219 78.1689c.037.4625.307 1.248.905 3.6485.598 2.4001 1.635 3.9905.912 4.0867-.454.0607-1.95-.1026-2.128-.8501 0 0-.597-2.8423-.824-4.9036-.249-1.501-.038-1.9025-.004-2.0318.015-.0559.109-.0208.247.0116.181.0415.436.079.687-.0946.028-.0196.053-.0283.075-.0295.076-.0048.123.0774.13.1628z" fill="#b8985f"/><path d="m100.623 78.0958.977.0152c.467.0076.627.5232.559.9866l-.364 5.6727c-.017.1169-.242.6485-.566.6078-.12-.0148-.404.081-.566-.4861-.089-.3141-.376-4.1618-.525-5.9162-.035-.4082.076-.8864.485-.88z" fill="#b8985f"/></g></g></svg>