<svg fill="none" height="144" viewBox="0 0 360 144" width="360" xmlns="http://www.w3.org/2000/svg" xmlns:xlink="http://www.w3.org/1999/xlink"><clipPath id="a"><path d="m60 47h240v50h-240z"/></clipPath><g clip-path="url(#a)"><path clip-rule="evenodd" d="m184.176 55.3711h7.108l-8.188 26.796c-.572 1.816-2.412 2.524-4.472 2.532-2.064-.008-3.904-.708-4.472-2.504l-4.172-14.52-4.164 14.492c-.572 1.816-2.412 2.524-4.472 2.532-2.068-.008-3.912-.716-4.48-2.528l-8.188-26.8h7.108l5.556 21.612 5.556-21.612h6.168l5.556 21.612zm22.2 8.892-.004-.004v.004zm-.004-.004v-2.772h6.44v22.216c-.868 1.544-5.656 1.384-6.44 0v-1.572c-1.044 1.004-2.956 2.604-6.024 2.604-7.192 0-11.076-5.992-11.076-11.632 0-6.512 4.888-11.42 11.372-11.42 2.908 0 4.72 1.564 5.728 2.576zm-5.068 14.776c3.268 0 5.64-2.468 5.636-5.864 0-3.804-2.836-5.792-5.636-5.792-3.736 0-5.752 3.06-5.752 5.936 0 3.208 2.528 5.72 5.752 5.72zm32.088-17.528h6.824l-12.604 33.084c-1.172 1.048-5.584-.636-5.844-2.244l3.432-9.028.048-.132-.056-.132-10.184-21.548h6.656l6.052 13.024.356.872.328-.884zm48.72.008c6.484 0 11.376 4.912 11.372 11.42 0 5.64-3.88 11.632-11.076 11.632-3.072 0-4.98-1.232-6.028-2.24v11.788c-.96 1.28-5.392 1.28-6.44 0v-32.768h6.44v2.38c1.012-1.008 2.824-2.212 5.732-2.212zm-.66 17.356c3.228 0 5.752-2.512 5.752-5.72 0-2.876-2.016-5.936-5.752-5.936-2.804 0-5.64 1.992-5.64 5.792 0 3.4 2.372 5.864 5.64 5.864z" fill="#001871" fill-rule="evenodd"/><path d="m83.12 93.1476c-3.316 0-6.352-1.864-7.852-4.824l-14.2-28.012c-2.2-4.336-.464-9.632 3.872-11.832 4.336-2.196 9.632-.464 11.832 3.872l6.34 12.504 6.62-13.104c2.192-4.34 7.488-6.08 11.824-3.888 4.34 2.192 6.08 7.488 3.888 11.824l-14.464 28.624c-1.496 2.96-4.532 4.828-7.852 4.832h-.008z" fill="#17d9ed"/><path d="m112.044 93.1475h-.008c-3.32-.004-6.352-1.872-7.848-4.832l-14.464-28.624c-2.192-4.34-.452-9.632 3.888-11.824s9.632-.452 11.824 3.888l6.62 13.1 6.34-12.504c2.196-4.336 7.496-6.068 11.832-3.872 4.336 2.2 6.068 7.496 3.872 11.832l-14.204 28.012c-1.5 2.96-4.536 4.824-7.852 4.824z" fill="#2470f5"/><path d="m105.469 51.8116-.012-.024c-.016-.032-.036-.068-.052-.1-.056-.104-.108-.208-.168-.312-.016-.032-.036-.06-.052-.092-.056-.096-.112-.192-.172-.284-.024-.036-.048-.072-.072-.112-.056-.084-.112-.168-.168-.248-.032-.044-.06-.084-.092-.128-.052-.072-.108-.144-.164-.216-.036-.048-.072-.092-.112-.14-.052-.064-.108-.128-.16-.192-.044-.048-.088-.096-.128-.144-.052-.056-.104-.116-.156-.172-.048-.052-.1-.1-.148-.152l-.152-.152-.168-.156c-.048-.044-.1-.088-.148-.132-.06-.052-.124-.104-.188-.156-.048-.04-.096-.076-.14-.112-.072-.056-.14-.108-.216-.16l-.132-.096c-.08-.056-.16-.112-.244-.164-.04-.024-.076-.052-.116-.076-.088-.056-.18-.112-.272-.164-.036-.02-.068-.04-.104-.06-.096-.056-.196-.108-.296-.16l-.096-.048c-.092-.048-.188-.092-.28-.132-.04-.02-.084-.04-.128-.06l-.144-.06c-.852-.356-1.7564-.58-2.6804-.656-.02 0-.036-.004-.056-.004-.104-.008-.204-.012-.308-.016-.044-.004-.092-.004-.136-.004-.076-.004-.152 0-.228 0h-.216c-.0479 0-.1.004-.152.008-.096.004-.1959.008-.292.016-.0239 0-.0479.004-.072.008-.908.076-1.796.296-2.636.644-.06.024-.116.048-.172.072-.036.016-.076.036-.112.052-.1.044-.196.092-.296.14-.028.016-.06.032-.088.048-.104.052-.204.108-.304.164-.032.02-.064.04-.1.056-.092.056-.1879.112-.2759.168-.0361.024-.0761.048-.1121.072-.084.056-.168.108-.248.168-.044.028-.084.06-.128.092-.072.052-.148.108-.216.164-.048.036-.0919.072-.14.112-.0639.052-.128.104-.192.16-.048.044-.096.088-.148.132-.056.052-.112.104-.172.156-.052.048-.1.1-.152.148l-.152.152-.156.168c-.044.048-.088.1-.132.148-.052.064-.108.124-.16.188-.04.048-.076.092-.112.14-.056.072-.108.144-.16.216-.032.044-.064.084-.096.128-.056.08-.1119.164-.1679.244-.024.036-.0481.076-.072.112-.0601.092-.1161.184-.1721.28-.016.032-.0359.064-.0559.092-.06.104-.1121.208-.1681.312-.016.032-.036.068-.052.1l-.012.024c-1.188 2.4-1.272 5.308.028 7.88l7.856 15.548 7.8564-15.548c1.312-2.572 1.228-5.48.04-7.88zm155.34 20.316c0 1.904-1.052 6.848-5.86 6.848-4.888 0-5.984-5.072-5.984-6.848v-16.9h-6.64v17.888c0 3.484 1.2 6.32 3.572 8.428 2.536 2.252 5.232 3.216 9.012 3.216s6.468-.96 8.988-3.216c2.356-2.104 3.552-4.94 3.552-8.428v-17.888h-6.64z" fill="#001871"/></g></svg>