<svg fill="none" height="144" viewBox="0 0 360 144" width="360" xmlns="http://www.w3.org/2000/svg"><path clip-rule="evenodd" d="m119.764 68.5893c0-11.0729 8.496-18.812 18.138-18.812 9.256 0 18.141 7.409 18.141 18.812 0 11.6873-9.411 18.7202-18.141 18.7202-9.092 0-18.138-7.3303-18.138-18.7202zm7.81-.0175c0 7.2494 5.157 11.9146 10.328 11.9146 4.971 0 10.328-4.4772 10.328-11.9146 0-7.2537-5.058-11.9714-10.328-11.9714-5.49 0-10.328 4.9254-10.328 11.9714zm131.107 4.6741v-23.4686h-7.812v23.4511c0 4.7702-3.944 7.258-7.439 7.258-3.496 0-7.485-2.5971-7.485-7.258v-21.877c0-.4175-.17-.8178-.474-1.113-.303-.2952-.715-.4611-1.144-.4611h-6.201v23.4686c0 8.6856 7.869 14.0636 15.304 14.0636 7.434 0 15.251-5.4283 15.251-14.0636zm10.142-.0853c-.013-1.0118.183-2.0157.575-2.9531.392-.9373.972-1.7892 1.707-2.5057.734-.7165 1.609-1.2831 2.571-1.6668.963-.3837 1.995-.5766 3.036-.5675 4.026 0 7.891 3.03 7.891 7.6931 0 4.7768-4.094 7.6516-7.891 7.6516-3.955 0-7.889-2.9951-7.889-7.6516zm7.889 13.7248c8.343 0 15.287-5.7606 15.287-13.6417 0-7.3871-6.578-13.8472-15.287-13.8472-3.052.0232-6.009 1.0347-8.404 2.8748-.133-.567-.46-1.0734-.927-1.4367-.467-.3632-1.047-.5619-1.645-.5636h-4.087v36.7276h7.122v-12.6579s2.959 2.5447 7.941 2.5447zm-63.664-21.0157c-2.838 0-5.281 2.2081-5.281 6.5236v14.1117h-7.123v-26.234h3.532c.596.0001 1.174.196 1.64.556.467.36.794.8629.93 1.4268 1.861-1.8119 4.381-2.8384 7.014-2.8573 7.608 0 11.691 4.5866 11.691 12.9968v14.1117h-5.501c-.43 0-.842-.1659-1.145-.4611-.304-.2952-.474-.6955-.474-1.113v-12.5376c0-4.0751-2.033-6.5236-5.283-6.5236zm-29.094 20.6352h6.07l7.893-26.234h-7.47l-4.196 16.4509-4.901-16.4509h-7.576l-4.606 16.4509-4.317-15.3031c-.094-.3325-.298-.6256-.581-.8345-.282-.2089-.627-.322-.981-.322h-6.176l8.017 26.234h7.396l5.212-17.3516 4.656 16.2104c.095.3309.299.6223.581.8299s.625.32.979.32z" fill="#1d1d1f" fill-rule="evenodd"/><g fill="#3e6d6a"><path d="m68.6871 59.4475c-.4317.3138-.6871.8152-.6871 1.3487v10.8548c0 .6814.7735 1.0751 1.3249.6743l17.0281-12.3783 17.028 12.3783c.551.4008 1.325.0071 1.325-.6743v-10.8548c0-.5335-.255-1.0349-.687-1.3487l-16.6847-12.1285c-.585-.4253-1.3776-.4253-1.9627 0z"/><path d="m92.1926 77.4576v7.5046h-11.6792v-7.5046c0-3.2236 2.6145-5.8369 5.8396-5.8369s5.8396 2.6133 5.8396 5.8369z"/></g></svg>