<svg fill="none" height="144" viewBox="0 0 360 144" width="360" xmlns="http://www.w3.org/2000/svg" xmlns:xlink="http://www.w3.org/1999/xlink"><clipPath id="a"><path d="m50 54h260v36h-260z"/></clipPath><g clip-path="url(#a)" fill="#455452"><path d="m310 71.5419c.042-.7624-.072-1.5253-.334-2.2422-.262-.7168-.666-1.3725-1.189-1.927s-1.153-.9962-1.852-1.298-1.451-.4575-2.212-.4575-1.513.1557-2.212.4575-1.329.7435-1.852 1.298c-.522.5545-.927 1.2102-1.189 1.927-.262.7169-.376 1.4798-.334 2.2422-.054.7738.053 1.5504.315 2.2803s.672 1.3971 1.205 1.9589c.532.5619 1.176 1.0062 1.889 1.3045.714.2983 1.481.4441 2.254.4281.981.0543 1.957-.171 2.816-.6499.859-.479 1.565-1.1921 2.038-2.0569l-1.568-.9643c-.238.6699-.688 1.2429-1.282 1.631-.593.3881-1.298.5699-2.004.5175-1.006.0183-1.979-.3621-2.708-1.0587-.728-.6967-1.154-1.6535-1.185-2.6631h9.387c0-.2368 0-.4229 0-.6429m-9.337-.7105c.064-.9591.489-1.8579 1.188-2.5145.7-.6566 1.621-1.0219 2.579-1.0219s1.879.3653 2.579 1.0219c.699.6566 1.124 1.5554 1.188 2.5145z"/><path d="m234.411 75.8396c-.539-.0092-1.07-.1303-1.561-.3555-.49-.2253-.928-.5499-1.288-.9534-.359-.4035-.631-.8773-.799-1.3915-.169-.5143-.229-1.0578-.178-1.5966-.051-.5388.009-1.0823.178-1.5966.168-.5142.44-.988.799-1.3915.36-.4036.798-.7282 1.288-.9534.491-.2252 1.022-.3463 1.561-.3555.716-.0236 1.423.1726 2.025.5625.602.39 1.072.9551 1.346 1.6198l1.685-.9812c-.492-.9045-1.226-1.6531-2.12-2.1613-.893-.5081-1.91-.7556-2.936-.7146-.77-.0085-1.533.1425-2.242.4436s-1.348.7458-1.878 1.3063-.939 1.2248-1.202 1.9512c-.262.7265-.373 1.4995-.324 2.2707-.049.7712.062 1.5442.324 2.2706.263.7265.672 1.3907 1.202 1.9513.53.5605 1.169 1.0052 1.878 1.3063s1.472.4521 2.242.4436c.986.0373 1.964-.1909 2.832-.6609s1.596-1.1647 2.106-2.012l-1.601-.9982c-.309.6245-.792 1.1455-1.39 1.4998-.599.3543-1.287.5268-1.981.4965"/><path d="m260.383 71.5419c.041-.7624-.072-1.5253-.334-2.2422-.262-.7168-.667-1.3725-1.19-1.927-.522-.5545-1.153-.9962-1.851-1.298-.699-.3018-1.452-.4575-2.212-.4575-.761 0-1.514.1557-2.212.4575-.699.3018-1.329.7435-1.852 1.298s-.927 1.2102-1.189 1.927c-.262.7169-.376 1.4798-.334 2.2422-.054.7666.051 1.536.308 2.2601.256.724.659 1.3871 1.183 1.9477s1.157 1.0066 1.86 1.3101c.704.3036 1.462.4581 2.227.4539.984.0536 1.962-.1719 2.823-.6506.862-.4788 1.571-1.1914 2.048-2.0562l-1.567-.9643c-.238.6595-.681 1.2246-1.264 1.6115-.583.387-1.274.5753-1.972.537-1.003.0182-1.972-.3633-2.696-1.0608-.723-.6976-1.142-1.6544-1.164-2.661h9.354c0-.2368 0-.4229 0-.6429m-9.337-.7105c0-1.005.398-1.9689 1.106-2.6795.708-.7107 1.668-1.11 2.669-1.11 1.002 0 1.962.3993 2.67 1.11.708.7106 1.106 1.6745 1.106 2.6795z"/><path d="m267.41 65.5703c-2.258 0-4.5.9305-4.853 3.3835l1.685.7105c0-1.6917 1.449-2.5714 3.135-2.5714 1.685 0 2.848.7274 2.848 2.0808 0 2.9436-7.989.1692-7.989 5.1767 0 2.1992 1.821 3.2143 3.927 3.2143.835.0527 1.667-.1421 2.392-.5602s1.312-1.0411 1.687-1.7913v2.1146h1.803v-8.1034c0-2.6052-2.241-3.6203-4.668-3.6203m2.865 6.9869c.002.4759-.095.9469-.286 1.3824s-.472.8257-.823 1.145c-.352.3193-.766.5606-1.217.7081s-.927.1979-1.399.1479c-1.432 0-2.41-.5921-2.41-1.7932 0-2.4192 4.146-1.6071 6.135-2.7406z"/><path d="m281.18 75.62v1.624h-5.443v-9.8289h-1.922v-1.6072h1.922v-3.3665h1.82v3.3665h3.623v1.6072h-3.623v8.2049z"/><path d="m283.691 60.7656h1.871v1.9286h-1.871zm0 5.0752h1.837v11.4869h-1.837z"/><path d="m291.444 77.2954-4.23-11.4868h1.904l3.59 10.1165 3.59-10.1165h1.904l-4.23 11.4868z"/><path d="m248.535 65.791v1.7763h-4.837v9.7106h-1.837v-11.4869z"/><path d="m69.5838 65.8418v7.1053h-5.9493v7.9511c-.0314.2072-.0139.4189.0512.618.0651.1992.176.3802.3236.5284s.3279.2594.5263.3248c.1984.0653.4093.0829.6158.0513h4.1965v7.1053h-11.0391c-.4962.043-.9956-.025-1.4625-.1989-.4669-.174-.8896-.4496-1.2377-.8071s-.6129-.788-.7755-1.2605-.2188-.9753-.1647-1.4722v-12.8402h-4.6684v-6.6316c6.0841 0 8.4268-3.5527 8.4268-9.4737h5.2077v9z"/><path d="m98.083 77.683c0 8.1879-5.6628 12.3158-12.8255 12.3158-7.1628 0-12.8425-4.1279-12.8425-12.3158 0-8.188 5.7977-12.3158 12.8425-12.3158 7.0447 0 12.8255 4.1278 12.8255 12.3158zm-16.7019 0c0 4.3646 1.4663 6.7669 3.9101 6.7669 2.4437 0 3.8257-2.453 3.8257-6.7669 0-4.6354-1.3651-6.9192-3.8257-6.9192-2.4607 0-3.9101 2.2838-3.9101 6.9192z"/><path d="m126.599 77.683c0 8.1879-5.663 12.3158-12.843 12.3158-7.179 0-12.842-4.1279-12.842-12.3158 0-8.188 5.815-12.3158 12.842-12.3158 7.028 0 12.843 4.1278 12.843 12.3158zm-16.719 0c0 4.3646 1.466 6.7669 3.927 6.7669s3.826-2.453 3.826-6.7669c0-4.6354-1.382-6.9192-3.826-6.9192s-3.927 2.2838-3.927 6.9192z"/><path d="m139.425 54h-8.966v35.5263h8.966z"/><path d="m161.318 65.3684c4.87 0 9.64 3.891 9.64 12.1805 0 8.5601-4.77 12.4511-9.64 12.4511-4.871 0-7.112-2.7068-8.023-7.3421v6.8684h-8.915v-35.5263h8.966v18.609c.91-4.5338 3.371-7.2406 8.022-7.2406m0 12.2651c0-4.0264-1.685-6.1579-3.91-6.1579-2.224 0-3.96 2.1315-3.96 6.2086s1.685 6.1579 3.91 6.1579c2.224 0 3.91-2.1316 3.91-6.1579"/><path d="m199.458 77.683c0 8.1879-5.663 12.3158-12.842 12.3158-7.18 0-12.826-4.1279-12.826-12.3158 0-8.188 5.798-12.3158 12.826-12.3158s12.842 4.1278 12.842 12.3158zm-16.702 0c0 4.3646 1.45 6.7669 3.91 6.7669 2.461 0 3.826-2.453 3.826-6.7669 0-4.6354-1.365-6.9192-3.826-6.9192-2.46 0-3.91 2.2838-3.91 6.9192z"/><path d="m212.536 83.8418-3.557 5.6842h-9.336l8.308-11.7068-8.258-11.9774h9.859l3.455 5.4981 3.287-5.4981h9.438l-8.208 11.5038 8.41 12.1804h-9.876z"/></g></svg>