<svg fill="none" height="144" viewBox="0 0 360 144" width="360" xmlns="http://www.w3.org/2000/svg"><g clip-rule="evenodd" fill-rule="evenodd"><path d="m114.744 32.4578c-5.195 5.3334-6.047 11.2411-2.424 16.8031 1.203 1.8465 1.402 2.9497.771 4.2645-.524 1.0916-1.226 1.5458-2.391 1.5458-1.87 0-2.714-1.6038-2.951-5.6034l-.141-2.3733-.892 1.9413c-2.681 5.8376-2.215 10.9041 1.362 14.8002 1.36 1.481 3.232 2.9049 2.993 2.2763-.329-.8639-.388-2.076-.141-2.8563.372-1.1716 1.184-1.983 2.682-2.6778 2.413-1.1194 4.306-2.8755 4.994-4.6334.14-.3564.383-1.2797.541-2.0518l.288-1.4038.545 1.7278c1.618 5.1283 1.29 8.7326-1.032 11.3238l-.811.9055.626-.1517c2.019-.4896 3.014-1.054 4.503-2.5544 3.813-3.8419 4.56-9.212 2.023-14.5465-1.2-2.5226-1.9-3.4715-4.822-6.5312-1.418-1.4848-2.833-3.1856-3.145-3.7795-.835-1.5898-1.117-3.3061-.949-5.7773.079-1.1582.065-2.1057-.032-2.1057s-.816.6559-1.597 1.4578zm-.603 36.4951c-1.573.0569-5.274.4724-5.71.6411-.22.085-.288.77-.288 2.9197v2.8087l.697-.1316c3.978-.7509 9.78-.7587 14.03-.0183l.696.1214v-2.7945c0-2.1376-.067-2.8204-.287-2.9054-.902-.3491-6.45-.7383-9.138-.6411zm3.169 2.8118.063 1.5657h-1.509-1.509v-1.4756c0-.8119.069-1.5449.152-1.6292.084-.0842.734-.1246 1.446-.0898l1.294.0631zm-4.668.0607c0 1.6945.071 1.622-1.777 1.8138l-1.241.1292.063-1.5687.063-1.5688.857-.1314c.471-.0724 1.122-.1452 1.446-.162l.589-.0306zm8.919-1.3025c.486 0 .506.0613.506 1.6217v1.6214l-1.232-.1278c-1.839-.1908-1.767-.1159-1.767-1.8422v-1.5479l.994.1374c.546.0756 1.221.1374 1.499.1374zm-8.437 5.2288c-1.09.0846-2.348.2532-2.795.3748l-.814.2206-.249 4.5929c-.137 2.526-.461 6.0507-.72 7.8324-.259 1.7818-.468 3.434-.463 3.6716.004.2375.562 1.6954 1.24 3.2395 1.508 3.4349 3.925 10.7305 4.74 14.3085 1.031 4.524 1.149 3.879 1.149-6.264v-8.9097l-.643-.6116c-1.313-1.2495-.567-3.3825 1.183-3.3825 1.051 0 1.581.3287 1.944 1.2051.266.6401.266.8372 0 1.4773-.168.4059-.507.8467-.752.9794-.442.2382-.447.3408-.447 9.196 0 7.361.052 8.955.289 8.955.193 0 .516-.972.985-2.969.909-3.88 2.849-9.7408 4.519-13.6605.735-1.7224 1.34-3.3745 1.346-3.6715.007-.297-.147-1.5604-.341-2.8077-.368-2.3673-.714-6.3221-.929-10.634l-.127-2.5351-.782-.212c-1.624-.4404-5.426-.6207-8.333-.3955z" fill="#28bde1"/><path d="m137.703 48.4939v1.0799h2.249 2.249v5.9392 5.9392h1.286 1.285v-5.9392-5.9392h2.356 2.356v-1.0799-1.0798h-5.89-5.891zm13.709 5.9501v7.0298l1.232-.0647 1.231-.0649.06-2.9696.06-2.9696h3.528 3.528v3.0236 3.0236h1.285 1.286v-7.0191-7.019h-1.286-1.285v2.9155 2.9157h-3.534-3.534v-2.9157-2.9155h-1.286-1.285zm16.065-.0109v7.0191h5.141 5.141v-1.0799-1.0798h-3.856-3.855v-1.9437-1.9438h3.32 3.32v-1.0799-1.0798h-3.32-3.32v-1.8358-1.8357h3.748 3.749v-1.0799-1.0798h-5.034-5.034zm-25.212 13.9272c-1.53.3278-2.778 1.2166-3.403 2.4219-.388.7486-.388 2.403-.001 3.1532.667 1.2932 1.574 1.796 4.754 2.6375.954.2524 2.044.6487 2.422.8807.6.3676.68.522.622 1.2055-.107 1.2634-.878 1.6923-3.028 1.6831-1.692-.0074-2.362-.2089-4.46-1.3427-.077-.0413-.311.3779-.52.9317l-.382 1.0064.52.3952c.989.7519 2.762 1.1766 4.912 1.1766 1.799 0 2.177-.0706 3.267-.6098 1.679-.8313 2.397-2.0174 2.256-3.728-.17-2.0646-1.26-2.938-4.732-3.7896-2.329-.5713-3.23-1.1331-3.321-2.0713-.139-1.4343 1.646-2.2365 4.008-1.8015.754.1389 1.655.4004 2.001.5812.347.1805.657.2969.69.2585.224-.2604.757-1.5095.757-1.7714 0-.8299-4.316-1.6556-6.362-1.2172zm79.921-.0039c-3.91.8417-6.337 4.4162-5.641 8.3085.61 3.4151 3.114 5.617 6.696 5.8893 1.793.1363 3.806-.3035 5.225-1.1417l.916-.5409v-2.7986-2.7986h-1.286-1.285v2.1707 2.1707l-.743.313c-.975.411-3.135.3993-4.137-.0224-1.8-.7581-2.822-2.3967-2.822-4.524 0-2.964 1.981-4.8684 5.049-4.8547 1.063.0048 2.643.5875 3.354 1.2366.364.3314.437.3029 1.182-.4588l.795-.8122-.824-.7277c-.453-.4004-1.272-.8848-1.821-1.0766-1.218-.4261-3.475-.5872-4.658-.3326zm-72.273 1.0868v1.0799h2.249 2.249v5.9391 5.9392h1.282 1.281l.057-5.8852.057-5.8852 2.303-.0613 2.303-.0614v-1.0724-1.0726h-5.891-5.89zm13.709 5.9182v7.04h1.285 1.285v-2.06-2.0603l1.858.0625 1.859.0624 1.371 1.9978 1.371 1.9976h1.402c1.354 0 1.392-.0146 1.108-.4277-2.643-3.8479-2.845-4.1834-2.576-4.2753.614-.209 1.832-1.4882 2.204-2.314.777-1.7235.348-4.275-.914-5.4447-.282-.2615-.993-.6965-1.581-.9667-.955-.439-1.472-.4996-4.87-.5715l-3.802-.0801zm15.69-.1332c-1.679 3.7726-3.052 6.9301-3.052 7.0163 0 .0863.565.1569 1.256.1569h1.256l.701-1.6198.7-1.6197h3.465 3.466l.643 1.5657.643 1.5659 1.325.0643c.728.0352 1.324-.0158 1.324-.1135 0-.1775-5.479-12.4759-5.968-13.3951-.222-.4174-.431-.4854-1.482-.4833l-1.225.0028zm11.127-5.7623.065 1.1024 2.249.0315 2.249.0312.057 5.8852.057 5.8852h1.282 1.282v-5.953-5.9532l2.249.068 2.25.0678-.001-1.1338v-1.1339h-5.902-5.902zm13.667 5.9165v7.019h5.248 5.248v-1.0798-1.0798h-3.963-3.963v-1.9438-1.9437h3.427 3.428v-1.0799-1.0799h-3.436-3.436l.062-1.7817.062-1.7818 3.802-.059 3.802-.0589v-1.0748-1.075h-5.14-5.141zm26.624-6.8571c.05.0889 1.26 2.1157 2.69 4.5037l2.602 4.3414v2.5157 2.5153h1.285 1.285v-2.3885-2.3889l2.79-4.6408 2.788-4.6406-1.334.0643-1.333.0644-1.938 3.2873c-1.065 1.8082-1.998 3.2901-2.072 3.2936-.074.0034-1.025-1.5002-2.114-3.3413l-1.979-3.3476h-1.379c-.759 0-1.339.073-1.291.162zm-59.418 2.5268c.87.4538 1.392 1.622 1.239 2.7735-.227 1.7069-1.358 2.3127-4.317 2.3127h-2.042v-2.8387-2.8386l2.211.1139c1.463.0751 2.448.2369 2.909.4772zm13.605 3.0228c.658 1.5373 1.196 2.8735 1.196 2.9692 0 .0956-1.109.1741-2.463.1741-1.58 0-2.464-.0814-2.464-.227 0-.1249.399-1.1697.887-2.3217.488-1.1521 1.024-2.421 1.191-2.8199s.338-.6904.381-.6476c.042.0428.615 1.3356 1.272 2.8729zm-40.145 15.2549c-3.156.3495-5.591 2.5771-6.214 5.6855-.639 3.1804.934 6.4127 3.814 7.8387 1.114.551 1.43.605 3.583.605 2.271 0 2.418-.029 3.856-.756l1.494-.756v-2.8077-2.8077l-1.232-.0647-1.231-.0649v2.262 2.262l-.696.217c-1.4.437-2.104.491-3.247.252-2.362-.494-3.845-2.3254-3.835-4.736.011-2.7723 1.698-4.6373 4.454-4.924 1.291-.1344 2.431.1724 3.604.9702l.815.5549.779-.7851c.764-.7708.771-.793.382-1.2267-1.095-1.2199-3.913-1.9854-6.326-1.7185zm29.609.0009c-2.522.3391-4.989 2.3029-5.752 4.5777-1.212 3.6096.334 7.3456 3.746 9.0506.845.422 1.328.497 3.242.498 1.982.002 2.389-.065 3.427-.562 3.087-1.476 4.701-4.9515 3.872-8.3347-.874-3.5673-4.478-5.7753-8.535-5.2296zm52.15.0184c-1.47.1973-3.572 1.2617-4.37 2.2133-.308.3662-.809 1.2003-1.114 1.8537-.463.9908-.554 1.4924-.55 3.0235.005 2.3272.547 3.6474 2.106 5.1344 1.543 1.472 2.727 1.885 5.386 1.882 1.9-.002 2.264-.067 3.213-.572.59-.314 1.297-.814 1.572-1.112l.5-.541-.822-.761c-.8-.7416-.833-.751-1.25-.369-1.218 1.115-2.999 1.493-4.69.998-1.382-.405-2.346-1.1623-2.917-2.291-1.744-3.4459.62-7.3357 4.457-7.3357.861 0 1.951.3956 2.761 1.0016.375.2806.766.5102.868.5102.103 0 .519-.3464.925-.7698l.739-.7699-.75-.6304c-1.473-1.2377-3.716-1.7798-6.064-1.4649zm14.122.0019c-3.766.5051-6.336 3.7144-6.083 7.5964.125 1.9265.798 3.3376 2.24 4.6976 1.489 1.404 2.689 1.814 5.317 1.814 1.927 0 2.26-.061 3.32-.609 2.52-1.301 3.906-3.519 3.938-6.2943.024-2.2277-.517-3.6125-1.993-5.1001-1.799-1.8134-3.934-2.4805-6.739-2.1046zm-85.867.0807c-.089.0929-.161 3.2625-.161 7.044v6.8753h1.277 1.277l.062-1.998.062-1.9977h1.817 1.818l1.39 1.9977 1.391 1.998h1.344c.739 0 1.343-.046 1.343-.102s-.67-1.052-1.49-2.214c-1.314-1.8614-1.447-2.1372-1.124-2.3277.201-.1187.765-.6204 1.254-1.1145 2.296-2.3224 1.424-6.278-1.683-7.634-.993-.4334-1.586-.5074-4.775-.5953-2.003-.055-3.714-.0243-3.802.0682zm30.978.2008c-.24.6282.067 9.4804.357 10.3221.38 1.1034 1.56 2.4484 2.639 3.0074.596.309 1.432.493 2.548.56 2.908.175 4.677-.667 5.836-2.78l.643-1.1708.071-5.1405.07-5.1408-1.249.0654-1.248.0652-.107 4.8595c-.119 5.3749-.217 5.785-1.583 6.605-.925.557-2.792.543-3.774-.028-1.418-.823-1.593-1.5393-1.679-6.847l-.075-4.6975h-1.164c-.83 0-1.199.0916-1.285.32zm15.771 6.6991v7.0194h1.286 1.285v-1.944-1.9438l1.553-.0017c3.557-.0037 5.659-.7582 6.752-2.4241.517-.7884.584-1.0936.584-2.6691 0-1.6289-.054-1.857-.644-2.7036-1.24-1.778-3.174-2.3401-8.085-2.3478l-2.731-.0044zm-24.148-4.5193c1.207.4144 2.601 1.8635 2.925 3.0389.929 3.3756-1.219 6.3818-4.594 6.4298-3.212.045-5.355-2.6144-4.767-5.9138.522-2.9276 3.49-4.5671 6.436-3.5549zm67.024.3405c.5.279 1.204.9287 1.561 1.4438.608.8721.653 1.0675.653 2.843 0 1.7708-.046 1.9723-.645 2.8313-1.791 2.5711-5.781 2.7221-7.765.2945-1.051-1.2859-1.37-2.9729-.891-4.7142.305-1.1039 1.725-2.6243 2.836-3.0383 1.226-.4555 3.091-.3063 4.251.3399zm-82.203-.1634c1.011.4256 1.414 1.1096 1.414 2.3986 0 2.078-.869 2.6549-4.088 2.7158l-2.231.0419-.06-2.7286-.06-2.7288h2.155c1.359 0 2.42.1112 2.87.3011zm47.057.1912c.972.6603 1.304 1.3583 1.192 2.5037-.068.6935-.27 1.1234-.762 1.6197-.661.6673-.7.6764-3.13.7482l-2.459.0725v-2.7182-2.7182h2.217c1.954 0 2.304.0585 2.942.4923zm41.892 8.5414c-.567.632-.46 1.867.209 2.397.69.547 1.383.571 1.982.07 1.188-.995.518-2.862-1.029-2.862-.51 0-.939.145-1.162.395z" fill="#000"/></g></svg>