<svg fill="none" height="144" viewBox="0 0 360 144" width="360" xmlns="http://www.w3.org/2000/svg"><path d="m168.673 65.2012h-3.862v16.9795h3.862z" fill="#003e70"/><path d="m192.285 70.2241c-.494-1.0785-1.174-2.003-2.008-2.8042-.742-.7088-1.638-1.2634-2.689-1.6332-1.02-.4006-2.256-.5855-3.647-.5855h-3.771c-1.39 0-2.627.1849-3.647.5855-1.019.4006-1.916.9553-2.688 1.6332-.866.7704-1.546 1.7257-2.009 2.8042-.495 1.0786-.742 2.2188-.742 3.4514 0 1.1094.185 2.1879.587 3.1432.371.9553.927 1.849 1.607 2.5885.773.8629 1.762 1.5408 2.875 2.0339 1.112.493 2.472.7396 4.017.7396h3.771c1.545 0 2.874-.2466 4.018-.7396 1.112-.4931 2.07-1.171 2.874-2.003.68-.7396 1.236-1.6333 1.607-2.5886s.587-2.0338.587-3.1432c0-1.2326-.247-2.4036-.742-3.4822zm-8.344 8.197h-3.771c-.927 0-1.699-.1232-2.349-.4006-.649-.2773-1.205-.6471-1.638-1.1093-.401-.4006-.71-.8937-.927-1.4484-.216-.5547-.34-1.1402-.34-1.7257 0-.6779.124-1.325.402-1.9105s.649-1.1094 1.082-1.5408c.432-.4006.958-.7088 1.545-.9553s1.329-.339 2.194-.339h3.802c.865 0 1.607.1233 2.194.339s1.113.5547 1.545.9553c.464.4314.804.9553 1.082 1.5408s.402 1.2326.402 1.9105c0 .6164-.124 1.2019-.34 1.7257-.216.5547-.525 1.0169-.927 1.4484-.433.4622-.989.8628-1.638 1.1402-.587.2465-1.391.3697-2.318.3697z" fill="#003e70"/><g fill="#4789c8"><path d="m240.313 65.5423c-.773-.493-1.731-.7396-2.874-.7396-1.205 0-2.164.2466-2.936.7396-.742.4931-1.36 1.2635-1.855 2.2804l-6.49 14.3293h4.482l.123-.339 1.051-2.4344h11.312l1.112 2.4961.124.3081h4.388s-6.49-14.2369-6.552-14.3293c-.494-1.0477-1.112-1.8181-1.885-2.3112zm-3.554 3.0816c.216-.1233.464-.1849.68-.1849.278 0 .525.0616.742.2157.216.1541.401.3698.525.6471l3.06 7.1185h-8.654l3.029-7.1185c.185-.3081.371-.5546.618-.6779z"/><path d="m267.911 65.2046h-4.543l-.031.0925c-.031.0924-.062.1849-.093.2465l-5.316 12.388c-.123.3081-.309.5238-.525.6779-.216.1233-.433.1849-.68.1849-.216 0-.433-.0616-.618-.1849-.186-.1541-.371-.3698-.495-.6471l-5.439-12.388c-.031-.0616-.124-.2773-.124-.3698h-.062-4.635s6.49 14.2061 6.552 14.3294c.927 2.0338 2.472 2.9891 4.759 2.9891 1.175 0 2.164-.2465 2.905-.7396.031-.0308.062-.0308.093-.0616.031 0 .062-.0308.062-.0308.742-.4622 1.329-1.2326 1.792-2.2187 0 0 5.625-12.388 6.46-14.2986z"/><path d="m274.773 68.9685h13.197v-3.7595h-15.885c-.618 0-1.082.1232-1.391.339-.526.2773-.742.7704-.742 1.5716v13.035c0 .8321.247 1.3867.773 1.6641.34.2465.772.339 1.36.339h15.916v-3.6055h-13.197c-.556 0-.927-.3698-.927-.9861l-.031-2.4344h14.032v-3.1741h-14.032l.031-2.0646c0-.5547.34-.9245.896-.9245z"/><path d="m287.938 59.6842c0-.0616 0-.154-.061-.2157-.062-.0616-.124-.0924-.186-.0924h-54.271-3.399c-1.731.0616-3.122 1.2326-3.709 2.6501-.062.1541-5.903 14.391-6.459 15.7161-.402.9553-.866 1.4175-1.515 1.4175-.432 0-.865-.1541-1.02-1.2018-.123-.8937-.556-15.1614-.556-15.3154-.154-1.1402-.556-1.9723-1.143-2.5269-.588-.5239-1.546-.8012-2.844-.8012-1.329 0-2.38.2773-3.121.8012-.742.5546-1.36 1.4175-1.855 2.6193 0 0-4.975 14.2369-5.223 14.8532-.247.678-.68 1.51-1.329 1.51-.494 0-.803-.4622-.865-1.171s-.402-15.0381-.402-15.0381c-.185-1.7257-1.452-3.4822-3.461-3.4822h-53.097c-.123 0-.278.1233-.309.2773v2.4961c0 .0925.031.1541.062.2157.031.0617.124.0925.186.0925l49.974-.0308c2.102 0 3.091 1.171 3.215 3.6054.123 2.0955.123 7.0876.185 11.8949.031 2.7426 1.916 4.6224 4.265 4.6532 1.978.0308 3.709-1.2018 4.451-3.1432 1.576-4.0677 5.964-15.8085 6.026-15.9318.309-.8936.835-.8936 1.02-.8936.186 0 .649 0 .742.8628 0 .1233.278 13.0351.463 14.8224.186 1.7873 1.638 4.2834 4.296 4.2834 2.287 0 4.018-1.2018 5.131-3.6055 1.112-2.342 6.305-14.2677 6.366-14.3909.742-1.51 1.607-2.1263 3.153-2.1571l54.981-.0309c.155 0 .279-.1232.279-.2773z"/></g><path d="m160.513 73.7949-.711-.3698.65-.4314c.927-.6472 1.576-1.6025 1.607-3.2665 0-.7088-.124-1.3251-.34-1.849-.217-.5546-.526-1.0169-.897-1.4175-.958-1.0169-2.318-1.5408-4.079-1.5408h-12.888c-.618 0-.742.2157-.742.6472l.031 15.4695c0 .493.402.9245.927.9245h12.95c.989 0 1.823-.1541 2.503-.4315.649-.2773 1.206-.6779 1.607-1.171.371-.4314.649-.8936.835-1.4175.185-.5239.309-1.0477.309-1.6332-.031-1.6025-.804-2.8967-1.762-3.513zm-13.506-4.8073c0-.5239.34-.8628.835-.8628h8.035c.402 0 .742.0616 1.02.1849.248.1232.495.3081.68.5238.278.339.433.7396.433 1.171s-.155.8321-.433 1.171c-.185.2466-.432.4006-.68.5547-.278.1233-.618.1849-1.02.1849h-8.87zm10.632 9.2447c-.185.2158-.433.3698-.711.4931s-.618.1849-1.051.1849h-8.004c-.526 0-.835-.339-.835-.8629v-3.1123h8.87c.433 0 .773.0616 1.051.154.278.1233.526.2774.711.4931.34.4006.525.832.525 1.2942-.061.4931-.247.9553-.556 1.3559z" fill="#003e70"/><path d="m125.911 75.1289v15.0381c0 3.9136-3.154 7.0876-7.043 7.0876h-36.1078c-3.8895 0-7.0439-3.174-7.0439-7.0876v-15.0381h-4.7163v15.0381c0 6.533 5.2676 11.833 11.7602 11.833h36.0768c6.493 0 11.76-5.3 11.76-11.833v-15.0381z" fill="#4789c8"/><path d="m75.7163 69.2103v-15.377c0-3.9136 3.1544-7.0877 7.0439-7.0877h36.0768c3.889 0 7.044 3.1741 7.044 7.0877v15.377h4.716v-15.377c0-6.533-5.267-11.8333-11.76-11.8333h-36.0768c-6.4926.0308-11.7602 5.3311-11.7602 11.8641v15.3771h4.7163z" fill="#4789c8"/><path d="m87.8549 86.2804c-1.298 0-1.9779-.6471-1.9779-1.8797v-24.7451c0-1.2326.649-1.849 1.9779-1.849h20.7691c1.669 0 3.09.2466 4.203.7704 1.113.4931 2.04 1.2327 2.751 2.1263 1.143 1.4175 1.73 3.1124 1.73 5.1154 0 1.2943-.371 2.5269-1.081 3.6979-.68 1.1094-1.608 1.9414-2.72 2.4345 1.329.5855 2.318 1.4791 2.998 2.681.68 1.2326 1.051 2.6193 1.051 4.1293 0 .8012-.155 1.5716-.433 2.2803-.278.7396-.68 1.4176-1.144 2.0647-.711.9245-1.638 1.6949-2.812 2.2495-1.144.5855-2.689.8629-4.543.8629h-20.7691zm3.0597-5.3619c0 .4622.2164.6779.7109.6779h16.1635c.958 0 1.731-.1232 2.287-.4006.557-.2465.989-.5855 1.36-1.0169.556-.678.804-1.4792.804-2.3728 0-.9245-.278-1.7257-.866-2.3728-.34-.3698-.803-.7088-1.36-.9553-.556-.2465-1.298-.4006-2.225-.4006h-16.8744zm16.9364-11.0013c.927 0 1.7-.154 2.256-.4314.557-.2773.989-.6471 1.298-1.1093.433-.6472.649-1.3559.649-2.0955 0-.8629-.278-1.6641-.834-2.342-.309-.3698-.742-.7088-1.267-.9553-.495-.2465-1.206-.4006-2.133-.4006h-16.2564c-.4945 0-.7108.2157-.7108.6779v6.6562z" fill="#003e70"/></svg>