<svg fill="none" height="321" viewBox="0 0 321 321" width="321" xmlns="http://www.w3.org/2000/svg" xmlns:xlink="http://www.w3.org/1999/xlink"><clipPath id="a"><path d="m0 0h321v321h-321z" transform="matrix(-1 0 0 1 321 0)"/></clipPath><mask id="b" height="321" maskUnits="userSpaceOnUse" width="321" x="0" y="0"><path d="m0 0h321v321h-321z" fill="#fff"/></mask><g clip-path="url(#a)"><g mask="url(#b)"><path d="m263.81 274.54c5.901 0 10.694-4.792 10.694-10.694 0-40.666-28.219-61.303-29.436-62.161-4.256-3.04-10.086-2.575-13.769 1.144l-28.506 28.506c-3.684 3.684-4.185 9.514-1.144 13.77.858 1.216 21.495 29.435 62.161 29.435zm-206.6562-228.0439h49.7502c25.859 0 50.395 10.6583 68.206 28.5055h19.993c17.526 0 33.978 8.6196 43.957 23.0333l19.313 27.8971c2.254 3.255 2.54 7.511.68 11.052s-5.508 5.723-9.478 5.723h-35.73l8.87 18.276c4.649 9.55 2.718 20.995-4.793 28.506l-28.434 28.434c-4.793 4.792-11.159 7.296-17.668 7.296-3.684 0-7.404-.823-10.873-2.504l-18.277-8.87v35.731c0 3.97-2.217 7.618-5.722 9.478-1.574.822-3.255 1.216-4.972 1.216-2.146 0-4.256-.644-6.08-1.896l-27.8974-19.314c-14.4137-9.978-23.0333-26.395-23.0333-43.956v-19.993c-17.8473-17.812-28.5055-42.347-28.5055-68.206v-49.7149c0-5.9014 4.7926-10.694 10.694-10.694zm60.5872 99.7869c15.702 0 28.506-12.804 28.506-28.505 0-15.702-12.804-28.5058-28.506-28.5058-15.701 0-28.5051 12.8038-28.5051 28.5058 0 15.701 12.8041 28.505 28.5051 28.505z" fill="#5484ff"/></g></g></svg>