<svg fill="none" height="321" viewBox="0 0 321 321" width="321" xmlns="http://www.w3.org/2000/svg" xmlns:xlink="http://www.w3.org/1999/xlink"><clipPath id="a"><path d="m0 0h321v321h-321z"/></clipPath><mask id="b" height="321" maskUnits="userSpaceOnUse" width="321" x="0" y="0"><path d="m321 0h-321v321h321z" fill="#fff"/></mask><g clip-path="url(#a)"><g fill="#5484ff" mask="url(#b)"><path d="m187.306 108.658v.429c0 2.754-1.86 5.186-4.542 5.83-32.583 7.797-58.227 33.37-66.131 65.917-.644 2.682-3.076 4.542-5.83 4.542s-5.186-1.86-5.83-4.542c-7.9044-32.547-33.5487-58.12-66.0958-65.917-2.6824-.644-4.5422-3.076-4.5422-5.83v-.429c0-2.754 1.8598-5.186 4.5422-5.83 32.5829-7.8326 58.2271-33.4053 66.1318-65.9166.643-2.6824 3.075-4.5423 5.829-4.5423s5.187 1.8599 5.83 4.5423c7.905 32.5113 33.585 58.1198 66.132 65.9166 2.682.644 4.542 3.076 4.542 5.83z"/><path d="m288.56 168.531v.322c0 2.074-1.395 3.898-3.434 4.399-24.5 5.866-43.813 25.108-49.751 49.572-.5 2.003-2.324 3.397-4.399 3.397-2.074 0-3.898-1.394-4.399-3.397-5.937-24.464-25.215-43.706-49.715-49.572-2.038-.501-3.433-2.325-3.433-4.399v-.322c0-2.075 1.395-3.899 3.433-4.399 24.5-5.866 43.778-25.108 49.715-49.572.501-2.003 2.325-3.398 4.399-3.398 2.075 0 3.899 1.395 4.399 3.398 5.938 24.464 25.251 43.706 49.751 49.572 2.003.5 3.434 2.324 3.434 4.399z"/><path d="m174.502 245.714v.25c0 1.609-1.073 3.04-2.646 3.398-18.992 4.542-33.942 19.456-38.556 38.448-.394 1.574-1.789 2.647-3.398 2.647s-3.04-1.073-3.398-2.647c-4.614-18.956-19.564-33.906-38.5556-38.448-1.5737-.358-2.6466-1.789-2.6466-3.398v-.25c0-1.61 1.0729-3.04 2.6466-3.398 18.9916-4.542 33.9416-19.457 38.5556-38.449.394-1.573 1.789-2.646 3.398-2.646s3.04 1.073 3.398 2.646c4.614 18.956 19.564 33.871 38.556 38.449 1.573.393 2.646 1.788 2.646 3.398z"/></g></g></svg>