<svg fill="none" height="321" viewBox="0 0 321 321" width="321" xmlns="http://www.w3.org/2000/svg" xmlns:xlink="http://www.w3.org/1999/xlink"><clipPath id="a"><path d="m0 0h321v321h-321z"/></clipPath><mask id="b" height="321" maskUnits="userSpaceOnUse" width="321" x="0" y="0"><path d="m321 0h-321v321h321z" fill="#fff"/></mask><g clip-path="url(#a)"><g fill="#fe7f4a" mask="url(#b)"><path d="m92.8485 112.127c9.4785-7.833 25.8945-25.9666 14.0205-51.2174-1.538-3.2547-6.259-3.7197-8.5125-.8584-7.1175 9.0131-18.8487 27.9333-13.5911 49.6428.8226 3.398 5.2934 4.757 8.0831 2.433z"/><path d="m238.595 94.6738c2.647-14.5926-4.363-27.3253-9.585-34.4427-2.253-3.0759-7.296-2.5394-8.691.9299-6.867 16.9889 2.897 29.5785 9.979 35.9806 2.861 2.5752 7.654 1.1803 8.333-2.4678z"/><path d="m232.765 246.715c16.131-15.845 26.074-37.197 26.074-60.695 0-22.211-7.976-44.922-15.201-60.946-2.754-6.116-12.268-5.4-14.02 1.002-1.574 5.758-3.255 9.192-3.255 9.192-18.562-61.1245-58.978-81.5469-81.904-88.3066-6.974-2.0745-13.913 3.362-12.876 10.086.68 4.3992 1.002 9.7999.465 15.9159-.179 2.1101-.5 4.3276-.93 6.6167-.143.7511-.357 1.5379-.5 2.3248-.394 1.7525-.859 3.5408-1.395 5.3649-.286.9299-.572 1.8598-.894 2.7897-.644 1.8598-1.395 3.7912-2.218 5.7226-.393.8941-.715 1.7525-1.144 2.6824-1.324 2.8256-2.79 5.7226-4.578 8.6916-6.796 11.302-11.303 20.994-14.271 28.97-6.581 17.561-5.794 26.825-5.794 26.825s-6.0804-7.297-9.7285-19.099c-.7511-2.433-2.611-3.971-4.7212-4.614-.7153-.215-1.4664-.322-2.2175-.358-.751 0-1.5021.072-2.2174.25-2.1818.573-4.0774 2.039-4.9715 4.4-1.073 2.932-2.1102 6.08-3.0759 9.406-2.8613 9.907-5.0072 21.245-5.0072 33.084 0 48.892 42.6692 88.521 95.2802 88.521 3.362 0 6.653-.179 9.943-.501 1.073-.107 2.111-.322 3.184-.465 2.181-.286 4.327-.537 6.473-.966 1.252-.25 2.432-.572 3.648-.858 1.896-.429 3.792-.859 5.616-1.395 1.251-.358 2.467-.823 3.683-1.252 1.753-.608 3.506-1.144 5.222-1.86 1.216-.5 2.397-1.073 3.613-1.609 1.645-.751 3.29-1.467 4.864-2.253 1.18-.608 2.289-1.288 3.433-1.932 1.538-.858 3.041-1.717 4.507-2.682 1.109-.716 2.146-1.502 3.219-2.254 1.395-1.001 2.825-1.967 4.185-3.04 1.037-.822 2.002-1.681 3.004-2.539 1.287-1.109 2.575-2.218 3.791-3.398.286-.286.644-.536.93-.822-.036 0-.072 0-.107 0z"/></g></g></svg>