<svg xmlns="http://www.w3.org/2000/svg" width="72" height="72" fill="none"><g clip-path="url(#a)"><rect width="72" height="72" fill="#2965FF" rx="36"/><mask id="b" width="72" height="72" x="0" y="0" maskUnits="userSpaceOnUse" style="mask-type:luminance"><path fill="#fff" d="M72 0H0v72h72z"/></mask><g fill="#fff" mask="url(#b)"><path d="M20.826 25.15c2.126-1.757 5.808-5.825 3.145-11.488-.345-.73-1.404-.835-1.91-.193-1.596 2.022-4.227 6.266-3.048 11.135.184.762 1.187 1.067 1.813.546M53.517 21.235c.594-3.273-.979-6.129-2.15-7.725-.505-.69-1.636-.57-1.95.208-1.54 3.81.65 6.635 2.24 8.07.64.578 1.716.265 1.868-.553z"/><path d="M52.21 55.338c3.617-3.554 5.847-8.344 5.847-13.614 0-4.982-1.788-10.076-3.409-13.67-.618-1.372-2.752-1.212-3.145.224-.353 1.292-.73 2.062-.73 2.062-4.163-13.71-13.229-18.29-18.37-19.807-1.565-.465-3.121.754-2.889 2.262a14.9 14.9 0 0 1-.104 5.054c-.032.169-.08.345-.112.522q-.133.59-.313 1.203-.095.313-.2.626c-.145.417-.314.85-.498 1.284-.088.2-.16.392-.257.601a21 21 0 0 1-1.027 1.95c-1.524 2.535-2.535 4.709-3.2 6.498-1.477 3.938-1.3 6.016-1.3 6.016s-1.364-1.636-2.182-4.284a1.55 1.55 0 0 0-1.06-1.035 2 2 0 0 0-.497-.08c-.168 0-.337.016-.497.056-.49.129-.915.458-1.115.987a33 33 0 0 0-.69 2.11c-.642 2.222-1.123 4.765-1.123 7.42 0 10.967 9.57 19.856 21.371 19.856.754 0 1.492-.04 2.23-.112.241-.025.474-.073.714-.105.49-.064.971-.12 1.452-.216.281-.056.546-.129.819-.193.425-.096.85-.193 1.26-.313.28-.08.553-.184.825-.28.394-.137.787-.257 1.172-.418.273-.112.537-.24.81-.36.369-.17.738-.33 1.091-.506.265-.136.514-.289.77-.433.345-.193.682-.385 1.011-.602.249-.16.481-.337.722-.505.313-.225.634-.442.939-.682.232-.185.449-.377.674-.57.288-.249.577-.497.85-.762.064-.064.144-.12.208-.184h-.048"/></g></g><defs><clipPath id="a"><rect width="72" height="72" fill="#fff" rx="36"/></clipPath></defs></svg>