<svg xmlns="http://www.w3.org/2000/svg" width="72" height="72" fill="none"><g clip-path="url(#a)"><rect width="72" height="72" fill="#FC4C02" rx="36"/><mask id="b" width="72" height="72" x="0" y="0" maskUnits="userSpaceOnUse" style="mask-type:luminance"><path fill="#fff" d="M72 0H0v72h72z"/></mask><g mask="url(#b)"><path fill="#fff" d="M12.828 61.579a2.4 2.4 0 0 1-2.398-2.399c0-9.121 6.33-13.75 6.602-13.943a2.39 2.39 0 0 1 3.089.257l6.393 6.394a2.4 2.4 0 0 1 .257 3.089c-.193.272-4.821 6.602-13.943 6.602m46.353-51.15H48.022c-5.8 0-11.303 2.39-15.298 6.394h-4.485a12 12 0 0 0-9.86 5.166l-4.331 6.257a2.397 2.397 0 0 0 1.973 3.763h8.014l-1.989 4.099a5.585 5.585 0 0 0 1.075 6.394l6.378 6.377a5.59 5.59 0 0 0 3.963 1.637c.826 0 1.66-.184 2.438-.561l4.1-1.99v8.014c0 .89.497 1.709 1.283 2.126a2.404 2.404 0 0 0 2.479-.152l6.258-4.332a11.99 11.99 0 0 0 5.166-9.86v-4.484c4.003-3.995 6.394-9.498 6.394-15.299v-11.15a2.4 2.4 0 0 0-2.399-2.4M45.591 32.81c-3.521 0-6.393-2.872-6.393-6.394s2.872-6.394 6.393-6.394 6.394 2.872 6.394 6.394-2.872 6.394-6.394 6.394"/></g></g><defs><clipPath id="a"><rect width="72" height="72" fill="#fff" rx="36"/></clipPath></defs></svg>