<svg xmlns="http://www.w3.org/2000/svg" width="72" height="72" fill="none"><g clip-path="url(#a)"><rect width="72" height="72" fill="#2965FF" rx="36"/><mask id="b" width="72" height="72" x="0" y="0" maskUnits="userSpaceOnUse" style="mask-type:luminance"><path fill="#fff" d="M72 0H0v72h72z"/></mask><g mask="url(#b)"><path fill="#fff" d="M46.994 12.787c-4.235-.024-8.263 2.022-10.99 5.584-2.712-3.586-6.747-5.64-10.99-5.584-7.95 0-14.4 7.084-14.4 15.828 0 14.978 23.785 29.61 24.748 30.172a1.06 1.06 0 0 0 1.284 0c.962-.562 24.748-14.978 24.748-30.172 0-8.744-6.45-15.828-14.4-15.828"/></g></g><defs><clipPath id="a"><rect width="72" height="72" fill="#fff" rx="36"/></clipPath></defs></svg>