<svg xmlns="http://www.w3.org/2000/svg" width="72" height="72" fill="none"><g clip-path="url(#a)"><rect width="72" height="72" fill="#FC4C02" rx="36"/><mask id="b" width="72" height="72" x="0" y="0" maskUnits="userSpaceOnUse" style="mask-type:luminance"><path fill="#fff" d="M72 0H0v72h72z"/></mask><g mask="url(#b)"><path fill="#fff" d="M36.004 61.579c-14.103 0-25.575-11.472-25.575-25.575S21.9 10.429 36.004 10.429c14.087.016 25.559 11.488 25.575 25.575 0 14.103-11.472 25.575-25.575 25.575M15.659 31.527a20.4 20.4 0 0 0-.497 4.477 20.8 20.8 0 0 0 18.202 20.665 6.16 6.16 0 0 0-.641-2.896c-.642-.923-1.757-1.508-2.848-2.078-1.62-.85-3.466-1.805-3.57-4.035a32.7 32.7 0 0 0-.153-5.551c-.144-.233-1.002-.674-1.7-1.027-2.551-1.3-7.044-3.578-8.793-9.555M35.466 35.9c1.605 0 2.752.537 4.084 1.925.818.85 1.243 1.82 1.62 2.68.602 1.371.97 2.093 2.206 2.237 1.188.145 4.084.65 5.351 2.343.49.65.666 1.388.53 2.182-.257 1.508-1.428 2.631-2.792 3.939-1.26 1.211-2.672 2.56-3.57 4.452 7.292-2.55 12.515-8.824 13.702-16.453a3 3 0 0 0-.37.353c-.456.513-.986.778-1.555.778-1.38 0-2.808-1.508-4.637-4.886-2.014-3.706-.979-5.928-.072-7.894.256-.553.497-1.075.681-1.628a10.65 10.65 0 0 0-.746-5.407 20.8 20.8 0 0 0-9.025-4.766 5.46 5.46 0 0 1-2.88 2.303C34.8 19.1 34.768 21.844 34.736 24.5c-.024 2.302-.056 4.677-2.51 5.182-.13.024-.25.04-.378.04-.85 0-1.797-.513-2.711-1.01-.77-.418-1.557-.843-2.07-.843-.048 0-.096 0-.137.016q-.454.095-.753.41a1.407 1.407 0 0 0 .04 1.974c1.42 1.467 1.508 2.446 1.588 3.304.04.465.08.858.313 1.372.401.874 1.452 1.3 3.217 1.3.545 0 1.171-.04 1.861-.129.922-.112 1.62-.2 2.278-.2z"/></g></g><defs><clipPath id="a"><rect width="72" height="72" fill="#fff" rx="36"/></clipPath></defs></svg>