<svg xmlns="http://www.w3.org/2000/svg" width="148" height="40" fill="none"><path fill="#fff" fill-rule="evenodd" d="M17.843 13.036h.184v-8.68h4.396v24.501h-3.815l-.363-2.03h-.182q-.873 1.086-2.253 1.732-1.38.647-3.27.647-2.363 0-4.305-1.173-1.943-1.17-3.07-3.254-1.125-2.08-1.126-4.777 0-2.694 1.127-4.776c.75-1.39 1.774-2.472 3.069-3.255q1.945-1.174 4.306-1.173 1.778 0 3.141.647 1.361.645 2.161 1.591m-2.178 11.586q1.09-.666 1.725-1.856t.635-2.764-.635-2.764q-.637-1.19-1.725-1.837a4.74 4.74 0 0 0-2.435-.647q-1.308 0-2.398.647-1.091.648-1.725 1.837t-.635 2.764.635 2.764 1.725 1.856a4.46 4.46 0 0 0 2.398.664q1.344.001 2.435-.664m18.092-13.827q2.651 0 4.777 1.191a8.7 8.7 0 0 1 3.342 3.29q1.216 2.1 1.217 4.725 0 2.626-1.217 4.725a8.7 8.7 0 0 1-3.342 3.29c-1.416.796-3.034 1.191-4.777 1.191q-2.615 0-4.741-1.19a8.7 8.7 0 0 1-3.343-3.29Q24.456 22.625 24.457 20q-.001-2.625 1.216-4.725a8.7 8.7 0 0 1 3.343-3.29c1.418-.793 2.974-1.19 4.74-1.19m2.468 13.809q1.127-.647 1.8-1.855.671-1.208.672-2.747 0-1.537-.673-2.746-.674-1.208-1.799-1.855a4.87 4.87 0 0 0-2.47-.647q-1.344 0-2.47.647a4.63 4.63 0 0 0-1.78 1.855q-.651 1.206-.652 2.746 0 1.538.652 2.747.655 1.208 1.78 1.855 1.125.646 2.47.647 1.345 0 2.47-.647" clip-rule="evenodd"/><path fill="#fff" d="M58.515 11.724q-1.654-.928-3.76-.927-1.855 0-3.234.631-1.38.63-2.035 1.435h-.182l-.364-1.715h-3.814v17.71h4.396V18.776q0-1.12.527-2.013a3.8 3.8 0 0 1 1.472-1.417q.945-.525 2.143-.526 1.125 0 2.035.508a3.65 3.65 0 0 1 1.416 1.4q.509.893.51 2.048v10.08h4.395v-10.64q0-2.169-.927-3.867a6.5 6.5 0 0 0-2.58-2.626z"/><path fill="#fff" fill-rule="evenodd" d="M73.389 10.795q2.507 0 4.577 1.156v-.001l.002.003a8.5 8.5 0 0 1 3.251 3.168q1.18 2.012 1.18 4.463 0 .594-.053 1.101-.056.508-.127.718h-13.77q.143 1.226.835 2.206a4.6 4.6 0 0 0 1.761 1.504 5.24 5.24 0 0 0 2.343.526q1.38 0 2.416-.56 1.034-.56 1.58-1.366h4.504q-.47 1.366-1.579 2.608-1.11 1.242-2.852 2.064-1.745.822-4.068.822-2.615 0-4.76-1.19a8.7 8.7 0 0 1-3.36-3.29Q64.052 22.625 64.053 20q-.001-2.625 1.216-4.725a8.67 8.67 0 0 1 3.36-3.29c1.43-.793 3.088-1.19 4.76-1.19m-4.105 5.584a5.2 5.2 0 0 0-.836 2.153h9.594a5.1 5.1 0 0 0-.764-2.153 4.55 4.55 0 0 0-1.618-1.522q-1-.559-2.27-.56-1.346.001-2.399.56a4.66 4.66 0 0 0-1.707 1.522" clip-rule="evenodd"/><path fill="#fff" d="M115.921 10.797q2.108 0 3.761.927l.002-.002a6.5 6.5 0 0 1 2.58 2.626q.926 1.699.927 3.867v10.64h-4.396v-10.08q0-1.155-.51-2.048a3.67 3.67 0 0 0-1.417-1.4 4.1 4.1 0 0 0-2.036-.508q-1.198.001-2.142.526-.945.524-1.472 1.418-.527.892-.527 2.012v10.08h-4.396v-24.5h4.396v8.508h.182q.616-.805 1.979-1.435t3.069-.63"/><path fill="#fff" fill-rule="evenodd" d="m139.429 13.177.363-2.03h3.813v24.5h-4.396v-8.612h-.182q-.798.91-2.161 1.54c-.906.42-1.956.63-3.141.63q-2.364 0-4.306-1.172-1.944-1.171-3.07-3.255-1.126-2.08-1.126-4.777 0-2.694 1.126-4.776c.75-1.39 1.774-2.472 3.07-3.255q1.944-1.174 4.306-1.173 1.851 0 3.269.647 1.417.648 2.253 1.733zm-2.579 11.445q1.091-.666 1.726-1.856.634-1.189.635-2.764-.001-1.574-.635-2.764-.637-1.19-1.726-1.837a4.74 4.74 0 0 0-2.434-.647 4.6 4.6 0 0 0-2.398.647q-1.092.648-1.726 1.837t-.635 2.764q0 1.574.635 2.764a4.74 4.74 0 0 0 1.726 1.856 4.46 4.46 0 0 0 2.398.664q1.344.001 2.434-.664" clip-rule="evenodd"/><path fill="#7EE100" d="M95.355 16.653v-5.442c0-.582-.734-.845-1.11-.398l-9.666 11.522a.62.62 0 0 0 .482 1.018h8.256v5.44c0 .583.734.846 1.11.399l9.666-11.522a.62.62 0 0 0-.481-1.019l-.002.002z"/></svg>